<svg xmlns="http://www.w3.org/2000/svg" width="235" height="355" fill="none"><path fill="#5CEA87" d="M192.059 137.844v.236c0 .609.942.609.942 0v-.236c0-.609-.942-.609-.942 0Z"/><path fill="#F79F9F" d="m123.425 47.227 28.093 29.495-35.141 25.532 7.048-55.027Z"/><path fill="#ED8888" d="m123.425 47.227 22.361-3.893-12.891 13.84-9.47-9.947Z"/><path fill="#DD8383" d="m151.518 76.722.707 30.52-35.848-4.988 35.141-25.532Z"/><path fill="#E25D5D" d="m152.224 107.241-24.715 35.438 3.973 23.884 20.742-59.322Z"/><path fill="#CE7272" d="m152.224 107.241 36.789-6.926-57.53 66.248 20.741-59.322Z"/><path fill="#DD8383" d="m189.013 100.315-40.749 72.953-16.781-6.705 57.53-66.248Z"/><path fill="#CE7272" d="m152.225 107.241-35.848-4.987 19.205 28.857 16.643-23.87Z"/><path fill="#E25D5D" d="m116.377 102.254-14.068 8.7 33.272 20.157-19.204-28.857Z"/><path fill="#CC6D92" d="m135.581 131.111-32.857-3.962-.415-16.195 33.272 20.157Z"/><path fill="#D6414F" d="m102.724 127.149 24.785 15.53 8.072-11.568-32.857-3.962Z"/><path fill="#DD8383" d="m102.724 127.149 28.759 39.414-3.974-23.884-24.785-15.53Zm48.794-50.427 16.657-15.655h12.17l-28.827 15.655Z"/><path fill="#ED8888" d="m180.345 61.067-28.121 46.175-.706-30.52 28.827-15.655Z"/><path fill="#F79F9F" d="m180.346 61.067 8.667 39.248-36.789 6.927 28.122-46.175Z"/><path fill="#EFB1B1" d="m180.345 61.067 9.845 1.4-1.177 37.848-8.668-39.248Z"/><path fill="#E5BDD1" d="m180.345 61.067 14.65-10.806-4.805 12.205-9.845-1.4Z"/><path fill="#E8C0BF" d="m180.345 61.067 3.448-16.417 11.202 5.61-14.65 10.807Z"/><path fill="#BF3745" d="m189.013 100.315 12.919 9.947-.734 24.645-12.185-34.592Z"/><path fill="#C65464" d="m189.013 100.315 1.939 38.693 10.246-4.101-12.185-34.592Z"/><path fill="#C66D7C" d="m190.952 139.008-34.962 20.42 33.023-59.113 1.939 38.693Zm-34.961 20.42 25.352 6.332-33.079 7.508 7.727-13.84Z"/><path fill="#C65464" d="m179.473 145.713-2.811 4.78 17.53-6.221-14.566 11.43-.942 3.823 5.414-.097-1.44 2.536-1.316 3.796-25.352-6.332 23.483-13.715Z"/><path fill="#EAA8A4" d="m131.483 166.563-26.336-36.089L75.6 155.203l55.883 11.36Z"/><path fill="#D39590" d="m75.6 155.203 23.552 44.886 32.331-33.526-55.883-11.36Z"/><path fill="#C17465" d="m99.152 200.089-2.562 16.07-21.696-32.431 24.258 16.361Z"/><path fill="#D16B50" d="m74.893 183.728-5.857 21.224 27.554 11.207-21.697-32.431Z"/><path fill="#C17465" d="m96.59 216.159-19.73 18.149-7.824-29.356 27.554 11.207Z"/><path fill="#82368C" d="m99.152 200.089 19.8 6.83-22.361 9.24 2.561-16.07Z"/><path fill="#944EA0" d="m96.59 216.159 34.644 18.246-12.282-27.486-22.361 9.24Z"/><path fill="#82368C" d="m131.233 234.405-20.603 12.537 12.116 5.639 8.487-18.176Z"/><path fill="#976DA0" d="m131.234 234.405-16.131-8.493 4.292 15.697 11.839-7.204Z"/><path fill="#944EA0" d="m131.233 234.405.028 11.152-8.515 7.024 8.487-18.176Z"/><path fill="#D89032" d="m76.86 234.308-33.604-15.184 25.781-14.172 7.823 29.356Z"/><path fill="#82368C" d="m46.675 220.662 15.023 33.775 15.162-20.129-30.185-13.646Z"/><path fill="#944EA0" d="m46.675 220.662-3.711 6.276 18.734 27.499-15.023-33.775Z"/><path fill="#82368C" d="m61.698 254.437-28.399-21.806 9.665-5.693 18.734 27.499Z"/><path fill="#944EA0" d="m33.3 232.631-3.503 14.02 31.901 7.786L33.3 232.631Z"/><path fill="#976DA0" d="m29.797 246.651 11.076 15.6 20.825-7.814-31.901-7.786Z"/><path fill="#EFAC6A" d="m69.037 204.952-8.778-27.929-17.003 42.101 25.781-14.172Z"/><path fill="#D89032" d="m69.037 204.952-8.779-27.929 14.636 6.705-5.857 21.224Z"/><path fill="#EFBB8E" d="m74.894 183.728.706-28.525-15.341 21.82 14.635 6.705Z"/><path fill="#F2C7A7" d="m75.6 155.203 23.552 44.886-24.258-16.361.706-28.525Z"/><path fill="#F4D7D7" d="m131.483 166.563 7.38 27.541-19.717-14.754 12.337-12.787Zm16.781 6.705-9.401 20.836 42.48-28.344-33.079 7.508Zm-9.401 20.836-19.911 12.815-19.8-6.83 39.711-5.985Z"/><path fill="#E8C0BF" d="m138.863 194.104-7.38-27.541 16.781 6.705-9.401 20.836Z"/><path fill="#E8C0BF" d="m119.146 179.35 19.717 14.754-39.711 5.985 19.994-20.739Z"/><path fill="#EAA8A4" d="m138.862 194.104-7.629 40.301-12.282-27.486 19.911-12.815Z"/><path fill="#D39590" d="m138.863 194.104 15.701 30.257-23.331 10.044 7.63-40.301Zm0 0 40.112.513 2.368-28.857-42.48 28.344Z"/><path fill="#EAA8A4" d="m138.863 194.104 15.701 30.257 24.453-30.104-40.154-.153Z"/><path fill="#E2DABA" d="m151.878 0 5.594 12.371L143.1 8.298 151.878 0Z"/><path fill="#E5D693" d="M151.877 0h14.054l-8.46 12.371L151.877 0Z"/><path fill="#F9DF6E" d="m165.931 0 2.7 10.293-11.16 2.078L165.931 0Z"/><path fill="#DBC775" d="m157.471 12.371 8.89 12.676 2.27-14.754-11.16 2.078Z"/><path fill="#D5B92A" d="m157.471 12.371-4.237 13.992 13.127-1.316-8.89-12.676Z"/><path fill="#B2A157" d="m153.234 26.03 1.33 21.197 11.797-22.18-13.127.984Z"/><path fill="#B2A157" d="m157.472 12.371-16.255 12.69 12.018 1.302 4.237-13.992Z"/><path fill="#D5B92A" d="m153.235 26.031-10.994 6.802 3.005-7.328 7.989.526Z"/><path fill="#F9DF6E" d="m141.217 25.061 1.024 7.772 3.005-7.329-4.029-.443Z"/><path fill="#DBC775" d="m142.241 32.833 12.323 14.394-1.329-21.196-10.994 6.802Z"/><path fill="#D5B92A" d="m143.1 8.298-1.883 16.763 16.255-12.69L143.1 8.298Zm25.532 1.995 11.561 13.355-13.832 1.4 2.271-14.755Z"/><path fill="#F9DF6E" d="m180.193 23.648-1.426 18.495 8.073-3.007-6.647-15.488Z"/><path fill="#DBC775" d="m180.193 23.648 6.023-7.384-.955 19.188-5.068-11.804Zm-11.562-13.355 10.634-3.81.928 17.165-11.562-13.355Z"/><path fill="#F2D144" d="m165.932 0 13.333 6.483-10.633 3.81L165.932 0Zm13.333 6.483 6.951 9.78-6.023 7.385-.928-17.165Z"/><path fill="#998B4F" d="m166.361 25.047 13.154 7.412.678-8.811-13.832 1.4Z"/><path fill="#998B4F" d="m166.361 25.047 5.815 13.494-17.612 8.215 11.797-21.709Zm-11.797 21.709 20.257 3.297-6.646 11.014-13.611-14.311Z"/><path fill="#D5B92A" d="m178.767 42.143-6.591-3.602 2.645 11.512 3.946-7.91Zm-6.591-3.603 7.339-6.081-13.154-7.412 5.815 13.494Z"/><path fill="#B2A157" d="m179.515 32.459-.748 9.684-6.591-3.602 7.339-6.082Z"/><path fill="#B2A157" d="m172.176 38.54 2.645 11.513-20.257-3.297 17.612-8.215Z"/><path fill="#998B4F" d="m178.767 42.143 3.753 8.59 2.257-10.834-6.01 2.244Z"/><path fill="#82722E" d="m178.767 42.143-3.946 7.91 7.698.68-3.752-8.59Zm-24.203 4.613-3.046 29.966 16.657-15.655-13.611-14.311Z"/><path fill="#998B4F" d="m145.785 43.334 8.779 3.422-3.046 29.966-5.733-33.388Z"/><path fill="#D5B92A" d="m145.786 43.334-.54-6.996 9.318 10.418-8.778-3.422Z"/><path fill="#B2A157" d="m145.786 43.334-5.913 13.84 11.645 19.548-5.732-33.388Z"/><path fill="#D6414F" d="m145.786 43.334-5.913 13.84h-6.978l12.891-13.84Z"/><path fill="#BF3745" d="m139.873 57.174 11.645 19.548-18.623-19.548h6.978Z"/><path fill="#82722E" d="m174.821 50.053 5.525 11.014h-12.171l6.646-11.014Z"/><path fill="#998B4F" d="m174.821 50.053 7.698.679-2.173 10.335-5.525-11.014Z"/><path fill="#82722E" d="m123.424 47.227-21.115 29.107 14.815 20.018 6.3-49.125Z"/><path fill="#B2A157" d="m123.424 47.227-23.234 13.77 2.119 15.337 21.115-29.107Z"/><path fill="#998B4F" d="M100.19 60.998 89.888 74.74l12.42 1.593-2.118-15.336Zm94.805-10.737 10.578 5.306-15.383 6.9 4.805-12.206Z"/><path fill="#82722E" d="m205.573 55.567-7.698 35.854-7.685-28.955 15.383-6.899Z"/><path fill="#728065" d="m190.19 62.466 7.685 28.955-8.862 8.894 1.177-37.849Z"/><path fill="#998B4F" d="m205.573 55.567 12.946 17.58-20.644 18.273 7.698-35.853Z"/><path fill="#85A665" d="m218.519 73.147 1.385 11.665-22.029 6.608 20.644-18.273Z"/><path fill="#577F11" d="m197.875 91.42 4.057 18.841-12.919-9.946 8.862-8.895Z"/><path fill="#728065" d="m219.904 84.812-17.986 25.754-4.043-19.145 22.029-6.609Z"/><path fill="#85A665" d="m219.904 84.812 9.568 15.503-20.23 16.887 10.662-32.39Z"/><path fill="#858C65" d="m219.904 84.812-10.661 32.39-7.325-6.636 17.986-25.754Z"/><path fill="#858C65" d="m209.242 117.202 22.708-3.158-2.478-13.729-20.23 16.887Zm22.708-3.158-22.708 17.705 25.726 1.025-3.018-18.73Z"/><path fill="#577F11" d="m231.95 114.044-16.629 12.967-6.079-9.809 22.708-3.158Zm-129.641-37.71 5.552 21.805 9.263-1.787-14.815-20.018Z"/><path fill="#85A665" d="M102.309 76.334 88.103 88.442l1.786-13.701 12.42 1.593Z"/><path fill="#728065" d="m102.309 76.334 5.552 21.805-19.758-9.697 14.206-12.108Z"/><path fill="#858C65" d="m88.103 88.442 14.206 22.512 5.552-12.814-19.758-9.698Z"/><path fill="#728065" d="M88.103 88.442 68.967 109.54l33.342 1.413-14.206-22.512Z"/><path fill="#85A665" d="M88.103 88.442 72.969 101.7l-4.002 7.841 19.136-21.1Z"/><path fill="#577F11" d="m68.967 109.541 10.69 20.933 22.652-19.52-33.342-1.413Z"/><path fill="#728065" d="m79.656 130.474-26.238-14.99 15.55-5.943 10.688 20.933Z"/><path fill="#858C65" d="m79.656 130.474-14.815-2.604-11.423-12.386 26.238 14.99Z"/><path fill="#728065" d="m79.657 130.474-14.76 7.523-.056-10.127 14.816 2.604Zm129.585 1.275 9.457 15.557 16.269-14.532-25.726-1.025Z"/><path fill="#82368C" d="m209.242 131.749-8.044 3.158 13.181 5.279-5.137-8.437Z"/><path fill="#944EA0" d="m214.379 140.185 4.32 7.121-17.501-12.399 13.181 5.278Z"/><path fill="#976DA0" d="m208.896 140.352-1.107 10.958 10.91-4.004-9.803-6.954Z"/><path fill="#28B29E" d="m208.896 140.352-7.698-5.445 6.59 16.403 1.108-10.958Z"/><path fill="#79A39B" d="m201.198 134.907-10.246 4.101 16.837 12.302-6.591-16.403Z"/><path fill="#28B29E" d="m190.952 139.008 12.489 20.24 4.348-7.938-16.837-12.302Zm0 0-4.016 7.841-7.463-1.136 11.479-6.705Z"/><path fill="#53C1AF" d="m190.952 139.008 3.253 5.264-7.269 2.577 4.016-7.841Zm12.489 20.24-11.576-3.006 6.01-6.013 5.566 9.019Zm-11.576-3.006-.955 8.243-8.252-2.521 9.207-5.722Z"/><path fill="#26D3BE" d="m182.658 161.964-1.316 3.796 9.568-1.275-8.252-2.521Zm11.548-17.692.332 9.296-8.709-2.743 8.377-6.553Z"/><path fill="#53C1AF" d="M185.829 150.825v5.999l8.709-3.256-8.709-2.743Z"/><path fill="#79A39B" d="m185.829 150.825-6.203 4.877 6.203 1.122v-5.999Z"/><path fill="#26D3BE" d="m185.829 156.824-7.145 2.701.942-3.823 6.203 1.122Z"/><path fill="#79A39B" d="m185.829 156.824-1.731 2.604-5.414.097 7.145-2.701Zm8.376-12.552 3.67 5.958-3.337 3.338-.333-9.296Z"/><path fill="#328E7E" d="m186.936 146.849-10.273 3.644 2.81-4.78 7.463 1.136Z"/><path fill="#28B29E" d="m191.865 156.242-.955 8.243 12.531-5.237-11.576-3.006Z"/><path fill="#EFAC6A" d="m18.9 113.683 21.198 20.13-1.87-25.297-19.328 5.167Z"/><path fill="#DB9D5A" d="m38.23 108.516 15.188 6.968-13.32 18.329-1.869-25.297Z"/><path fill="#DB9D5A" d="m18.9 113.683-1.481 21.086 22.652-1.33L18.9 113.683Z"/><path fill="#EFAC6A" d="m53.418 115.484 4.292 26.253-17.64-8.298 13.348-17.955Z"/><path fill="#DB9D5A" d="m40.07 133.439-5.967 28.151 23.608-19.853-17.64-8.298Z"/><path fill="#DB9D5A" d="m53.418 115.484 11.423 12.386-7.13 13.867-4.293-26.253Z"/><path fill="#EFAC6A" d="m18.9 113.683-9.845 8.964 8.364 12.122 1.481-21.086Z"/><path fill="#DB9D5A" d="m17.419 134.769-11.271 5.555 2.907-17.677 8.364 12.122Z"/><path fill="#BF8F56" d="m17.419 134.769 11.644 21.833 11.008-23.163-22.652 1.33Zm40.291 6.968 2.549 10.64-26.156 9.213 23.608-19.853Zm0 0 7.187-3.74-.056-10.127-7.13 13.867Z"/><path fill="#D89032" d="m6.148 140.324 22.915 16.278-11.644-21.833-11.271 5.555Zm33.922-6.885-5.967 28.151-5.04-4.988 11.008-23.163Z"/><path fill="#D89032" d="m34.103 161.59 10.191 6.123 15.965-15.336-26.156 9.213Zm30.794-23.593-4.639 14.38-2.547-10.64 7.186-3.74Z"/><path fill="#D88136" d="m29.063 156.602-3.905 9.753-19.01-26.031 22.915 16.278Z"/><path fill="#D88136" d="m34.103 161.59 10.19 6.123-19.135-1.358 8.945-4.765Z"/><path fill="#D16B50" d="m6.148 140.324 3.973 16.361 15.037 9.67-19.01-26.031Zm19.01 26.031 3.905-9.753 5.04 4.988-8.945 4.765Zm35.1-13.978-5.899 9.213-10.066 6.123 15.965-15.336Z"/><path fill="#28B29E" d="m9.056 122.647-1.773-.984-2.063 1.316 3.836-.332Z"/><path fill="#79A39B" d="m5.22 122.979 2.853 5.639.983-5.971-3.836.332Zm2.63 6.955-5.206.54-2.104 4.295 7.31-4.835Z"/><path fill="#53C1AF" d="m7.85 129.934-1.246 7.592-6.064-2.757 7.31-4.835Zm-1.702 10.39-3.614 3.284.443 6.081 3.17-9.365Z"/><path fill="#79A39B" d="m6.162 140.296 1.578 6.567-4.763 2.826 3.185-9.393Z"/><path fill="#53C1AF" d="M96.59 216.159v20.85l-17.598 1.178 17.599-22.028Z"/><path fill="#79A39B" d="m96.59 216.159 18.513 9.753-18.512 11.097v-20.85Z"/><path fill="#28B29E" d="m78.992 238.187 13.14 21.667 4.459-22.845-17.599 1.178Z"/><path fill="#79A39B" d="m78.992 238.187-6.854 10.667 19.993 11-13.14-21.667Z"/><path fill="#53C1AF" d="m72.138 248.854-2.049 13.397-8.39-7.814 10.44-5.583Z"/><path fill="#79A39B" d="m61.697 254.437-20.893 31.698 29.284-23.884-8.39-7.814Z"/><path fill="#328E7E" d="m96.59 237.009 22.805 4.6-4.292-15.697-18.512 11.097Z"/><path fill="#187F6B" d="m96.59 237.009 5.539 16.112 17.266-11.512-22.804-4.6Z"/><path fill="#328E7E" d="m96.59 237.009 5.539 16.112-9.997 6.733 4.459-22.845Zm-24.452 11.845 19.994 11-22.043 2.397 2.05-13.397Z"/><path fill="#187F6B" d="m70.089 262.251 11.755 14.823 10.288-17.22-22.043 2.397Z"/><path fill="#28B29E" d="m70.088 262.251-15.77 40.619-13.514-16.735 29.284-23.884Z"/><path fill="#328E7E" d="m70.089 262.251-15.77 40.619 27.525-25.796-11.755-14.823Z"/><path fill="#7A7EC6" d="m40.804 286.135-.11 27.776 13.624-11.041-13.514-16.735Z"/><path fill="#A3A3E5" d="m40.804 286.135-18.4 19.45 18.29 8.326.11-27.776Z"/><path fill="#6A6ACE" d="m22.403 305.585-11.714 7.744 21.628 11.735-9.914-19.479Z"/><path fill="#606096" d="M32.316 325.063 5.65 328.915l5.04-15.586 21.627 11.734Z"/><path fill="#55A" d="m5.649 328.915-.18 12.662 26.848-16.513-26.668 3.851Z"/><path fill="#55A" d="m32.316 325.064 5.553 17.525-19.773 10.653 14.22-28.178Z"/><path fill="#275A8B" d="m32.317 325.064-14.22 28.178-12.628-11.665 26.848-16.513Z"/><path fill="#275A8B" d="m37.869 342.589 3.655 11.789-23.428-1.136 19.773-10.653Z"/><path fill="#55A" d="m37.869 342.589 6.84 5.901-3.185 5.888-3.655-11.789Z"/><path fill="#187F6B" d="m33.3 232.631-9.014 15.891 5.51-1.871 3.504-14.02Z"/><path fill="#328E7E" d="m29.796 246.651-1.813 15.6-3.697-13.729 5.51-1.871Z"/><path fill="#187F6B" d="m29.797 246.651 11.077 15.6h-12.89l1.813-15.6Z"/><path fill="#6A6ACE" d="m27.983 262.251 5.483 10.723 7.408-10.723h-12.89Zm0 0-9.887 2.66 6.19-16.389 3.697 13.729Z"/><path fill="#7A7EC6" d="M18.097 264.911 1.55 278.501l22.735-29.979-6.19 16.389Z"/><path fill="#606096" d="m18.096 264.911 15.37 8.063-5.483-10.723-9.887 2.66Z"/><path fill="#55A" d="m18.097 264.911 15.37 8.063-31.916 5.527 16.546-13.59Z"/><path fill="#275A8B" d="m1.55 278.501 26.433 6.927 5.483-12.454-31.915 5.527Z"/><path fill="#27348B" d="M1.55 278.501 0 308.051l27.983-22.623-26.432-6.927Z"/><path fill="#275A8B" d="M10.69 313.33 0 308.051l27.983-22.623-17.294 27.902Z"/><path fill="#27348B" d="m27.983 285.428-5.58 20.157-11.714 7.745 17.294-27.902Z"/><path fill="#7A7EC6" d="m40.694 313.911-8.377 11.153-9.914-19.479 18.29 8.326Z"/></svg>