<svg xmlns="http://www.w3.org/2000/svg" width="174" height="248" fill="none"><path fill="#C4BD28" d="m73.942 39.63 5.238-2.018s-2.844 1.081-5.263 2.005h.025v.012Zm7.34-24.867-.571-.522c.364.34.57.522.57.522Z"/><path fill="#C4BD28" d="M76.53 14.46h-.049l6.88.461s-.037-.024-.062-.024l-2.017-.146-4.752-.304v.013Zm3.427 24.756-.778-1.604.778 1.616v-.012Zm-.777-1.604c.06.012 2.248.121 4.74.255l-4.74-.255Zm-3.95-16.869 1.276 2.965h.06c-.23-.486-.74-1.64-1.349-2.965h.013Zm10.16 5.141 1.871.45-1.847-.45h-.024Z"/><path fill="#C1A21E" d="M77.272 41.027 79.18 37.6l-5.238 2.017a99.97 99.97 0 0 1 3.33 1.41Z"/><path fill="#D9B42B" d="M77.806 41.27c.705.304 1.884-1.592 2.152-2.042l-.766-1.616-1.908 3.427c.194.085.377.17.535.23h-.013Z"/><path fill="#C1A21E" d="M80.006 39.13c2.321.937 4.934.11 5.675-.51a1.01 1.01 0 0 0 .353-.644l-2.127-.11a319.1 319.1 0 0 1-4.74-.254l.778 1.616.049-.085.012-.012Z"/><path fill="#FACB6E" d="m79.18 37.612-5.396-8.155-2.565 9.163c.863.292 1.787.645 2.686.997 2.419-.924 5.263-2.005 5.263-2.005h.012Z"/><path fill="#D9B42B" d="m79.18 37.612 4.74.255 2.126.11v-.086l-4.813-3.22-7.45-5.202 5.397 8.155v-.012Z"/><path fill="#C1A21E" d="m71.231 38.608 2.565-9.163-4.813 2.722c.134.535.243.936.28 1.155.194 1.02-1.143 3.767-1.69 4.825l.426-.134c.534-.182 1.786.11 3.245.595h-.013Z"/><path fill="#C1A21E" d="m73.796 29.457 7.45 5.201-4.728-10.95-1.276-2.965c-.73-1.64-1.592-3.549-2.163-4.886-.17.097-.328.195-.486.292l1.215 13.296-.012.012Z"/><path fill="#FACB6E" d="m81.234 34.658 4.812 3.221c.037-.535-.23-1.07-.23-1.07s.024 0 .024-.011a1.732 1.732 0 0 0-.486-.256l1.288-1.118-.207-1.434s1.398.389 1.884-.644c.122-.255.06-.632-.11-1.057l-6.963 2.357-.012.012Z"/><path fill="#90850B" d="m81.234 34.658 6.964-2.357c-.17-.438-.462-.936-.754-1.386l-6.21 3.743Zm-7.438-5.201-5.372.486c.206.85.4 1.628.559 2.236l4.813-2.722Z"/><path fill="#D9B42B" d="m73.796 29.457-6.417-7.195c-.292 1.677.413 5.056 1.045 7.68l5.372-.485ZM76.7 24s-.049-.097-.121-.267h-.061l4.728 10.925 6.21-3.743a16.763 16.763 0 0 0-1.142-1.555l.984-1.35c.182-.267.121-.923-.024-1.665l-1.872-.461-8.69-1.872L76.7 24Z"/><path fill="#F5B643" d="M73.796 29.457 72.58 16.16c-2.625 1.665-4.557 4.023-5.116 5.736-.037.11-.061.244-.085.377l6.417 7.195v-.012Z"/><path fill="#EAA95D" d="m85.414 25.884 1.848.45c-.28-1.386-.875-3.051-.875-3.051 1.008-.11 1.02-1.775.96-2.577l-1.933 5.178Z"/><path fill="#EABF32" d="M75.23 20.743c.596 1.337 1.118 2.48 1.349 2.977.073.17.122.268.122.268l8.69 1.871h.023L73.809 15.444a8.717 8.717 0 0 0-.741.401c.583 1.337 1.434 3.245 2.163 4.886v.012Z"/><path fill="#907E0C" d="M75.813 14.642c-.693.206-1.361.486-2.005.814l11.606 10.428 1.933-5.178a9.528 9.528 0 0 0-.05-.437c-.327-2.771-1.92-4.448-3.949-5.335l-6.879-.462c-.23.048-.45.11-.656.17Z"/><path fill="#E39133" d="M80.71 14.229a12.26 12.26 0 0 0-4.18.23l4.752.304s-.207-.194-.571-.522v-.012Z"/><path fill="#D9B42B" d="M83.3 14.897a8.926 8.926 0 0 0-1.811-.547l-.207.401 2.017.146Z"/><path fill="#C1A21E" d="M81.489 14.35c-.256-.048-.51-.097-.778-.121l.57.522.207-.4Z"/><path fill="#C4BD28" d="M33.847 75.154v-.061l-4.897-.183c2.588.134 4.897.244 4.897.244Zm-10.67 2.053h-.012l2.892 6.09-2.37-5.032-.51-1.058Zm3.451-2.406-.753-.036.765.036h-.012ZM45.223 54.7l-.024.024c1.252.729 5.056 2.759 8.337 4.497a.736.736 0 0 0-.097-.11l-8.216-4.424v.012ZM35.5 64.617l10.792-.997h.037l-5.032.45-5.797.559v-.012Zm0 0-1.507-.365 1.507.365Z"/><path fill="#FAD669" d="m22.777 90.528-.28-.158c.085.06.182.122.28.158Z"/><path fill="#F7CB43" d="m22.484 90.37.28.158s.06.024.097.036c1.397.45 1.373.34 1.118-.474l-1.847-.158c.072.17.182.316.34.425l.012.013Z"/><path fill="#D9B42B" d="M22.046 89.665c.025.097.061.194.098.28l1.847.157c-.037-.133-.085-.28-.134-.45-.133-.473-.158-.802-.097-1.057l-1.702 1.07h-.012Z"/><path fill="#EABF32" d="M33.835 75.165h.012v-.011l-.012.011Z"/><path fill="#F7CB43" d="M15.496 81.109c-1.41.875-2.844 1.835-2.832 2.297.024.705 1.385.826 1.385.826s-3.001 2.224-2.017 2.868c0 0 .632.316 1.677-.51 0 0-1.568 2.017-.632 2.127.936.11 1.677-.51 1.677-.51s-1.154 1.312-.328 1.494c.62.134 3.756-.656 6.016-1.507l-3.451-4.886-1.507-2.2h.012Z"/><path fill="#F5D543" d="m17.003 83.308 3.451 4.886c.79-.304 1.483-.608 1.896-.875 0 0-.547 1.35-.303 2.334l1.701-1.07c.085-.389.365-.608.693-.9.547-.498 1.75-2.843 1.616-3.475a2.89 2.89 0 0 1-.036-.523l-9.03-.389.012.012Z"/><path fill="#C1A21E" d="M19.58 78.69c-.827.426-1.593.863-2.152 1.216-.51.328-1.215.753-1.932 1.203l1.507 2.2 2.576-4.619Z"/><path fill="#D9B42B" d="m19.58 78.69-2.577 4.618 9.03.39c0-.122 0-.256.024-.402l-2.892-6.089c-.936.231-2.322.84-3.586 1.483Z"/><path fill="#EAA95D" d="M33.799 75.214s.024-.024.048-.036l-.048.036Z"/><path fill="#FAD669" d="m23.687 78.265 2.37 5.031a4.495 4.495 0 0 1 1.884-3.293c1.714-1.228 4.472-3.573 5.858-4.8l.048-.062-10.16 3.112v.012Z"/><path fill="#C1A21E" d="M33.848 75.154s-2.31-.11-4.898-.243h.012l-2.334-.122-.765-.036c-.924 1.312-1.762 2.284-2.358 2.382a1.9 1.9 0 0 0-.34.072l.51 1.058 10.16-3.111h.013Z"/><path fill="#D9B42B" d="m35.5 64.617-.486 3.22-1.07 7.231.353-.316c.45-.413 1.762-1.324 3.39-2.673L35.5 64.617Zm-1.652 10.538s.05-.037.075-.062h-.075v.062ZM45.15 54.772l-.17.17 3.476 7.888c1.385-.559 2.904-1.288 4.083-2.102l-7.389-5.944v-.012ZM26.628 74.801l2.334.122h-.012v-.013h-.061l-2.14-1.434c-.29.45-.582.888-.862 1.289l.753.036h-.012Z"/><path fill="#CC7A1F" d="m35.014 67.85-6.125 7.06h.06l4.91.183h.086l1.07-7.231v-.013Zm.486-3.233 2.188 7.462a48.118 48.118 0 0 0 1.835-1.604L35.5 64.617Zm9.686-9.881-.036.036 7.39 5.943c.51-.364.96-.741 1.3-1.13 0 0-.11-.134-.304-.352-3.294-1.738-7.086-3.768-8.337-4.497h-.013Z"/><path fill="#C1A21E" d="m35.5 64.617 4.023 5.858c1.86-1.726 3.853-3.877 5.347-6.405 0 0 .572-.158 1.435-.45l-10.793.997H35.5ZM46.462 53.46s-.522.535-1.24 1.24l8.217 4.423s-.025-.036-.049-.048c-.11-.098-.23-.183-.34-.268a8159.317 8159.317 0 0 1-6.587-5.335v-.012Z"/><path fill="#FACB6E" d="m35.014 67.85-5.991 2.029c-.73 1.13-1.52 2.418-2.285 3.597l2.139 1.434 6.125-7.06h.012Z"/><path fill="#90850B" d="m35.014 67.85.486-3.221-4.703 2.844c-.377.425-.693.802-.912 1.13a80.84 80.84 0 0 0-.863 1.288l5.992-2.03v-.012Zm9.37-12.336-3.087 8.556 5.032-.45a49.128 49.128 0 0 0 2.127-.79l-3.476-7.887c-.195.182-.39.376-.596.57Z"/><path fill="#D9B42B" d="m35.5 64.617-1.507-.365c-1.227 1.142-2.37 2.273-3.196 3.208l4.704-2.843Z"/><path fill="#F5B643" d="M41.674 57.847a1.087 1.087 0 0 1-.194.11c-.657.34-3.573 2.722-6.38 5.262l.388 1.398 6.174-6.77h.012Z"/><path fill="#CC7A1F" d="m35.5 64.617 5.797-.56 3.087-8.555c-.984.935-2.078 1.932-2.71 2.333l-6.174 6.77v.012Z"/><path fill="#EAA95D" d="m35.5 64.617-.389-1.398c-.377.34-.753.693-1.118 1.033l1.507.365Z"/><path fill="#C4BD28" d="M117.305 71.204c.571.522.923.85.923.85l-.923-.85Zm14.487 43.351-2.832-3.209 2.795 3.221s.025 0 .037-.012Z"/><path fill="#C4BD28" d="m123.479 72.431-.013-.012-5.25-.377-4.326-.28s-.037 0-.061.013l9.65.644v.012Zm4.594 23.067v-.06l-4.898-.183c2.589.134 4.898.243 4.898.243Zm-7.207-.352L118.034 95c.802.037 1.787.097 2.82.146h.012Zm-7.353-14.122c-.231-.499-.742-1.653-1.349-2.978l1.276 2.966h.061l.012.012Zm8.823 2.151 5.506 1.337-5.494-1.337h-.012Zm5.956 21.463-.061-4.169-.158-4.97.219 9.139Z"/><path fill="#DB923F" d="M132.74 112.477a1.416 1.416 0 0 1 .036-.596l-3.816-.522 2.832 3.208c.729-.292 1.106-1.082.936-2.09h.012Z"/><path fill="#EAA95D" d="m128.96 111.359 3.816.522c.292-1.094 1.702-2.115 2.564-2.54-.328-.389-.85-1.045-1.652-2.054-.341-.425-.644-1.106-.936-1.932l-3.78 6.016-.012-.012Z"/><path fill="#A25B0D" d="M130.819 114.664c.365.049.681 0 .948-.097l-2.795-3.221-2.005.742c.243.826.425 1.482.522 1.835a.63.63 0 0 1 .158-.182s1.811.741 3.172.911v.012Z"/><path fill="#F7CB43" d="m128.292 104.638-2.747-.414c.097.073 3.427 7.122 3.427 7.122l3.78-6.016s0-.036-.012-.048l-4.436-.656-.012.012Z"/><path fill="#D9B42B" d="m128.291 104.638 4.436.656a31.546 31.546 0 0 1-.632-2.188l-3.816 1.532h.012Z"/><path fill="#F7CB43" d="M126.687 111.164c.097.328.195.644.28.936l2.005-.741-2.285-.195Z"/><path fill="#D9B42B" d="m125.545 104.237-1.009.632c.814 2.078 1.592 4.46 2.151 6.295l2.285.195s-3.33-7.049-3.427-7.122Z"/><path fill="#EABF32" d="m125.545 104.237 2.747.401-.219-9.14-2.528 8.739Z"/><path fill="#F5D543" d="M124.257 104.188c.085.219.182.45.267.668l1.009-.631-1.276-.049v.012Z"/><path fill="#EAA95D" d="m128.073 95.498-5.19 5.846c.45.729.924 1.714 1.386 2.844l1.276.049 2.528-8.726v-.013Z"/><path fill="#FAD669" d="m128.073 95.498-7.924 2.419c.741.911 1.543 1.872 2.321 2.844.134.17.268.364.401.583l5.19-5.846h.012Z"/><path fill="#C1A21E" d="M128.073 95.498s-2.309-.109-4.898-.243h.012l-2.333-.109a223.728 223.728 0 0 1-2.82-.146c.535.9 1.276 1.884 2.115 2.917l7.924-2.419Zm.219 9.14 3.816-1.532a32.457 32.457 0 0 1-.401-1.798l-3.464-.851.049 4.169v.012Z"/><path fill="#FACB6E" d="M110.074 89.118c.522-.377 1.021-.754 1.507-1.106l-.839-1.264-.668 2.37Zm18.157 11.351 3.463.851a74.502 74.502 0 0 1-.522-2.759l-3.099-3.05.158 4.97v-.012Z"/><path fill="#D9B42B" d="M128.17 95.438h-.085v.06l3.099 3.05c-.255-1.445-.474-2.83-.656-3.961-.304-1.811-.815-3.95-1.349-5.87l-.997 6.733-.012-.012Zm-16.601-7.426c.158-.122.316-.231.474-.353l-1.313-.911.839 1.264Zm9.297 7.134 2.333.121h-.012v-.012h-.061l-4.934-3.305-1.495-1.046c.268 1.058.511 2.006.669 2.577.133.462.364.972.68 1.507l2.832.146-.012.012Z"/><path fill="#CC7A1F" d="M123.114 95.255h.061l4.91.183h.085l.997-6.721c-.025-.11-.061-.219-.085-.328l-5.956 6.866h-.012Z"/><path fill="#C1A21E" d="m110.73 86.748-7.268 4.108a47.958 47.958 0 0 1-1.057 3.61c1.701-1.022 4.885-3.294 7.669-5.348l.668-2.37h-.012Zm4.618-1.349c.17.705.79 3.33 1.337 5.505l1.495 1.046-2.832-6.551Z"/><path fill="#C1A21E" d="m110.73 86.748 1.313.911c1.737-1.3 3.038-2.285 3.232-2.43l-1.823-4.23-1.276-2.965c-.851-1.908-1.871-4.193-2.418-5.494-.098.013-.207.037-.304.05l1.288 14.146-.012.012Z"/><path fill="#FACB6E" d="m118.18 91.95 4.934 3.305 5.955-6.866s-.024-.085-.036-.122l-10.865 3.683h.012Z"/><path fill="#90850B" d="m118.18 91.95 10.865-3.683a56.332 56.332 0 0 0-.741-2.43L118.18 91.95Zm-13.916-4.619a55.144 55.144 0 0 1-.802 3.513l7.268-4.108-6.466.583v.012Z"/><path fill="#D9B42B" d="m104.264 87.331 6.466-.583-5.627-6.308c-.037 1.823-.28 3.804-.62 5.7-.073.401-.146.802-.219 1.191Zm9.371-6.04s-.049-.097-.122-.267h-.061l1.823 4.217.025-.024s.012.06.048.182l2.832 6.55 10.124-6.113c-.17-.498-.316-.948-.462-1.324l-5.505-1.337-8.69-1.872-.012-.012Z"/><path fill="#F5B643" d="M105.091 78.97c.024.474.024.96.012 1.458l5.627 6.308-1.288-14.147c-.377.061-.717.122-1.021.17-1.568.256-3.719 1.13-4.667 1.544.851 1.045 1.252 2.71 1.337 4.667Z"/><path fill="#EAA95D" d="m122.348 83.175 5.494 1.337a9.188 9.188 0 0 0-.304-.742c-.705-1.543-1.021-4.922-1.908-8.07a5.449 5.449 0 0 0-.231-.668l-3.051 8.143Z"/><path fill="#EABF32" d="M112.176 78.034c.596 1.337 1.118 2.48 1.349 2.977.073.17.122.268.122.268l8.689 1.871h.025l-11.959-10.73a65.37 65.37 0 0 0-.644.108 530.5 530.5 0 0 0 2.418 5.494v.012Z"/><path fill="#907E0C" d="m122.349 83.175 3.05-8.143c-.462-1.179-1.167-2.017-1.92-2.589l-9.65-.644c-.948.195-2.248.438-3.439.644l11.959 10.744v-.012Z"/><path fill="#E39133" d="M118.228 72.055s-.352-.317-.923-.851c-1.07.036-1.969.11-2.151.23-.122.074-.596.207-1.264.34l4.326.28h.012Z"/><path fill="#D9B42B" d="M123.467 72.42c-.924-.718-1.896-1.046-2.54-1.131-.474-.073-1.337-.097-2.261-.11l-.437.863 5.25.377h-.012Z"/><path fill="#C1A21E" d="M118.666 71.18c-.45 0-.924 0-1.361.024l.923.85.438-.862v-.013Z"/><path fill="#C4BD28" d="m63.429 165.988.11-2.783.91-.608-.923.62-.097 2.771Zm19.178-25.644h.012l-5.177-1.336c.073.048 3.05.814 5.165 1.349v-.013Zm-10.927 7.949 2.517 2.892s0-.012.012-.024l-2.54-2.868h.012Zm-6.38 3.147a1311.12 1311.12 0 0 0 1.763 3.501l1.47 2.904-3.245-6.405h.013Zm-4.35 6.539 6.113.996-1.434-.243-4.68-.753Zm4.897 3.865.122-.255.291-.195-.291.195-.122.255Zm21.852-31.951-2.042-9.201c.025.158 1.981 8.897 2.042 9.201ZM60.95 157.979s-.645-.109-1.556-.267v.012l1.556.243v.012Zm20.782-46.207s.024.024.048.036c.693.474 6.344 3.476 10.282 5.554v-.036l-10.355-5.579.025.025Zm-3.5 9.589-2.455.231v.012l9.868-.912-7.413.657v.012Zm13.235-1.422-5.822.753 5.822-.753Zm-5.688-10.95-.365-.365s-.036.012-.048.024l7.024 7.171v-.024l-6.623-6.806h.012ZM70.94 137.415l-.037-1.312-.036.036.133 5.445-.048-4.169h-.012Z"/><path fill="#F5B643" d="M80.444 142.325a19.1 19.1 0 0 1 2.163-1.981c-2.115-.535-5.105-1.3-5.165-1.349l3.002 3.33Z"/><path fill="#FACB6E" d="M78.341 145.181a14.27 14.27 0 0 1 2.103-2.843l-3.002-3.33.899 6.173Z"/><path fill="#DB923F" d="M74.209 151.161a79.952 79.952 0 0 0 1.774-2.285l-4.302-.583 2.54 2.868h-.012Z"/><path fill="#EAA95D" d="m75.485 142.24-3.804 6.052 4.302.584c.9-1.216 1.653-2.321 2.066-3.148.097-.194.195-.377.292-.559l-.9-6.174-1.968 3.245h.012Z"/><path fill="#A25B0D" d="m71.68 148.293-6.708 2.503 8.75.973.475-.584-2.516-2.892Z"/><path fill="#B96913" d="m64.972 150.796 5.117 3.33 1.07.705a232.08 232.08 0 0 0 2.564-3.05l-8.75-.972v-.013Z"/><path fill="#DB923F" d="M70.867 155.171c.097-.109.194-.23.303-.352l-1.07-.705.779 1.057h-.013Z"/><path fill="#CC7A1F" d="M69.76 156.435c.329-.388.705-.814 1.094-1.264l-.778-1.057s-.145 1.13-.328 2.321h.012Z"/><path fill="#E39133" d="m60.95 157.979 2.564 5.238.936-.62 1.519-1.021.304-.182c.486-.875.96-1.689 1.349-2.309l-.547-.097-6.113-1.009h-.013Z"/><path fill="#F7CB43" d="m65.847 161.844-1.227 2.637c.437-.839.96-1.823 1.47-2.771l-.121-.121-.122.255Z"/><path fill="#EABF32" d="M66.091 161.712c.061-.11.122-.208.171-.318l-.293.196.122.122Z"/><path fill="#D9B42B" d="m65.847 161.844.122-.255-1.52 1.008-.91.62-.122 2.783-.037.863c.11-.194.207-.389.292-.559.194-.389.522-1.045.924-1.811l1.227-2.637.024-.012Z"/><path fill="#C1A21E" d="m57.377 162.913-.487.657c.17.522.426 1.008.73 1.458l.923-.292 4.959-1.531-2.565-5.238-3.573 4.934.013.012Z"/><path fill="#AC9414" d="m63.526 163.217-4.959 1.531-.923.292c.328.486.717.924 1.13 1.325l.936.158 3.56.595c.05-.085.098-.17.134-.255l.037-.863.097-2.771-.012-.012Z"/><path fill="#D9B42B" d="M64.972 150.796s.134.268.328.644l3.245 6.405c.292-.34.717-.826 1.228-1.409.182-1.192.34-2.31.328-2.322l-5.117-3.33-.012.012Z"/><path fill="#F7CB43" d="m67.063 154.941-1.434 3.792 1.434.255.547.097c.23-.365.437-.656.595-.851.073-.097.195-.219.328-.377l-1.47-2.904v-.012Z"/><path fill="#FAD669" d="m65.629 158.733 1.434-3.792-6.114 3.038 4.68.754Z"/><path fill="#EAA95D" d="M67.063 154.941s-1.18-2.334-1.763-3.5a40.887 40.887 0 0 0-.328-.645l-4.022 7.183 6.113-3.038Zm10.379-15.946 5.177 1.337c.438-.34.826-.632 1.118-.863a.37.37 0 0 1 .085-.06l-3.488-5.98-2.892 5.566Z"/><path fill="#F7CB43" d="M68.254 141.171c.097.073 3.427 7.122 3.427 7.122l3.804-6.053-4.485-.656-2.746-.413Z"/><path fill="#D9B42B" d="m71 141.584 4.485.656 1.957-3.245L71 141.584Zm12.835-2.175c1.24-.936 3.184-2.346 3.694-3.756l-7.183-2.224 3.489 5.98Z"/><path fill="#BBA125" d="M88.282 132.906c.183-.717.401-1.531.62-2.43l-1.203-.571.583 3.001Z"/><path fill="#D9B42B" d="M88.902 130.476c.134-.511.267-1.045.401-1.592l-1.604 1.021 1.203.571Z"/><path fill="#FACB6E" d="m87.7 129.905-7.354 3.524 7.183 2.224s.012-.036.024-.049c.098-.279.365-1.263.742-2.698l-.584-3.001H87.7Z"/><path fill="#EABF32" d="M60.184 156.059c-.256.571-.523 1.118-.778 1.665.911.146 1.555.255 1.555.255l-.765-1.92h-.012Z"/><path fill="#D9B42B" d="m64.972 150.796-2.94 1.228c-.584 1.252-1.216 2.674-1.848 4.047l.766 1.92 4.022-7.182v-.013Z"/><path fill="#FAD669" d="M63.125 149.739c-.328.632-.693 1.41-1.081 2.273l2.94-1.228-1.847-1.045h-.012Z"/><path fill="#F7CB43" d="m71.681 148.293-7.608-.644c-.255.656-.535 1.3-.863 1.92-.024.048-.06.109-.085.17l1.847 1.045 6.709-2.503v.012Z"/><path fill="#D9B42B" d="m68.254 141.171-2.382 1.482c-.62 1.556-1.143 3.306-1.799 4.996l7.608.644s-3.33-7.049-3.427-7.122Z"/><path fill="#EABF32" d="m71 141.584-.133-5.445c-.56.571-1.118 1.155-1.653 1.714l-.96 3.318 2.746.413Z"/><path fill="#F5D543" d="m68.254 141.171-1.665-.061c-.255.486-.486.997-.705 1.544l2.382-1.483h-.012Z"/><path fill="#EAA95D" d="m68.254 141.171.96-3.318a75.53 75.53 0 0 0-1.58 1.714 7.797 7.797 0 0 0-1.045 1.543l1.665.061Z"/><path fill="#C1A21E" d="m70.94 137.415.06 4.169 6.442-2.589-6.502-1.58Zm14.705-16.723 2.042 9.2 1.604-1.02c.438-1.726.912-3.646 1.374-5.579l-5.032-2.613.012.012Z"/><path fill="#FACB6E" d="m77.442 138.995-4.776-4.703c-.547.559-1.155 1.179-1.763 1.811l.037 1.312 6.502 1.593v-.013Zm13.235-15.69c.267-1.13.534-2.26.79-3.366l-5.822.753 5.032 2.613Z"/><path fill="#D9B42B" d="M75.218 131.399a4.78 4.78 0 0 1-.499.73 86.99 86.99 0 0 1-2.053 2.163l4.776 4.703-2.224-7.596Zm6.562-19.591s-.036-.024-.048-.036l.047.036Z"/><path fill="#D9B42B" d="m81.707 111.747 3.938 8.945 5.822-.753c.024-.097.048-.182.06-.28l-9.759-7.851s-.073-.048-.073-.061h.013Z"/><path fill="#CC7A1F" d="m80.346 133.429-3.95-5.761c0 .073.025.158.037.231 0 0-.39 2.066-1.204 3.513l2.225 7.596 2.892-5.567v-.012Z"/><path fill="#CC7A1F" d="m85.645 120.692-5.31 12.737 7.352-3.524c-.06-.292-2.017-9.042-2.042-9.2v-.013Zm-3.912-8.92-.026-.025s.026.025.076.063l-.05-.038Z"/><path fill="#CC7A1F" d="m81.78 111.808 9.76 7.851c.182-.79.352-1.555.522-2.297-3.925-2.078-9.577-5.08-10.281-5.554Z"/><path fill="#C1A21E" d="m80.346 133.429 5.311-12.737-9.868.912c.158 2.078.352 4.254.595 6.064l3.95 5.761h.012Zm5.02-24.768c-.51.303-.997.619-1.41.899-.073.048-.158.109-.23.158-.438.316-1.253.838-2.2 1.422l.17.607 10.354 5.579c.11-.523.219-1.021.328-1.495l-7.024-7.17h.012Z"/><path fill="#90850B" d="M89.68 107.178c-.462-.219-1.36.024-2.37.474l-1.53 1.349 6.623 6.806a79.36 79.36 0 0 0 .741-3.804c-.547-.462-2.504-4.376-3.452-4.813l-.012-.012Zm-4.035 13.514-3.937-8.945-3.476 9.614 7.413-.669Z"/><path fill="#D9B42B" d="M87.31 107.64c-.62.267-1.276.619-1.896.984l.365.365 1.531-1.349Z"/><path fill="#F5B643" d="M80.808 111.589a253.9 253.9 0 0 1-5.433 3.233c.037.717.098 2.042.195 3.646l6.125-6.721-.9-.158h.013Z"/><path fill="#CC7A1F" d="m81.707 111.747-6.125 6.721c.06.96.122 2.018.207 3.112l2.455-.231 3.475-9.602h-.012Z"/><path fill="#FACB6E" d="m81.707 111.747-.17-.607c-.23.146-.474.291-.729.449l.9.158Z"/><path fill="#AC9414" d="m57.377 162.913 3.573-4.934-1.556-.255c-.972 2.017-1.884 3.719-2.552 4.351l.535.838Z"/><path fill="#90850B" d="M58.762 166.353c1.446 1.385 3.148 2.139 3.44 2.005.097-.049.206 0 .303.109.255-.449.523-.911.754-1.349l-3.561-.595-.936-.158v-.012Z"/><path fill="#BBA125" d="m56.902 163.582.487-.657-.535-.838c-.073.061-.134.121-.207.17.025.462.11.899.255 1.325Z"/><path fill="#C4BD28" d="M99.585 45.256s.024 0 .037-.012l-1.823-.474s.79.231 1.786.486Zm16.626-20.114-1.118 6.04-1.13 6.381 2.248-12.42Zm-9.139 6.126c.486 2.15.948 4.253.984 4.4l-.984-4.4Zm9.139-6.126-5.749-3.087s0 .037-.012.049c3.051 1.616 5.761 3.038 5.761 3.038Z"/><path fill="#C4BD28" d="m116.819 25.203-.62-.049s.267.037.608.061l.012-.012Zm-.608-.061-4.035.523-3.135.401 7.17-.924Z"/><path fill="#C4BD28" d="m116.211 25.142-5.165-5.31v.036l5.165 5.274Z"/><path fill="#F5B643" d="M98.589 45.645c.316-.121.644-.243.996-.389-1.009-.255-1.75-.462-1.786-.486l.79.875Z"/><path fill="#FACB6E" d="M97.957 45.876c.194-.073.413-.146.632-.23l-.79-.876.158 1.106Z"/><path fill="#EAA95D" d="M96.9 46.253c.315-.11.668-.231 1.056-.377L97.8 44.77l-.9 1.483Z"/><path fill="#EAA95D" d="m97.799 44.77 1.823.474a67.717 67.717 0 0 0 3.67-1.592l-2.601-4.448-2.892 5.566Z"/><path fill="#D9B42B" d="M95.757 45.584a1.463 1.463 0 0 0-.061.22c-.073.267-.134.449-.17.497-.06.098-.097.256-.122.414.243-.073.754-.231 1.495-.474l.9-1.483-2.042.814v.012Zm7.535-1.932a65.173 65.173 0 0 0 3.841-1.969c.194-.11.376-.206.571-.316l-7.001-2.163 2.601 4.448h-.012Z"/><path fill="#907E0C" d="m116.539 26.686.219-1.167-.559-.377.328 1.544h.012Z"/><path fill="#90850B" d="M113.963 37.563c.875-.62.559-3.075.923-3.597.207-.292.973-3.768 1.653-7.28l-.328-1.544-2.248 12.421Z"/><path fill="#BBA125" d="m108.044 35.667.96 4.959c2.236-1.276 3.403-2.03 4.156-2.54l-5.116-2.419Z"/><path fill="#D9B42B" d="m115.093 31.183-7.037 4.484 5.116 2.419c.304-.207.547-.365.766-.51l.024-.025 1.131-6.38v.012Z"/><path fill="#FACB6E" d="m108.044 35.667-7.353 3.525 7.001 2.163c.474-.267.911-.51 1.312-.741l-.96-4.959v.012Z"/><path fill="#F5D543" d="M116.77 25.52c.024-.11.036-.207.061-.317-.353-.036-.572-.06-.608-.06l.559.376h-.012Z"/><path fill="#EABF32" d="M116.831 25.191c.28-1.495.523-2.917.693-3.998l-1.313 3.95.62.048Z"/><path fill="#C1A21E" d="m95.757 45.584 2.042-.814-1.714-.413c-.11.462-.219.875-.328 1.24v-.013Zm12.287-9.917 7.037-4.484-6.721-3.488c-.51 1.251-.984 2.515-1.3 3.573l.984 4.4Z"/><path fill="#FACB6E" d="m96.085 44.357 1.714.413-1.47-1.446c-.025.073-.037.158-.061.23-.061.28-.122.548-.183.803Zm19.008-13.174 1.118-6.04-7.171.935c-.23.523-.461 1.07-.68 1.629l6.721 3.488.012-.012Zm-2.808-21.816 3.926 15.763 1.313-3.95a30.34 30.34 0 0 0 .194-1.494c.097-1.155.279-2.917.401-4.716l-5.821-5.603h-.013Z"/><path fill="#D9B42B" d="M96.778 41.306c-.158.693-.304 1.386-.462 2.018l1.47 1.446-1.008-3.464Zm15.386-15.653-.073-.061-.158-.121h-.012l-2.018-1.63c-.23.681-.474 1.338-.729 1.933-.048.098-.085.207-.133.304l3.123-.413v-.012Z"/><path fill="#CC7A1F" d="m96.778 41.306 1.008 3.464 2.893-5.566-2.65-3.853c-.109.073-.206.146-.303.219-.013 1.045-.474 3.464-.973 5.736h.025Zm3.913-2.102 7.353-3.525c-.037-.146-.498-2.236-.985-4.4-.158.511-.267.985-.328 1.362 0 0-1.64.207-3.597.693l-2.455 5.87h.012Zm11.242-13.734.158.122.073.06 4.035-.522s-2.71-1.422-5.761-3.038c-.17.595-.352 1.179-.547 1.738l2.018 1.616h.012l.012.025Zm.352-16.103 5.822 5.603c.146-2.2.17-4.448-.231-5.688a14.916 14.916 0 0 0-.231-.62l-5.36.717v-.012Z"/><path fill="#C1A21E" d="m100.691 39.204 2.455-5.87c-1.762.437-3.78 1.093-5.092 2.017l2.649 3.853h-.012Zm15.52-14.062-5.165-5.274a41.51 41.51 0 0 1-.584 2.187l5.749 3.087Zm-3.926-15.775 5.36-.717c-1.033-2.516-3.962-7.255-5.542-7.669 0 0-.219-.073-.425-.036.316 4.023.62 8.422.62 8.422h-.013Z"/><path fill="#90850B" d="M116.211 25.142 112.286 9.38l-2.504 2.188c.267.194.559.377.875.51 1.191.523 1.811 1.264 1.458 2.93-.182.85-.546 2.722-1.057 4.824l5.165 5.311h-.012Z"/><path fill="#D9B42B" d="M107.303 8.845c.291.194.547.437.753.753.426.669.985 1.41 1.726 1.957l2.504-2.188-4.983-.522Z"/><path fill="#F5B643" d="M112.285 9.367s-.303-4.411-.619-8.422c-.17.024-.328.121-.341.389 0 0-1.409-1.957-2.017-1.13-.608.826-2.577 2.661-.669 6.295l.608 1.616s-2.941-1.677-3.962-.595c0 0-.34.365.389.608.474.158 1.094.352 1.629.717l4.982.522Z"/><path fill="#359FB7" d="m87.675 86.967.23-5.567 1.836-1.227-1.86 1.24-.206 5.554Zm10.355-3.464 1.215-8.264h-.013l-1.203 8.264Zm-5.506-4.825.243-.51 2.382-1.58s-.036.012-.049.024l-2.333 1.556-.243.522v-.012Z"/><path fill="#29C178" d="M98.03 83.503v.024l.279-.182 6.781-4.375c-.085-1.957-.486-3.622-1.336-4.667-.073-.085-.146-.17-.219-.243 0 0-1.957.486-4.29 1.179l-1.216 8.264Z"/><path fill="#44E099" d="m87.237 80.124.632 1.3 1.86-1.239 3.038-2.03v.025l2.321-1.556a23.35 23.35 0 0 0-1.762.73c-3.293 1.555-3.73 1.98-3.73 1.98l-1.143.39-1.216.412v-.012Z"/><path fill="#59FCE8" d="m87.602 89.24.048.011-.06.086v.024h-.012l-.9 1.483.012-.013 1.47-.948 9.857-6.356-5.25-5.36-.243.511-4.922 10.561Z"/><path fill="#42EAD9" d="M98.017 83.527v-.024l1.216-8.264c-1.337.4-2.808.862-4.084 1.349l-2.382 1.58 5.25 5.36Z"/><path fill="#39D3C7" d="m87.906 81.4-.231 5.567-.073 2.273 4.922-10.562.243-.522.012-.012-3.038 2.03-1.835 1.227Z"/><path fill="#28B2AB" d="M83.968 81.23s-1.75.365-3.597.827c-.426.11-.839.218-1.252.328-1.252.413-2.273.778-2.76 1.02-.412.329-1.214 1.216-2.029 2.176l3.622-1.118 9.93-3.063-.633-1.3-1.75.596-1.519.51-.012.024Z"/><path fill="#1A9696" d="m87.591 89.337-.013.026h.013v-.026Zm-9.639-4.862-3.622 1.118c-.352.413-.704.839-1.033 1.24l1.094.194 5.834.985 7.365 1.24.085-2.285.194-5.542-9.929 3.062.012-.012Z"/><path fill="#359FB7" d="m88.161 89.883 9.188 8.095a.71.71 0 0 0 .085-.049l-9.26-8.058-.013.013Zm-1.507 1.007.035-.058-.011.011-.024.047Z"/><path fill="#28B2AB" d="M93.788 109.037c.037-.267.073-.559.122-.838l-.888-.353.766 1.191Z"/><path fill="#5AF9CB" d="m84.466 94.465-.036.061 8.58 13.308.887.353c.316-2.249.657-4.996.888-6.843l-10.319-6.879Z"/><path fill="#94FFDE" d="m88.161 89.883-1.47.949-.037.06-2.175 3.573 10.318 6.879c.146-1.227.255-2.066.255-2.066s1.033-.571 2.31-1.3l-9.189-8.094h-.012Z"/><path fill="#7DEAB0" d="m98.31 83.345-.293.182-9.856 6.356 9.261 8.058c1.945-1.106 4.412-2.528 4.679-2.783l-3.804-11.813h.012Z"/><path fill="#0F6C70" d="M104.264 87.331c.073-.389.146-.79.219-1.191l-6.174-2.795 3.804 11.813s.158-.292.292-.693c.267-.741.656-2.03 1.057-3.61a78.56 78.56 0 0 0 .802-3.512v-.012Z"/><path fill="#44E099" d="M104.483 86.14c.328-1.896.571-3.877.62-5.7 0-.498 0-.996-.012-1.458l-6.782 4.375 6.174 2.795v-.012Z"/><path fill="#359FB7" d="m73.297 86.833 1.094.182-1.094-.194v.012Zm-.705 13.114-.996.923s0 .012.012.024l.984-.96v.013Z"/><path fill="#39D3C7" d="m84.43 94.526-6.697 10.999 6.223 4.035c.413-.292.887-.596 1.41-.899.012 0 .024-.013.048-.025.62-.364 1.276-.705 1.896-.984 1.009-.438 1.908-.681 2.37-.474.948.449 2.917 4.351 3.452 4.813.048.036.085.06.11.036.096-.061.303-1.313.546-3.002l-.766-1.191-8.58-13.308h-.012Z"/><path fill="#44E099" d="M81.537 111.152c.948-.583 1.762-1.106 2.2-1.422.073-.049.146-.109.231-.158l-6.223-4.035-2.442 5.08c0 2.078-.085 4.315-.085 4.315s.06-.037.17-.098a459.61 459.61 0 0 0 5.432-3.232c.256-.158.499-.304.73-.45h-.013Z"/><path fill="#94FFDE" d="m72.592 99.947-.984.96c1.458 2.71 2.674 4.399 3.233 5.675l2.88-1.057-5.14-5.579h.011Z"/><path fill="#28B2AB" d="M74.853 106.582c.146.341.255.644.304.936.11.583.134 1.811.134 3.087l2.442-5.08-2.88 1.057Z"/><path fill="#0E6270" d="m72.592 99.947 5.141 5.578 6.697-10.999.036-.06 2.176-3.574.036-.06.9-1.471v-.024l.06-.086h-.048L80.225 88l-5.834-.985-1.094-.182-1.093 1.337-.353.45s-2.017 4.715-1.531 8.726l2.358 2.528-.073.073h-.013Z"/><path fill="#11757F" d="m72.678 99.874-2.358-2.528c.11.85.316 1.677.693 2.406.206.401.4.766.595 1.13l.997-.923.073-.073v-.012Z"/><path fill="#B77835" d="M73.941 39.63h-.024c-1.738.668-3.257 1.251-3.342 1.312l3.366-1.3v-.013Zm9.832 32.133.122-2.783.912-.62-.936.632-.098 2.77Zm5.177-1.738.718-4.898v.012l-.717 4.886Zm-1.53-9.31 2.236 4.412-3.999-7.912c.584 1.167 1.763 3.5 1.763 3.5Zm0 4.035-1.434-.255-4.68-.753 6.114 1.008Z"/><path fill="#B77835" d="m86.313 67.363-.121.255.121-.255 3.355-2.224h-.012l-3.343 2.224ZM73.76 62.526l.036.049 7.51 1.166s-7.571-1.264-7.547-1.215ZM91.138 38.22v-.061l-4.897-.182c2.588.133 4.897.243 4.897.243Zm-7.619 8.519-2.553-5.42-1.008-2.103v.012l3.56 7.51Zm-16.104 5.955s3.245-11.63 3.16-11.764l-3.16 11.764ZM89.704 64.92a.897.897 0 0 1-.036.192l.024-.192h.012Zm1.641-17.573-.048-4.17-.158-4.958.206 9.128ZM67.39 42.582l-4.776 2.662 7.961-4.314-3.184 1.652Zm3.185-1.665-4.241-2.382s-.025 0-.037.013c2.078 1.154 4.157 2.296 4.278 2.37Z"/><path fill="#891028" d="m85.33 56.559 4.91.547.072-2.407-4.983 1.86Z"/><path fill="#A81830" d="m85.33 56.559 4.836 3.148.073-2.601-4.91-.547Z"/><path fill="#C1293F" d="m89.668 65.115-.717 4.898.146-.085.802-.51.207-7.038c-.158 1.033-.316 2.079-.39 2.528l-.024.195-.024.012Z"/><path fill="#E04457" d="m83.87 68.992.937-.632 1.519-1.009-.012.012 3.342-2.224-2.236-.389-6.114-1.008 2.565 5.25Zm5.81-3.865-.012-.012v.012h.012Z"/><path fill="#FC7B59" d="m86.314 67.363-.122.255-2.455 5.275v.012h.025l-.025.049-.012.012v-.012l-.45.741.742-.474 4.934-3.184-2.637-2.674Z"/><path fill="#EA6942" d="M88.951 70.037v-.012l.717-4.886-3.354 2.224 2.637 2.674Z"/><path fill="#D36039" d="m84.806 68.36-.911.62-.122 2.783-.036 1.13 2.455-5.275.121-.255.013-.012-1.52 1.009Z"/><path fill="#B24F28" d="m77.734 68.688-2.079 2.832 3.257-1.009 4.959-1.52-2.564-5.25v.013l-3.573 4.934Z"/><path fill="#96431A" d="M83.725 72.954v.012l.012-.012h-.012Zm.146-3.962-4.959 1.519-3.257 1.009 1.47.267 2.918.498 3.694.62v-.012l.037-1.13.097-2.771Z"/><path fill="#D36039" d="M85.329 56.559s.134.267.328.644l3.999 7.912v.024-.012a.97.97 0 0 1 .036-.194c.073-.45.231-1.495.389-2.528l.073-2.686-4.837-3.148.012-.012Z"/><path fill="#FC7B59" d="m87.42 60.715-1.434 3.78 1.434.255 2.236.39h.012l-.012-.013v-.012l-2.236-4.4Z"/><path fill="#FFA28D" d="m87.42 60.715-6.114 3.026 4.68.754 1.434-3.78Z"/><path fill="#EA7D93" d="m81.306 63.742 6.114-3.039s-1.18-2.333-1.763-3.5a42.41 42.41 0 0 0-.328-.644l-4.023 7.183Z"/><path fill="#FC7B59" d="M88.598 46.945s.96 1.92 1.823 3.744l.049-1.556 4.983-.924s-.012-.097-.037-.255l-4.07-.596-2.748-.413Z"/><path fill="#D36039" d="M95.514 46.314s.097-.231.17-.499c.024-.073.036-.145.06-.218l-4.399 1.762 4.071.595c-.036-.303-.073-.826-.024-1.227.024-.17.06-.316.122-.413Z"/><path fill="#EA6942" d="m73.759 62.526 7.547 1.215-1.896-4.727-5.651 3.5v.012Z"/><path fill="#D36039" d="m81.307 63.742 4.022-7.183-5.918 2.467 1.896 4.715Z"/><path fill="#B24F28" d="m73.76 62.526 5.65-3.5-7.96-.073.012.012 2.297 3.561Z"/><path fill="#FFA28D" d="m85.33 56.559-6.381-3.597.462 6.064 5.918-2.467Z"/><path fill="#FC7B59" d="m78.949 52.962 6.38 3.597 4.983-1.86.025-.777-11.388-.96Z"/><path fill="#D36039" d="m88.599 46.945-9.65 6.016 11.388.96.097-3.232c-.863-1.823-1.775-3.707-1.823-3.744h-.013ZM71.45 58.953l7.96.073-.461-6.065-7.499 5.992Z"/><path fill="#EA6942" d="m67.415 52.694 4.035 6.26 7.499-5.992-11.534-.268Zm21.183-5.748 2.747.413v-.012l-.207-9.128-2.54 8.727Z"/><path fill="#FC7B59" d="m74.294 46.374-3.72-5.444c.098.145-3.159 11.764-3.159 11.764l11.534.267-4.655-6.599v.012Z"/><path fill="#F98B5A" d="m74.294 46.374 4.654 6.587 9.65-6.015-5.068-.183-9.236-.389Z"/><path fill="#D36039" d="m67.39 52.645.025.05 3.16-11.765-7.96 4.314.036.049 4.74 7.352Z"/><path fill="#B24F28" d="M77.272 41.027c-.851-.377-2.055-.9-3.33-1.41l-3.367 1.3 3.719 5.445 2.978-5.335Z"/><path fill="#D36039" d="M79.957 39.228c-.267.45-1.446 2.346-2.151 2.042-.158-.073-.34-.146-.535-.231l-2.977 5.335 9.248.39v-.025l-3.585-7.51Z"/><path fill="#EA7D93" d="m83.53 46.763 5.069.183 2.54-8.727-7.608 8.544Z"/><path fill="#FFA28D" d="m80.966 41.319 2.553 5.42.012.024 7.608-8.544-10.173 3.1Z"/><path fill="#B24F28" d="M86.24 37.976h.013-.207a1.013 1.013 0 0 1-.352.645c-.741.62-3.354 1.446-5.676.51 0 0-.024.036-.048.085l1.008 2.103 10.16-3.112s-2.308-.11-4.897-.243v.012Zm5.057 5.202.048 4.169 4.4-1.763c.097-.328.206-.753.328-1.24l-4.776-1.166Z"/><path fill="#FF9794" d="M73.917 39.617a43.65 43.65 0 0 0-2.686-.996l-.644 2.309c.085-.049 1.604-.645 3.342-1.313h-.012Zm17.38 3.561 4.776 1.167c.06-.255.122-.51.194-.802.025-.073.037-.158.061-.231l-5.19-5.105.159 4.971Z"/><path fill="#D36039" d="M91.236 38.159h-.085v.06l5.19 5.105c.145-.632.303-1.313.461-2.018l-1.483-5.08c-.972.231-2.127.122-2.455-.073-.121-.073-.62-.085-1.3-.06l-.304 2.053-.024.013Zm-4.986-.184h-.012v-.012h-.06l-.12-.084v.084h.204l-.012.012Z"/><path fill="#FFA28D" d="m67.39 42.583-2.88-3.464c-.765.23-1.555.474-2.248.668l.365 5.457 4.764-2.674v.013Z"/><path fill="#C1293F" d="M70.575 40.93c-.134-.073-2.2-1.216-4.278-2.37-.535.17-1.154.364-1.787.559l2.88 3.464 3.197-1.653h-.012Zm15.605-2.966h.06l4.91.183h.085l.304-2.054a40.332 40.332 0 0 0-4.047.364l-1.312 1.507Zm10.598 3.342c.498-2.284.948-4.703.972-5.736 0 0-.486-.547-1.434.207-.268.218-.632.352-1.021.45l1.483 5.08Z"/><path fill="#D36039" d="M62.25 39.787a30.03 30.03 0 0 1-1.702.45 2.982 2.982 0 0 0-.923.352l3.002 4.655-.365-5.457h-.012Z"/><path fill="#B24F28" d="m70.575 40.93.644-2.31c-1.458-.486-2.71-.777-3.245-.595l-.425.134c-.292.097-.73.23-1.24.389l4.242 2.382h.024Z"/><path fill="#FF9794" d="m86.059 37.88.121.084 1.313-1.507c-.802.11-1.434.231-1.641.353 0 0-.024 0-.024.012 0 0 .28.522.23 1.07v-.013Z"/><path fill="#703D0E" d="M83.725 72.954h.012l.025-.049h-.025l-3.694-.62-2.917-.498-1.483-.255-.012.024-.012-.024h-.037l-6.563-1.106 7.256 7.79-.049.037 2.577 2.783 3.354-5.493.013-.037 1.093-1.787.012-.024.45-.741Z"/><path fill="#96431A" d="m77.733 68.688 3.573-4.934-7.51-1.18 3.937 6.114Z"/><path fill="#B77835" d="m84.017 73.221 5.627 4.959v-.073l-5.627-4.886Zm-.754.501.014-.027-.014.027Z"/><path fill="#F9615A" d="m85.487 80.72 1.75-.596 1.216-.413-6.284-4.205-.012.036 3.33 5.178Z"/><path fill="#FF9794" d="m83.275 73.695-.012.025-1.094 1.786 6.284 4.205 1.154-.401.037-1.13-5.627-4.959-.742.474Z"/><path fill="#EA7D93" d="m89.085 69.952-.134.085-4.934 3.184 5.627 4.886.17-5.919-.73-2.236Z"/><path fill="#70330F" d="m89.814 72.188.049-1.884-.778-.352.729 2.236Z"/><path fill="#E04457" d="m89.862 70.304.025-.875-.802.523.778.352Z"/><path fill="#B77835" d="m75.643 71.532 1.483.255-1.47-.267-.013.012Zm-1.847-8.957-1.908 3.099-2.869 4.752 4.777-7.851Zm-6.344.231 1.555 7.608s-1.543-7.572-1.555-7.608Zm2.09 14.754c-.122 0-.608-.049-1.288-.097l1.288.097Zm-.012-.024a172.735 172.735 0 0 0-2.188-2.188v.024l2.175 2.164h.013ZM53.487 59.148l.207.17c1.69.9 3.233 1.713 4.193 2.212l-4.412-2.382h.012Zm13.965 3.658-5.64-.486v.012c2.48.206 5.64.474 5.64.474ZM48.833 51.697l-.669-.668-.036.036 10.014 10.221-9.322-9.589h.013Zm24.963 10.878 1.786 8.957h.037l-1.823-8.957Z"/><path fill="#7F4011" d="m69.53 77.536.039.038s-.013-.025-.04-.038Z"/><path fill="#96431A" d="M69.566 77.572h-.036l-1.288-.097c.145.34.279.656.4.96l.912-.863h.012Z"/><path fill="#70330F" d="m69.566 77.572-.911.863c.498 1.191.85 2.103.948 2.48.06.218.146.558.267.972l-.292-4.315h-.012Z"/><path fill="#AA5631" d="m75.655 71.52 2.078-2.832-3.937-6.113 1.823 8.957.012.024.012-.024.012-.012Z"/><path fill="#96431A" d="m75.582 71.532-1.786-8.957-4.777 7.85 6.563 1.107Z"/><path fill="#D36039" d="M69.542 77.56h.036l-.036-.037-2.175-2.163c.315.73.62 1.447.899 2.09.68.05 1.166.098 1.288.098l-.012.012Z"/><path fill="#96431A" d="m69.53 77.536.036.036c.073.11-.547-7.146-.547-7.146L66.2 72.71c.39.887.779 1.774 1.155 2.637.985.972 2.006 1.981 2.188 2.188h-.012Z"/><path fill="#F9615A" d="m71.888 65.674-4.436-2.868 1.555 7.608 2.868-4.74h.013Z"/><path fill="#D36039" d="m73.796 62.575-6.344.23 4.436 2.869 1.908-3.1Z"/><path fill="#FF9794" d="m73.796 62.575-.037-.049-2.297-3.56-4.01 3.84 6.344-.231Zm-4.776 7.851-1.556-7.608-.875 4.46-.875 4.339c.158.364.316.73.486 1.094l2.82-2.285Z"/><path fill="#7F4011" d="m66.577 67.278-2.03 1.714c.365.814.754 1.701 1.155 2.625l.875-4.339Z"/><path fill="#70330F" d="m66.577 67.278-3.926-2.661c.243.607.486 1.215.766 1.823.304.668.692 1.555 1.142 2.564l2.03-1.714-.012-.012Z"/><path fill="#F98B5A" d="M67.452 62.806s-3.16-.255-5.64-.474c.244.705.523 1.483.84 2.273l3.925 2.661.875-4.46Z"/><path fill="#EA6942" d="M67.452 62.806s-5.433-9.674-5.518-9.82l-2.321 7.024 1.154-1.02s.39 1.421 1.058 3.342l5.639.486-.012-.012Z"/><path fill="#7F4011" d="m67.39 52.645-5.456.34c.097.147 5.517 9.82 5.517 9.82l-.06-10.16Z"/><path fill="#96431A" d="m71.462 58.965-.012-.012-4.035-6.259-.024-.049.06 10.16 4.011-3.84Z"/><path fill="#B24F28" d="m62.65 45.293-.716 7.693 5.457-.34-4.74-7.353Z"/><path fill="#FF9794" d="m61.934 52.986-6.94-6.672 3.634 14.572.972-.876 2.334-7.024Z"/><path fill="#C1293F" d="m53.694 59.318 3.512 2.82.68-.608c-.96-.51-2.503-1.313-4.192-2.212Zm8.957-14.025-7.657 1.02 6.94 6.673s.754-7.645.717-7.693Z"/><path fill="#B24F28" d="M48.14 51.066c-.802.911-1.41 1.737-1.677 2.394 0 0 4.812 3.913 6.587 5.335.11.085.219.182.34.267.036.025.06.049.097.073l4.412 2.37.255-.23L48.14 51.052v.013Zm14.51-5.773-.036-.049-3.002-4.655c-.996.572-1.543 1.556-2.212 2.103-.255.206-1.24.996-2.515 2.066.073.96.11 1.556.11 1.556l7.656-1.021Z"/><path fill="#703D0E" d="m54.994 46.314-6.161 5.384 9.321 9.6.474-.413-3.634-14.571Z"/><path fill="#D36039" d="m54.994 46.313-1.713-.182c-1.762 1.532-3.707 3.33-5.105 4.898l.669.668 6.162-5.384h-.013Z"/><path fill="#F9615A" d="M54.885 44.758c-.498.413-1.045.887-1.616 1.373l1.713.183s-.036-.608-.11-1.556h.013Z"/><path fill="#B77835" d="m76.226 78.253-5.833 5.469c.012.06.036.11.048.17l5.785-5.64Z"/><path fill="#D36039" d="M80.383 82.069c1.835-.462 3.597-.826 3.597-.826l1.52-.511-3.33-5.177-3.355 5.493 1.58 1.02h-.012Z"/><path fill="#E04457" d="m80.383 82.069-1.58-1.021-.814 1.69c.352-.11.729-.22 1.13-.341.413-.11.838-.23 1.252-.328h.012Z"/><path fill="#FF9794" d="m78.803 81.036-2.577-2.796-5.785 5.64c.013.06.037.121.049.182l8.3-3.026h.013Z"/><path fill="#B24F28" d="M72.204 88.17c.267-.328.644-.802 1.094-1.337.328-.401.68-.826 1.032-1.24.815-.96 1.617-1.847 2.03-2.175.267-.207.863-.438 1.629-.68l.814-1.69-8.3 3.026c.194.669.4 1.361.583 1.993l1.118 2.103Z"/><path fill="#59260C" d="M71.085 86.067c.426 1.41.766 2.553.766 2.553l.353-.45-1.119-2.103Z"/><path fill="#7F4011" d="m76.226 78.253.037-.037-7.256-7.79s.62 7.255.547 7.146l.292 4.315c.146.522.328 1.166.535 1.835l5.833-5.47h.012Z"/><path fill="#5AF9CB" d="m61.8 169.768 1.021 1.58c.183-.219.328-.426.365-.584 0-.036 0-.073.012-.109l-1.373-.924-.025.037Z"/><path fill="#94FFDE" d="M63.198 170.655c.024-.51-.28-1.677-.632-2.139l-.741 1.215 1.373.924Z"/><path fill="#0E6270" d="M62.201 168.358c-.291.134-1.993-.62-3.44-2.005l-1.98-.328-1.483-.256v.025l-.024-.025h-.037l-5.675-.96a2.9 2.9 0 0 0 .134.729c.024.098.06.207.085.316l6.137 6.588-.036.036 2.576 2.795 3.354-5.493.025-.037.741-1.215s-.036-.048-.06-.061c-.098-.109-.207-.145-.305-.109h-.012Z"/><path fill="#359FB7" d="m55.298 165.757-.012.012 1.495.243-1.483-.255Zm-.061 0h.037l-.754-3.682h-.024l.741 3.682Z"/><path fill="#28B2AB" d="m56.902 163.582-1.592 2.175 2.322-.717a5.865 5.865 0 0 1-.73-1.458Z"/><path fill="#1A9696" d="m55.31 165.745 1.483.267 1.981.329a8.559 8.559 0 0 1-1.13-1.325l-2.322.717-.012.012Z"/><path fill="#31AAA7" d="M55.274 165.769v.025l.024-.025v-.024l1.592-2.175a4.836 4.836 0 0 1-.255-1.325s-.972-.231-2.127-.17l.754 3.682.012.012Z"/><path fill="#1A9696" d="m55.237 165.757-.74-3.682a6.425 6.425 0 0 0-.949.109c-1.373.28-4.108.413-3.986 2.613l5.675.96Z"/><path fill="#359FB7" d="m55.881 172.478-4.654 4.363v.17l4.654-4.533Z"/><path fill="#39D3C7" d="m58.458 175.273 1.823 1.179c.608-1.872 1.24-3.84 1.24-3.84s.814-.681 1.313-1.264l-1.021-1.58-3.355 5.493v.012Z"/><path fill="#7DEAB0" d="M58.094 189.505c1.385-.243 1.604-1.203 1.47-2.103l-5.663-1.75c1.251 2.176 2.783 4.096 4.205 3.853h-.012Z"/><path fill="#42EAD9" d="m53.803 185.506.086.158 5.663 1.75a4.808 4.808 0 0 0-.474-1.397c-.122-.219-.195-.693-.23-1.288l-5.057.789.012-.012Z"/><path fill="#44E099" d="M53.657 185.251c.049.085.097.17.134.255l5.056-.79c-.11-1.725.073-4.472.328-5.067.146-.353.62-1.738 1.094-3.197l-1.823-1.179-4.789 9.978Z"/><path fill="#94FFDE" d="m58.458 175.273-2.577-2.795-4.654 4.533c0 .292.024.584.048.875l7.183-2.625v.012Z"/><path fill="#28B2AB" d="m58.458 175.273-7.183 2.625c.098 1.386.328 2.881.839 4.12.401.948.936 2.115 1.544 3.245l4.788-9.978.012-.012Z"/><path fill="#11757F" d="m55.882 172.478.036-.036-6.137-6.588c.79 2.881 1.58 6.758 1.519 7.803-.025.51-.122 1.726-.085 3.184l4.654-4.363h.013Z"/><path fill="#359FB7" d="M131.792 114.555s-.025 0-.037.012l.328.377 3.877 4.326-4.168-4.715Z"/><path fill="#359FB7" d="m132.096 114.944-.146 5.226v2.224h.012l.134-7.45Zm9.674 2.151 1.422 1.203-1.41-1.215-5.554-4.74 2.917 2.528 2.625 2.224Z"/><path fill="#94FFDE" d="m136.228 112.343 2.345-.984a1.406 1.406 0 0 1-.231-.122c-1.227-.693-1.762-2.127-2.564-2.066l.462 3.16-.012.012Z"/><path fill="#18A860" d="m136.228 112.343 5.542 4.74 1.422 1.215.06.061-.34-2.018-.644-3.901c-1.264-.292-2.795-.644-3.707-1.081l-2.345.984h.012Z"/><path fill="#29C178" d="m135.972 119.27 3.172-4.399-2.916-2.528-.256 6.927Z"/><path fill="#54D695" d="M132.74 112.477c.158.996-.207 1.786-.936 2.09l4.168 4.716.268-6.928-3.452-.474a1.416 1.416 0 0 0-.036.596h-.012Z"/><path fill="#7DEAB0" d="m132.776 111.869 3.452.474-.462-3.16a.59.59 0 0 0-.243.061 1.153 1.153 0 0 0-.183.085c-.862.437-2.272 1.458-2.564 2.54Zm3.197 7.401-3.877-4.326-.134 7.45a4.03 4.03 0 0 0 1.373-.413l2.625-2.711h.013Z"/><path fill="#108949" d="m132.096 114.944-.329-.377a1.85 1.85 0 0 1-.948.097c-1.349-.182-3.172-.911-3.172-.911s-.072.048-.158.182a1.53 1.53 0 0 0-.182.486l4.789.535v-.012Z"/><path fill="#18A860" d="m131.95 120.17.145-5.226-4.788-.535c-.073.328-.097.79 0 1.471.061.401.097.863.134 1.336l4.509 2.966v-.012Z"/><path fill="#54D695" d="m131.95 120.17-4.509-2.966v.049l3.792 5.177c.243 0 .486 0 .717-.036v-2.224Z"/><path fill="#29C178" d="M127.441 117.253c.109 1.568.17 3.354.717 4.083.45.608 1.75 1.07 3.075 1.094l-3.792-5.177Z"/><path fill="#359FB7" d="m148.393 115.017 2.638-1.665 1.178-1.276h-.072l-1.24 1.3-2.504 1.629v.012Zm-5.153 3.354c.17.158.681.644 1.41 1.313h.024l-1.422-1.313h-.012Z"/><path fill="#0F6C70" d="M138.184 120.632c1.058-.146 1.957-.219 2.346-.207.474.012 1.75-.17 3.111-.486-.231-.778-.389-1.349-.449-1.544l-5.008 2.237Zm15.861-6.563c.352-.644-.134-2.042-1.823-1.993l-1.179 1.276 3.014.717h-.012Z"/><path fill="#94FFDE" d="m148.393 115.017-5.019 3.269 5.542-.693c1.956-1.215 4.703-2.868 5.104-3.476 0-.012.012-.024.024-.048l-3.014-.717-2.637 1.665Z"/><path fill="#28B2AB" d="m143.374 118.286-.109.073h-.025l1.422 1.312c1.106-.303 2.139-.68 2.698-1.081.353-.255.912-.608 1.556-1.009l-5.542.693v.012Zm-.111.071-.059-.047.059.047Z"/><path fill="#42EAD9" d="M152.137 112.076a4.476 4.476 0 0 0-1.289.291l.049 1.009 1.24-1.3Z"/><path fill="#59FCE8" d="M150.86 112.367c-.182.073-.376.146-.571.243a1.661 1.661 0 0 1-.073.037l.693.741-.049-1.009v-.012Z"/><path fill="#44E099" d="m150.909 113.376-.693-.741a8.058 8.058 0 0 1-.595.255l1.288.486Z"/><path fill="#29C178" d="m143.264 118.359.11-.073 5.019-3.269 2.504-1.629-1.289-.486c-2.88 1.13-4.533.316-5.541 0-.389-.122-1.046-.267-1.799-.438l.644 3.902.34 2.017.012-.024Z"/><path fill="#108949" d="m143.192 118.298-1.422-1.203-2.626-2.224-3.172 4.399 2.99-.376 4.302-.535-.06-.049-.012-.012Z"/><path fill="#44E099" d="M143.24 118.359h.025l-4.303.535-3.002.376-2.625 2.711.146-.073c1.045-.62 3.063-1.046 4.703-1.289l5.008-2.236c.048.195.218.778.449 1.544.328-.073.669-.158 1.009-.256-.729-.668-1.24-1.154-1.41-1.312Z"/><path fill="#C1293F" d="M160.802 107.664c6.846 0 12.396-5.55 12.396-12.397 0-6.846-5.55-12.396-12.396-12.396-6.847 0-12.397 5.55-12.397 12.396 0 6.847 5.55 12.397 12.397 12.397Z"/></svg>