<svg xmlns="http://www.w3.org/2000/svg" width="397" height="396" fill="none"><path fill="#CC6D92" d="m128.899 395.619-35.717-13.52 2.105 13.05 33.612.47Z"/><path fill="#C1859D" d="m128.899 395.619-8.614-24.472-27.103 10.952 35.717 13.52Z"/><path fill="#DB93B0" d="m128.899 395.619 18.669-26.625-27.283 2.153 8.614 24.472Z"/><path fill="#D3A9BC" d="m147.567 368.994 16.001 20.025-34.669 6.6 18.668-26.625Z"/><path fill="#C1859D" d="m147.568 368.994 11.266-2.356 4.734 22.382-16-20.026Z"/><path fill="#DB93B0" d="m147.567 368.994-8.489-20.73 19.756 18.374-11.267 2.356Z"/><path fill="#D3A9BC" d="m139.078 348.264 19.678 3.695.078 14.679-19.756-18.374Zm0 0-6.525 8.377 15.015 12.353-8.49-20.73Z"/><path fill="#E5BDD1" d="m132.553 356.641-12.268 14.506 27.283-2.153-15.015-12.353Zm26.203-4.682-18.7-41.091-.978 37.396 19.678 3.695Z"/><path fill="#EFB1B1" d="m140.056 310.868 30.812-17.442-12.112 58.533-18.7-41.091Z"/><path fill="#E8C0BF" d="m170.867 293.426-31.789-25.709.978 43.151 30.811-17.442Z"/><path fill="#F79F9F" d="m139.078 267.717 26.242-8.54 5.547 34.249-31.789-25.709Zm26.243-8.541-18.52-28.949 26.555-24.597-8.035 53.546Z"/><path fill="#EFB1B1" d="m165.32 259.177-9.858-15.399-16.384 23.94 26.242-8.541Z"/><path fill="#EAA8A4" d="m139.078 267.718-5.578-16.057 21.962-7.883-16.384 23.94Z"/><path fill="#EFB1B1" d="m155.462 243.778-8.661-13.551-13.301 21.434 21.962-7.883Z"/><path fill="#D39590" d="m173.355 205.63 24.177 35.705-32.212 17.841 8.035-53.546Z"/><path fill="#D88136" d="m197.532 241.335 8.818-63.246-32.994 27.541 24.176 35.705Z"/><path fill="#D89032" d="m206.35 178.089 33.777 35.698-42.595 27.548 8.818-63.246Z"/><path fill="#DB9D5A" d="m206.35 178.089 46.147 17.99-12.37 17.708-33.777-35.698Z"/><path fill="#976DA0" d="m206.35 178.089 48.839-8.165-2.692 26.155-46.147-17.99Z"/><path fill="#944EA0" d="m255.189 169.924 5.57 15.689-8.262 10.466 2.692-26.155Z"/><path fill="#EFAC6A" d="m255.189 169.924-23.52-40.958 35.076 35.126-11.556 5.832Z"/><path fill="#944EA0" d="m255.189 169.924-48.839 8.165 37.689-27.587 11.15 19.422Z"/><path fill="#CC6D92" d="m379.867 239.973 16.43 63.794v-33.396l-16.43-30.398Z"/><path fill="#C1859D" d="m379.866 239.973-17.573 34.86 26.274-1.088-8.701-33.772Z"/><path fill="#D3A9BC" d="m362.293 274.833 19.318 15.305 6.956-16.393-26.274 1.088Z"/><path fill="#E5BDD1" d="m381.612 290.138 5.57 11.743 1.385-28.136-6.955 16.393Z"/><path fill="#D3A9BC" d="m388.567 273.745 7.73 30.022-9.115-1.886 1.385-28.136Zm-8.701-33.772-12.542 2.56-5.031 32.3 17.573-34.86Z"/><path fill="#E5BDD1" d="m367.325 242.533-12.057 7.641 7.026 24.659 5.031-32.3Z"/><path fill="#FFDBF3" d="m355.268 250.174-10.954 22.569 17.98 2.09-7.026-24.659Z"/><path fill="#E5BDD1" d="m355.268 250.174-10.774-.212-.18 22.781 10.954-22.569Z"/><path fill="#E8C0BF" d="m344.494 249.962-43.299-.148 43.119 22.929.18-22.781Z"/><path fill="#EAA8A4" d="m301.195 249.814 19.396 22.929h23.723l-43.119-22.929Z"/><path fill="#E8C0BF" d="m301.194 249.814-38.933 38.015 58.33-15.086-19.397-22.929Z"/><path fill="#EAA8A4" d="m301.194 249.814-38.166 8.869-.767 29.146 38.933-38.015Z"/><path fill="#D39590" d="m263.028 258.683-12.471 30.195 11.705-1.049.766-29.146Z"/><path fill="#DB9D5A" d="m263.029 258.683-27.025 19.955 14.553 10.24 12.472-30.195Z"/><path fill="#BF8F56" d="m263.029 258.683-56.679-23.047 29.654 43.002 27.025-19.955Z"/><path fill="#D88136" d="m206.35 235.637 33.777-21.85 22.902 44.897-56.679-23.047Z"/><path fill="#BF8F56" d="m247.247 203.587 15.781 55.096-22.901-44.896 7.12-10.2Z"/><path fill="#DB9D5A" d="m260.759 185.613 17.526 17.206 3.482-14.075-21.008-3.131Z"/><path fill="#EFAC6A" d="m260.759 185.613 14.381-8.087 6.627 11.218-21.008-3.131Zm0 0v6.09l10.508 11.884-10.508-17.974Z"/><path fill="#D89032" d="m260.759 185.613 10.508 17.974 7.018-.768-17.526-17.206Z"/><path fill="#DB9D5A" d="m275.14 177.526 4.664 1.965 1.963 9.253-6.627-11.218Zm-159.088 8.087-20.734-9.935 4.866-6.818 15.868 16.753Z"/><path fill="#EFBB8E" d="m116.052 185.613-22.807 2.716 11.126-8.314 11.681 5.598Z"/><path fill="#EFAC6A" d="m116.052 185.613 4.155 10.521-26.962-7.805 22.807-2.716Z"/><path fill="#DB9D5A" d="m108.455 209.012 11.751-12.878-14.521-4.204 2.77 17.082Z"/><path fill="#BF8F56" d="m105.685 191.93-10.367 11.657 13.136 5.425-2.769-17.082Z"/><path fill="#EFAC6A" d="m116.052 185.613-8.732-24.018-7.136 7.265 15.868 16.753Z"/><path fill="#EFBB8E" d="m107.32 161.595 19.936 4.564-11.204 19.454-8.732-24.018Z"/><path fill="#F7F0D2" d="m95.318 175.678-2.073 12.651 11.126-8.314-9.053-4.337Zm171.427-11.586-5.986 21.521-5.57-15.689 11.556-5.832Z"/><path fill="#F7FFEF" d="m260.759 185.613 14.381-8.087-8.395-13.434-5.986 21.521Z"/><path fill="#D5B92A" d="m93.245 188.329 2.073 15.258 10.367-11.657-12.44-3.601Z"/><path fill="#D5B92A" d="M20.488 207.43c12.096 11.563 26.555 18.75 37.736 18.75 5.398 0 9.874-1.691 12.925-4.885 2.128-2.231 3.443-5.026 3.998-8.228 1.526-5.049 4.522-12.847 8.215-15.305 4.586-3.053 8.474-.117 8.889.243 2.84 2.466 3.059 5.582 3.059 5.582 0-4.979.595-13.606.031-14.522-4.46-1.761-5.046-1.347-5.007-1.378-.016.008-1.862 1.018-8.951-1.847-11.032-4.463-29.67-17.685-30.874-18.538-11.071-9.206-23.441-14.765-33.268-14.765-5.4 0-9.874 1.691-12.926 4.885-9.67 10.138-2.574 32.097 16.165 50.001l.008.007Zm53.744-6.521c-1.518-5.48-4.405-11.374-8.52-17.23 4.733 2.834 9.623 5.496 13.668 7.132a49.49 49.49 0 0 0 3.364 1.221 14.59 14.59 0 0 0-2.355 1.268c-2.456 1.636-4.514 4.494-6.165 7.609h.008ZM8.196 161.133c2.05-2.145 5.093-3.233 9.052-3.233 9.851 0 22.894 6.615 34.035 17.262 12.824 12.251 20.062 27.149 18.669 36.551a58.573 58.573 0 0 0-.798 2.943c-.462 1.104-1.08 2.09-1.878 2.928-2.05 2.145-5.093 3.233-9.052 3.233-9.851 0-22.894-6.615-34.036-17.269C8.18 188.243.857 168.821 8.204 161.125l-.008.008Zm258.549 2.959-22.283-50.039-12.793 14.913 35.076 35.126Z"/><path fill="#F2D144" d="m231.669 128.966-19.803-44.45 32.595 29.537-12.792 14.913Z"/><path fill="#DBC775" d="m211.867 84.516-17.182 29.537 36.985 14.913-19.803-44.45ZM107.32 161.595l8.732-48.396 11.204 52.96-19.936-4.564Z"/><path fill="#F9DF6E" d="M116.051 113.2 92.689 98.592l14.631 63.003 8.731-48.395Zm32.049 6.889 11.251-20.339-23.559-20.354L148.1 120.09Z"/><path fill="#E5D693" d="m135.792 79.396-8.536 2.263 20.843 38.43-12.307-40.693Z"/><path fill="#DBC775" d="m135.792 79.396 10.453-10.85 13.106 31.204-23.559-20.354Z"/><path fill="#D5B92A" d="m146.245 68.546 12.621-2.34.485 33.544-13.106-31.204Z"/><path fill="#B2A157" d="m146.245 68.546 6.33-14.444 6.291 12.103-12.621 2.34Z"/><path fill="#F9DF6E" d="M152.575 54.102 129.236 40.05l17.009 28.496 6.33-14.444Z"/><path fill="#F2D144" d="m137.099 53.226-27.181-5.739 19.318-7.437 7.863 13.176Z"/><path fill="#F2D144" d="m137.099 53.226-1.307 26.17 10.453-10.85-9.146-15.32Z"/><path fill="#F9DF6E" d="m137.098 53.226-9.842 28.433 8.536-2.263 1.306-26.17Z"/><path fill="#E2DABA" d="m137.099 53.226-19.678 15.97 9.835 12.463 9.843-28.433Z"/><path fill="#E5D693" d="m137.099 53.226-27.181-5.739 7.503 21.709 19.678-15.97Z"/><path fill="#E0F2AF" d="m129.236 40.05-17.91-24.628-5.328 16.346 23.238 8.282Z"/><path fill="#CEE0A4" d="m105.998 31.768 3.92 15.72 19.318-7.438-23.238-8.282Z"/><path fill="#98DD3E" d="m129.236 40.05 13.77-25.59 14.686 20.392-28.456 5.198Z"/><path fill="#9DC165" d="m129.236 40.05 23.339 14.053 5.117-19.25-28.456 5.197Z"/><path fill="#85A665" d="m157.692 34.852 3.497 2.928-8.614 16.322 5.117-19.25Z"/><path fill="#BDE577" d="m143.006 14.46-31.68.962 17.91 24.628 13.77-25.59Z"/><path fill="#98DD3E" d="M143.006 14.46 137.678 0l-26.352 15.422 31.68-.963Z"/><path fill="#9DC165" d="m137.678 0-19.803 2.49-6.549 12.932L137.678 0Zm5.328 14.46 15.726 9.519-1.04 10.873-14.686-20.393Z"/><path fill="#85A665" d="m143.006 14.46 9.381-5.058 6.345 14.577-15.726-9.52Z"/><path fill="#858C65" d="m143.006 14.46 9.381-5.058L137.678 0l5.328 14.46Z"/><path fill="#F7FFEF" d="m117.421 69.196-15.265 5.903 25.1 6.56-9.835-12.463Z"/><path fill="#F7FFEF" d="M127.256 81.658 116.052 113.2l32.047 6.889-20.843-38.43Zm31.609-15.453 11.189-7.617 17.823 18.444-29.012-10.827Z"/><path fill="#F2F2F2" d="m158.865 66.205.485 33.545 28.527-22.718-29.012-10.827Zm-31.609 15.454-25.1-6.56 13.896 38.1 11.204-31.54Zm20.843 38.429-14.13 23.313-17.917-30.202 32.047 6.889Zm11.252-20.338 17.706 34.696-28.958-14.358 11.252-20.338Z"/><path fill="#F7F0D2" d="m159.351 99.75 23.065-.58 5.462-22.138-28.527 22.718Zm-43.3 13.449-13.895-38.1-9.468 23.493 23.363 14.607Zm32.048 6.89-14.13 23.313 43.088-8.956-28.958-14.357Zm39.779-43.057 10.617-5.762-28.441-12.682 17.824 18.444Zm43.791 51.934-25.319 49.123 37.689-27.587-12.37-21.536Z"/><path fill="#F7F0D2" d="m206.351 178.089-31.469-2.192 11.689 18.703 19.78-16.511Z"/><path fill="#E8E5D9" d="m177.057 134.446-14.475 26.053-28.613-17.097 43.088-8.956Z"/><path fill="#F2F2F2" d="m187.878 77.032 23.988 7.484-13.371-13.246-10.617 5.762Z"/><path fill="#E8E5D9" d="m187.878 77.032 6.807 37.021 17.181-29.537-23.988-7.484Z"/><path fill="#F2F2F2" d="m182.416 99.17 12.268 14.883-6.807-37.021-5.461 22.139Z"/><path fill="#F7FFEF" d="m182.416 99.17-5.359 35.276-17.706-34.696 23.065-.58Z"/><path fill="#E8E5D9" d="m194.685 114.053-17.628 20.393 5.359-35.275 12.269 14.882Z"/><path fill="#E8E5D9" d="m177.057 134.446-2.175 41.451 56.788-46.931-54.613 5.48Z"/><path fill="#E2DABA" d="m177.057 134.446 17.628-20.393 36.984 14.913-54.612 5.48Zm0 0-2.175 41.451-12.3-15.398 14.475-26.053Zm54.613-5.48-25.319 49.123-31.469-2.192 56.788-46.931Z"/><path fill="#728065" d="m158.733 23.979-1.041 10.873 23.269 19.462-22.228-30.335Z"/><path fill="#858C65" d="m158.732 23.979 21.595-3.359-11.877 16.628-9.718-13.27Z"/><path fill="#858C65" d="m168.45 37.248 16.486 6.834-3.975 10.232-12.511-17.066Z"/><path fill="#9DC165" d="m180.327 20.62-27.94-11.218 6.345 14.577 21.595-3.359Z"/><path fill="#85A665" d="M180.327 20.62 168.45 37.248l16.486 6.834-4.609-23.462Zm.634 33.694 16.118-8.533-12.143-1.699-3.975 10.232Z"/><path fill="#98DD3E" d="M180.327 20.62 167.331 6.552l-14.944 2.85 27.94 11.218Z"/></svg>