<svg xmlns="http://www.w3.org/2000/svg" width="138" height="280" fill="none"><path fill="#D65D5A" d="M78.977 3.178c1.913 1.692 3.837 3.37 5.75 5.06-.284.308-.861.662-.809.906.693 3.443 1.583 6.85 2.16 10.32.318 1.89.112 3.88-2.28 4.59-.636-2.067-.982-4.289-1.966-6.173-2.644-5.058-8.545-8.565-15.985-6.162-2.201.713-4.228 1.988-6.323 2.997.74-1.897 1.517-3.787 2.207-5.702.466-1.294.81-2.62 1.212-3.942l16.034-1.894Z"/><path fill="#61B378" d="M123.985 265.765c-1.814 1.167-3.638 2.347-5.452 3.514l-2.289.27c-.535-1.103-1.072-2.219-1.618-3.321a3.08 3.08 0 0 0-.02-.569c.847-2.804 1.706-5.608 2.555-8.4l.528-.062c.362 1.458.829 2.891 1.076 4.374.747 4.615.712 4.62 5.233 4.205l-.013-.011Z"/><path fill="#848B67" d="M114.637 266.226c.535 1.104 1.072 2.22 1.618 3.322l-4.577.541c-.488-1.11-.977-2.219-1.476-3.327 1.479-.175 2.958-.349 4.435-.536Z"/><path fill="#DFD192" d="M59.534 14.703c2.106-1.01 4.122-2.285 6.323-2.997 7.441-2.391 13.342 1.115 15.985 6.162.984 1.884 1.33 4.106 1.967 6.174-.279.056-.558.113-.84.147l-2.519.333c.567.874 1.1 1.763 1.71 2.596.2.274.607.393.915.583-.051.173-.102.345-.128.527-.555.244-1.12.501-1.674.745-.78.343-1.577.651-2.328 1.05C73.63 32.876 68.7 31.446 64.38 28.11c-4.282-3.305-5.996-7.937-4.857-13.406l.012-.002Z"/><path fill="#E46946" d="M49.548 142.57c-.157-1.125-.302-2.251-.459-3.375-.244-.757-.49-1.526-.745-2.282l-.06-1.112c.467-.686 1.29-1.367 1.326-2.074.12-2.217-.062-4.458-.135-6.688.188-.022.377-.033.566-.043 2.712 1.502 5.416 3.028 8.146 4.48 2.197 1.169 4.455 2.248 7.15 3.609-5.298 2.602-9.922 4.863-15.232 7.467 3.456 1.247 6.03 2.277 8.662 3.109 3.71 1.181 7.474 2.213 11.21 3.308.055.172.11.333.166.505-.54.468-1.08.937-1.609 1.392-.82.216-1.67.376-2.456.671-4.8 1.782-9.572 3.596-14.368 5.413-4.335.178-4.52.021-5.005-4.089-.247-2.091-.588-4.17-.68-6.267-.031-.758.542-1.552.843-2.326l3.89 10.567c.173-2.973-.29-5.681-.73-8.392-.197-1.275-.326-2.569-.49-3.848l.01-.025Z"/><path fill="#CA434F" d="M64.071 207.194c-3.068-8.343-6.181-16.668-9.19-25.017-.6-1.656-.79-3.455-1.172-5.184 2.697 1.372 5.392 2.733 8.09 4.105-2.977-5.555-6.392-10.689-9.84-15.795-.116-.177-.528-.14-.797-.203l.351-1.256c1.847-.79 3.706-1.569 5.553-2.359l1.247.984 5.157 19.182.2 1.691c.357 6.447.772 12.888 1.034 19.335.057 1.494-.417 3.015-.645 4.518l.012-.001Z"/><path fill="#D05D34" d="m58.314 162.481-1.247-.984c-1.746-1.378-3.502-2.742-5.247-4.12a2.022 2.022 0 0 0-.09-.454c4.786-1.803 9.57-3.619 14.369-5.412.798-.297 1.638-.443 2.456-.671-3.357 3.326-6.713 6.651-10.451 10.368 1.62.106 2.808.299 3.98.244 5.612-.246 11.237-.482 16.842-.894.98-.068 1.89-.925 2.832-1.418.742.341 1.496.681 3.032 1.393l-13.18 11.44c-4.433-3.168-8.865-6.336-13.286-9.505l-.01.013Z"/><path fill="#B53744" d="M64.071 207.194c.227-1.504.702-3.025.645-4.518-.262-6.447-.677-12.888-1.034-19.336 1.59 1.873 3.275 3.65 4.734 5.622 4.007 5.409 7.903 10.891 11.856 16.342a7.55 7.55 0 0 1-.06.507c-3.944 1.061-7.89 2.123-11.823 3.183-1.148-.055-2.308-.097-3.457-.152-.153-.184-.307-.38-.46-.565-.124-.354-.263-.719-.388-1.073l-.013-.01Z"/><path fill="#7E8963" d="M110.959 209.694c3.522 7.348 7.045 14.707 10.567 22.055-2.073 1.793-4.148 3.574-6.221 5.367l-1.15.136c-2.131 1.609-4.263 3.207-6.394 4.816-.295.225-.601.452-.894.689-.137-.353-.262-.707-.399-1.06 1.49-2.094 2.969-4.185 4.459-6.279l.167-.198c.709.262 1.408.536 2.616.989-.99-2.038-1.715-3.536-2.438-5.023-.094-6.943-.198-13.873-.292-20.816-.004-.238-.019-.462-.023-.7l.002.024Z"/><path fill="#CBB333" d="M80.212 205.811a7.55 7.55 0 0 0 .06-.507c.375-.044.753-.065 1.129-.11.394.109.789.229 1.182.337l-.026-.021c3.654 1.915 7.309 3.841 10.974 5.754l.924.974c-.01.216-.01.418-.02.634-5.039 1.571-10.066 3.141-15.105 4.713l-.67-.528a4006.12 4006.12 0 0 1 1.574-11.26l-.022.014Z"/><path fill="#748067" d="M102.582 237.511c-3.28-2.982-6.593-5.937-9.84-8.947-1.364-1.268-2.633-2.642-3.945-3.976 4.436-.131 8.882-.275 13.317-.406.087.133.141.281.16.446l.308 12.883Z"/><path fill="#B09F58" d="M102.114 224.182c-4.435.131-8.881.275-13.317.406l.073.015c-.264-.219-.526-.426-.79-.645l-.168-.016 6.513-11.057c.01-.216.01-.418.02-.634 2.554 3.985 5.118 7.958 7.671 11.943l-.002-.012ZM65.802 79.063l2.95-5.564c2.062.936 4.124 1.87 6.902 3.126-.821-2.117-1.285-3.325-2.024-5.25 1.799 1.026 2.833 1.618 3.867 2.21.079-.14.168-.293.246-.433-1.092-1.693-2.185-3.386-3.51-5.444 4.32.109 8.067.19 11.827.282.41.154.822.308 1.231.45.02.176.041.352.074.527l-.041.052c-2.505 1.868-5.009 3.747-7.525 5.617-1.204.892-2.408 1.784-3.625 2.666-1.98.067-3.947.133-5.925.212l-2.2.724-2.259.826h.012Z"/><path fill="#817230" d="m94.413 212.886-6.514 11.058c-2.868-2.114-5.734-4.217-8.59-6.333 5.039-1.571 10.066-3.141 15.105-4.713l-.001-.012Z"/><path fill="#CBB333" d="M86.06 67.99c-3.748-.093-7.506-.173-11.828-.282 1.326 2.058 2.419 3.75 3.512 5.444-.08.14-.168.293-.247.434-1.034-.593-2.068-1.185-3.867-2.211.738 1.913 1.203 3.132 2.025 5.25-2.767-1.257-4.841-2.19-6.903-3.126.133-.587.277-1.176.412-1.751l2.045-1.42c.182-.38.35-.769.531-1.147l1.468-1.983c2.144-1.397 4.276-2.792 6.419-4.2l1.126-.24c.378-.02.758-.03 1.136-.05.237.186.461.373.698.56 1.16 1.566 2.322 3.143 3.471 4.71l.002.012Z"/><path fill="#5E7E52" d="M36.863 123.849c-.827-.45-1.643-.914-2.47-1.364-.544-.876-1.043-1.782-1.652-2.603-1.528-2.058-3.111-4.074-4.672-6.105.646.127 1.287.217 1.925.38 4.181 1.043 8.363 2.085 12.546 3.139.841.472 1.67.946 2.512 1.418-1.356.815-2.727 1.596-4.057 2.432-1.396.879-2.75 1.813-4.119 2.713l-.013-.01Z"/><path fill="#817230" d="M80.212 205.811c-.52 3.753-1.041 7.506-1.574 11.26-3.424-2.691-6.836-5.384-10.26-8.076l11.823-3.182.011-.002Z"/><path fill="#577D35" d="M106.88 242.767c.295-.225.602-.452.895-.689 2.524.107 5.034.203 7.558.31-1.69 2.415-3.369 4.828-5.262 7.54 2.807.085 5.41.159 8.013.233-.161 2.162-.322 4.324-.485 6.475-.981-.753-1.951-1.508-2.942-2.236-1.721-1.274-3.453-2.534-5.185-3.794-.856-2.614-1.724-5.226-2.578-7.828l-.014-.011Z"/><path fill="#848B67" d="M69.356 60.079c1.062-3.912 2.113-7.81 3.174-11.723.618.392 1.226.808 1.853 1.175 2.567 1.482 5.156 2.95 7.735 4.433l-.026-.021-.489.7.045-.029c-3.152 1.325-6.315 2.663-9.467 3.988-.364.246-.717.478-1.08.723l-1.096.701c-.212.025-.424.038-.637.052l-.012.001Z"/><path fill="#83A267" d="M82.118 53.964c-2.58-1.482-5.157-2.952-7.736-4.433-.638-.366-1.235-.783-1.852-1.175l4.679-8.448c.286.002.558-.006.844-.004l4.303 12.245c-.083.605-.154 1.221-.237 1.826l-.001-.011Z"/><path fill="#B53744" d="M51.161 165.1c.27.063.683.038.798.203 3.447 5.106 6.861 10.229 9.84 15.795-2.698-1.372-5.394-2.733-8.09-4.105-2.777-3.554-1.803-7.909-2.56-11.892l.012-.001Z"/><path fill="#848B67" d="m102.581 237.512-.307-12.884c2.94 3.534 5.881 7.069 8.833 10.602l-.167.199c-2.586.877-5.182 1.767-7.769 2.644l-.59-.561Z"/><path fill="#577D35" d="M36.863 123.849c1.368-.912 2.735-1.836 4.12-2.713 1.329-.836 2.699-1.629 4.056-2.432.368-.008.724-.015 1.09-.034.022.176.053.339.097.513.889 2.586 1.766 5.173 2.654 7.76l-1.623.263c-3.464-1.115-6.928-2.23-10.404-3.344l.01-.013Z"/><path fill="#748067" d="M78.052 39.892c-.286-.002-.558.007-.844.005.227-.396.454-.792.68-1.2.175-.223.351-.446.539-.67l-.155-.006-.019-.153c.837-.373 1.748-.623 2.497-1.128 2.37-1.602 4.68-3.304 7.008-4.96l-3.43 10.872c-2.084-.92-4.181-1.852-6.265-2.773l-.01.013Z"/><path fill="#97BA67" d="M46.13 118.67c-.368.008-.736.015-1.091.033-.841-.472-1.67-.945-2.512-1.418a6594.9 6594.9 0 0 1-10.608-6.177c4.207.753 8.39 1.605 12.617 2.225 1.453.209 3.002-.176 4.5-.293.078.157.145.328.201.5l-3.094 5.14-.013-.01Z"/><path fill="#29945D" d="M109.459 250.596c1.731 1.26 3.463 2.52 5.185 3.793.99.729 1.961 1.495 2.941 2.237.046.185.079.36.089.549l-.528.062c-1.625 1.157-3.251 2.302-4.876 3.458-.352.042-.707.06-1.059.101-.686-2.384-1.478-4.755-2.014-7.18-.208-.952.141-2.03.236-3.041l.026.021Z"/><path fill="#2FA269" d="M31.918 111.096c3.54 2.059 7.08 4.118 10.608 6.178-4.182-1.043-8.365-2.097-12.546-3.139-.637-.151-1.28-.254-1.925-.38-.353.042-.693.082-1.044.135-.022-.188-.068-.373-.113-.558a.673.673 0 0 0 .083-.403c.867-.924 1.734-1.848 2.602-2.76.775.313 1.537.616 2.311.93l.024-.003Z"/><path fill="#29945D" d="M87.737 31.806c-2.327 1.656-4.637 3.358-7.007 4.96-.75.505-1.66.756-2.497 1.128 1.439-2.932 2.88-5.853 4.32-8.774.188-.117.39-.225.578-.342 1.608.822 3.207 1.657 4.815 2.48-.073.187-.147.362-.22.55l.011-.002Z"/><path fill="#2FA269" d="M14.709 103.138c.004-.167.02-.336.07-.509l4.075-.874.104.071c.162 2.386.313 4.774.476 7.16-1.582-.396-3.154-.806-4.736-1.203-.111-.237-.21-.475-.322-.712l-.195.166c.155.196.319.379.485.574-.145.386-.277.783-.421 1.169-.517-1.047-3.572-.209-2.065-2.769.337-.171.675-.33 1-.499a183.08 183.08 0 0 0 1.504-2.583l.025.009Z"/><path fill="#848B67" d="M67.218 85.91c.312-.383.637-.754.949-1.137.072-.091.145-.183.206-.274l7.492-4.278c-1.606 2.725-3.214 5.44-4.82 8.166-.176.223-.34.445-.514.68l-.576.068c-.873-.54-1.744-1.068-2.617-1.608-.04-.531-.091-1.073-.13-1.604l.01-.013Z"/><path fill="#B7713D" d="M26.994 112.94a.77.77 0 0 1-.083.403l-5.641 1.309c-.457-.339-.903-.691-1.36-1.03.035-.207.07-.414.092-.631.906-1.702 1.813-3.393 2.707-5.094l.056.065c.175-.224.353-.435.529-.658l-.02.038.557-.626c.176-.223.364-.447.54-.671.433.342.865.672 1.298 1.014.446 1.96.89 3.908 1.324 5.869l.001.012Z"/><path fill="#61B378" d="M19.424 108.999c-.163-2.386-.326-4.772-.477-7.16.724.189 1.46.376 1.927.499 1.267-1.471 2.418-2.81 3.569-4.148.258.171.518.355.776.527-.348 1.887-.709 3.775-1.057 5.662-.682-.229-1.375-.457-2.415-.798-.392 1.82-.77 3.556-1.147 5.303l-1.025.693c-.047-.197-.104-.381-.151-.578Z"/><path fill="#B7713D" d="m53.882 99.357 7.592-8.172c.35 1.149.698 2.287 1.06 3.435l.103.571c-.025.194-.038.385-.06.59-2.729 1.287-5.469 2.576-8.197 3.862a1.523 1.523 0 0 0-.485-.276l-.013-.01Z"/><path fill="#29945D" d="M27.024 113.901c.352-.042.693-.082 1.044-.135 1.56 2.03 3.143 4.046 4.672 6.104.608.821 1.11 1.739 1.652 2.604-2.943-1.844-5.885-3.676-8.84-5.518a593.19 593.19 0 0 1 1.46-3.054l.012-.001Z"/><path fill="#B7713D" d="M53.25 100.36c.211-.334.422-.669.619-1.014.174.063.34.163.485.276 2.402.491 4.815.968 7.218 1.458.198.167.408.333.606.5-.39.225-.778.461-1.18.687-2.15 1.254-4.297 2.52-6.445 3.774-.44-1.901-.877-3.79-1.315-5.691l.013.01Z"/><path fill="#848B67" d="M73.208 67.198 71.74 69.18c-.181.379-.35.767-.531 1.146l-2.046 1.42c-.007-3.487-.015-6.976-.02-10.452.41.547.873 1.052 1.204 1.632.809 1.405 1.55 2.853 2.327 4.286.177-.01.344-.005.51-.013l.024-.002Z"/><path fill="#5E7E52" d="M103.158 238.063c2.586-.878 5.183-1.768 7.769-2.645-1.49 2.094-2.969 4.185-4.459 6.279a846.115 846.115 0 0 1-3.311-3.646l.001.012Z"/><path fill="#29945D" d="M19.424 108.999c.047.197.104.381.151.578.135 1.139.27 2.29.417 3.428a9.35 9.35 0 0 0-.092.63c-1.837-.843-3.674-1.686-5.5-2.53a13.426 13.426 0 0 0-.104-.679c-.02-.473-.028-.949-.049-1.423.145-.386.277-.783.422-1.169l.02-.026c1.582.397 3.154.806 4.736 1.203l-.001-.012Z"/><path fill="#D05D34" d="M49.548 142.57c.151 1.28.28 2.575.49 3.848.428 2.712.902 5.419.73 8.392l-3.89-10.567c.886-.557 1.784-1.116 2.67-1.673Z"/><path fill="#E88137" d="m53.25 100.36 1.315 5.692c-1.546 1.718-3.081 3.436-4.628 5.155l-.103-.072c1.135-3.587 2.28-7.187 3.416-10.775Z"/><path fill="#90542B" d="M51.807 157.367c1.745 1.377 3.501 2.742 5.247 4.119-1.847.79-3.707 1.569-5.553 2.359l.307-6.466-.001-.012Z"/><path fill="#83A267" d="M72.698 67.21c-.776-1.432-1.517-2.87-2.327-4.286-.33-.58-.808-1.095-1.205-1.632.072-.401.13-.813.202-1.214.211-.025.424-.039.637-.052l1.162-.137c1.107 1.215 2.201 2.42 3.309 3.634-.592 1.237-1.185 2.462-1.765 3.697l-.013-.01Z"/><path fill="#D05D34" d="m47.269 127.204 1.623-.263c.194.025.4.06.593.085.062 2.231.243 4.472.136 6.688-.036.707-.86 1.388-1.326 2.074l-1.016-8.597-.01.013Z"/><path fill="#848B67" d="M65.802 79.063c.753-.28 1.505-.559 2.26-.826l.312 6.274a4.523 4.523 0 0 0-.206.274c-.812-.63-1.576-1.35-2.449-1.89-1.527-.939-1.445-1.96-.347-3.138l.489-.7-.047.005-.012.001Z"/><path fill="#5E7E52" d="M111.237 260.817c.352-.042.707-.06 1.059-.101.778 1.646 1.544 3.294 2.321 4.941.023.188.045.376.02.569-1.479.175-2.958.35-4.435.536.349-1.982.698-3.964 1.035-5.945Z"/><path fill="#61B378" d="m18.842 101.756-4.074.875-.488-2.324-.136-1.151c.084-1.904.973-1.235 1.75-.493 1.033.986 1.98 2.053 2.96 3.092l-.012.001Z"/><path fill="#E88137" d="M62.52 94.61c-.35-1.15-.698-2.288-1.06-3.436a3.563 3.563 0 0 0-.024-.51c.352-.243.717-.477 1.07-.72.18-.082.373-.164.554-.245.524-.395 1.037-.79 1.56-1.196l.021-.027c.204.012.394.013.598.025l-1.122 5.313c-.54.266-1.081.52-1.621.786l.025.01Z"/><path fill="#A7602C" d="M26.994 112.94c-.446-1.96-.89-3.908-1.324-5.869l3.938 3.107c-.867.924-1.734 1.848-2.602 2.76l-.012.002Zm.031.961a593.17 593.17 0 0 1-1.46 3.054c-1.436-.771-2.86-1.544-4.295-2.303l5.641-1.31c.046.186.08.372.114.559Z"/><path fill="#2FA269" d="M20.599 108.872c.378-1.735.745-3.469 1.147-5.303 1.04.342 1.722.571 2.415.798.066.564.132 1.116.21 1.678-.176.224-.364.448-.54.671l-.556.626.019-.038c-.176.223-.354.435-.53.658l-.055-.065c-.7.321-1.412.643-2.11.975Z"/><path fill="#29945D" d="M14.71 103.138a175.77 175.77 0 0 0-1.505 2.583c-.145-.019-.3-.024-.444-.031-.701-1.001-1.401-1.99-2.079-2.994-.087-.132-.042-.352-.096-1.215 1.548.615 2.848 1.14 4.135 1.655l-.012.002Z"/><path fill="#E88137" d="M49.235 113.528a3.77 3.77 0 0 0-.202-.5c.272-.627.541-1.267.812-1.894l.104.071c-.16.769-.318 1.538-.479 2.295l-.223.027-.012.001Z"/><path fill="#29945D" d="M78.417 38.04a28.32 28.32 0 0 1-.54.67c.176-.223.352-.446.54-.67Z"/><path fill="#E46946" d="m71.6 171.986 13.18-11.44-3.033-1.393c-1.354-1.292-2.654-2.627-4.061-3.854-2.084-1.826-4.232-3.585-6.359-5.37l14.665 1.733c-2.324 6.217-.243 11.246 4.141 15.718.528.533.596 1.513.876 2.278-1.876.233-3.751.479-5.628.712l-.599.071a4915.12 4915.12 0 0 1-12.486 2.606l-.563.066-.132-1.115-.001-.012Z"/><path fill="#B7713D" d="M86.05 112.741c-1.957 4.494-3.913 9-5.87 13.494-.7-.287-1.401-.585-2.102-.871-3.993-1.672-7.998-3.331-11.992-5.002-.418-.32-.849-.638-1.267-.958.524-.3 1.049-.588 1.573-.888 6.368-1.908 12.736-3.815 19.116-5.723.176-.021.367-.02.543-.04l-.002-.012Z"/><path fill="#29945D" d="M132.9 247.839c-1.097 2.297-2.193 4.606-3.302 6.904-3.539-1.75-7.068-3.512-10.607-5.261.2-.226.411-.454.612-.668 3.856-3.325 7.713-6.638 11.569-9.964l.771-.019c.32 3.01.627 6.011.947 9.021l.01-.013Z"/><path fill="#A7602C" d="M66.096 120.349c3.994 1.671 7.998 3.33 11.992 5.002.7.286 1.402.584 2.103.871-1.16 3.078-2.322 6.144-3.481 9.223-.87-.517-1.728-1.023-2.598-1.539-.51-1.095-.932-2.248-1.566-3.281-2.11-3.454-4.297-6.863-6.451-10.288l.001.012Z"/><path fill="#B09F58" d="M110.96 209.694c.004.237.018.462.023.699-.731.563-1.503 1.083-2.167 1.709-2.408 2.285-4.788 4.602-7.183 6.898a.548.548 0 0 1-.151-.471c-.138-3.389-.275-6.767-.444-10.819-2.587.674-4.525 1.189-6.465 1.692-1.254-.84-2.496-1.682-3.75-2.522l.036-.004c-.411-.154-.824-.32-1.248-.484-.24-.531-.494-1.061-.735-1.592 4.147.856 8.308 1.722 12.455 2.577l8.988 1.833c.21.165.419.319.629.485l.012-.001Z"/><path fill="#83A267" d="M119.614 248.813c-.199.226-.41.453-.611.667l-.446.053c-.669-2.243-1.339-4.486-1.997-6.73l6.875-4.67a13.047 13.047 0 0 0-.227-.616c-2.634-.13-5.257-.273-7.891-.402 2.073-1.793 4.148-3.574 6.221-5.367 1.083 1.908 2.177 3.815 3.259 5.724-.436 1.147-.797 2.321-1.321 3.43-1.244 2.66-2.565 5.281-3.862 7.911Z"/><path fill="#61B378" d="M83.086 27.7c-.308-.19-.715-.309-.913-.583-.61-.833-1.144-1.723-1.712-2.597.846-.1 1.676-.221 2.52-.333.282-.033.56-.102.84-.146 2.39-.712 2.585-2.7 2.278-4.592-.575-3.457-1.477-6.863-2.16-10.32-.05-.231.525-.597.81-.905 4.16 7.01 4.903 14.509 3.188 22.356-1.235-1.593-1.448-4.902-4.827-2.883l-.024.003Z"/><path fill="#CA434F" d="M91.666 175.415c.472.778.89 1.598 1.439 2.307.337.437 1.2.692 1.248 1.103.579 4.087 3.565 6.604 6 9.484-2.458-.864-4.918-1.741-7.377-2.605-1.386-2.564-2.705-5.17-4.192-7.686-.477-.813-1.4-1.371-2.11-2.049-.357-1.303-.727-2.617-1.083-3.921 2.025 1.119 4.05 2.249 6.075 3.367Z"/><path fill="#D05D34" d="m86.004 151.661-14.665-1.733-.067-.564c.8-.487 1.612-.964 2.41-1.464a2514.97 2514.97 0 0 0 7.873-4.99c.293-.035.59-.046.883-.08.157.529.314 1.046.483 1.574.213.189.426.378.65.566l-.013-.01c.935 1.866 1.88 3.731 2.814 5.586-.124.36-.247.731-.371 1.091l.003.024Z"/><path fill="#2FA269" d="M123.985 265.766c-4.521.415-4.486.41-5.233-4.205-.234-1.473-.714-2.916-1.076-4.374l11.893-2.083c-.327 1.967-.655 3.923-.982 5.891-3.037-1.225-6.072-2.439-9.121-3.662l-.6.964c2.064 2.257 4.126 4.502 6.201 6.757-.365.234-.717.478-1.082.712Z"/><path fill="#E88137" d="M89.322 89.67c1.135 3.26.132 6.355-.74 9.459-.6-2.37-1.19-4.742-1.861-7.402a3313.71 3313.71 0 0 1-9.264 1.678c.707-2.18 1.415-4.347 2.133-6.527l-.022-.188a4.8 4.8 0 0 0 .576.039c2.582 1.1 5.142 2.227 7.751 3.252.374.147.94-.206 1.426-.323l.001.012Z"/><path fill="#D47F7E" d="M92.987 185.69c2.458.865 4.918 1.742 7.377 2.606l-.097-.012c.259.172.517.344.777.527.389.883 1.272 1.91 1.071 2.624-.602 2.156-1.622 4.205-2.47 6.294l-.493.058c-.432-.937-.82-1.904-1.297-2.824-1.605-3.109-3.243-6.19-4.858-9.286l-.01.013Z"/><path fill="#848B67" d="M92.347 76.583c-1.532 1.74-3.063 3.494-4.595 5.234-1.641-.997-3.282-1.993-4.936-3-.126.145-.25.303-.364.447.83 1.39 1.673 2.78 2.504 4.17-.145.088-.276.187-.42.276-2.312-1.24-4.613-2.48-6.925-3.72-.04-.328-.08-.669-.118-.998l3.833-1.203c3.09-.34 6.18-.682 9.269-1.023.387-.046.775-.091 1.16-.149l.592-.034Z"/><path fill="#E8CA4B" d="M110.331 209.208c-2.999-.61-5.987-1.222-8.976-1.833-.531-2.986-1.074-5.97-1.606-8.968a.391.391 0 0 1-.092-.275c3.554 3.689 7.119 7.376 10.674 11.076Z"/><path fill="#848B67" d="m129.571 255.115-11.894 2.083c-.022-.187-.044-.375-.088-.549.161-2.162.322-4.325.484-6.475.154-.209.308-.418.475-.616l.446-.053c3.539 1.75 7.068 3.512 10.607 5.261a.332.332 0 0 1-.029.361l-.001-.012Z"/><path fill="#A7602C" d="M86.049 112.741a4.095 4.095 0 0 1-.543.04c-3.023-1.012-6.035-2.026-9.058-3.038 2.485-1.83 4.97-3.671 7.455-5.501.323.926.588 1.859.968 2.755.48 1.146 1.04 2.259 1.565 3.376-.121.788-.256 1.566-.377 2.355l-.01.013Z"/><path fill="#2FA269" d="M119.614 248.813c1.296-2.63 2.617-5.251 3.862-7.911.523-1.109.885-2.283 1.321-3.43 2.137.462 4.261.914 6.398 1.376-3.856 3.325-7.713 6.638-11.569 9.963l-.012.002Z"/><path fill="#F29454" d="M77.458 93.405c3.076-.554 6.14-1.118 9.263-1.678.671 2.66 1.273 5.03 1.862 7.401-.025.194-.036.398-.061.591-3.259-1.592-6.505-3.185-9.764-4.777-.419-.32-.836-.627-1.254-.947l-.068-.576.023-.002-.001-.012Z"/><path fill="#817230" d="M77.6 79.992c2.312 1.24 4.612 2.48 6.925 3.719.144-.089.275-.187.42-.276-.831-1.39-1.674-2.78-2.504-4.17.125-.145.25-.303.363-.448l4.937 3.002c-.349.577-.684 1.164-1.032 1.741l-1.091 1.344c-1.833.609-3.652 1.229-5.484 1.838a4.78 4.78 0 0 1-.576-.04l-1.97-6.697.011-.013Z"/><path fill="#5E7E52" d="M78.052 39.892c2.085.921 4.182 1.852 6.267 2.773-.652 3.15-1.314 6.312-1.966 9.46l-4.302-12.244.001.011Z"/><path fill="#29945D" d="M125.067 265.054a2964.707 2964.707 0 0 0-6.201-6.757l.6-.964c3.036 1.225 6.072 2.438 9.12 3.662l-3.519 4.059Z"/><path fill="#E46946" d="M74.102 133.919c.87.516 1.727 1.022 2.597 1.539.412.558.834 1.116 1.247 1.686.772 1.6 1.544 3.2 2.328 4.798a412.245 412.245 0 0 0-3.801-2.457c-2.595-2.325-5.213-4.635-7.777-7-1.163-1.077-2.197-2.277-3.296-3.421.675.277 1.401.478 2.027.844 2.25 1.306 4.457 2.665 6.675 4.011Z"/><path fill="#A7602C" d="M78.77 94.94c3.258 1.593 6.505 3.186 9.763 4.778.019.355.026.723.044 1.078-1.41.762-2.819 1.524-4.217 2.285-1.856-2.722-3.724-5.431-5.579-8.142l-.012.002Z"/><path fill="#83A267" d="M71.089 59.327c.364-.246.717-.478 1.08-.724 2.689-.317 5.38-.61 8.069-.917.176 1.694.34 3.39.517 5.084-.384.08-.755.16-1.126.24l.037-.088-8.499-3.033-.067-.564-.011.002Z"/><path fill="#B7713D" d="M84.349 103.082c1.41-.762 2.819-1.524 4.227-2.297-.718 3.192-1.424 6.384-2.14 9.588-.526-1.129-1.085-2.23-1.565-3.376-.38-.895-.646-1.84-.968-2.755.144-.386.29-.772.446-1.16Z"/><path fill="#B09F58" d="m92.347 76.583-.591.034c-1.477-2.529-2.942-5.059-4.42-7.587l.042-.053c2.033.582 4.065 1.163 6.096 1.733.05.316.111.642.16.958.144.21.3.417.445.638-.581 1.426-1.15 2.85-1.73 4.289l-.002-.012Z"/><path fill="#A7602C" d="M80.144 86.729c1.832-.61 3.651-1.23 5.484-1.838.46.362.907.726 1.366 1.088.775 1.219 1.563 2.448 2.339 3.678-.475.115-1.052.47-1.426.323-2.609-1.026-5.17-2.152-7.751-3.252h-.012Z"/><path fill="#B53744" d="M91.665 175.415c-2.024-1.118-4.05-2.248-6.074-3.367l-.228-1.021c-.001-.214.009-.429.007-.644 1.877-.233 3.752-.478 5.629-.712.226 1.914.429 3.831.656 5.757l.01-.013Z"/><path fill="#E8CA4B" d="M86.06 67.99a1113.18 1113.18 0 0 1-3.472-4.71c.38-.105.759-.221 1.128-.324 2.262 1.114 4.525 2.24 6.787 3.354-1.07.71-2.141 1.42-3.21 2.142a52.474 52.474 0 0 0-1.232-.45l-.001-.012Z"/><path fill="#748067" d="M80.237 57.687c-2.688.317-5.379.61-8.068.917 3.152-1.325 6.315-2.663 9.467-3.988-.463 1.019-.925 2.05-1.4 3.07Z"/><path fill="#F29454" d="M80.262 141.943c-.772-1.599-1.544-3.199-2.328-4.797 1.853.876 3.718 1.752 5.862 2.773-.533 1.134-.95 2.029-1.367 2.936-.294.034-.59.045-.883.08-.432-.33-.862-.648-1.294-.978l.01-.014Z"/><path fill="#2FA269" d="M132.9 247.839c-.32-3.01-.627-6.011-.947-9.021 2.329.772 2.915 2.311 2.125 4.583-.497 1.44-.794 2.952-1.178 4.438Z"/><path fill="#CBB333" d="M87.303 68.438c1.07-.71 2.141-1.42 3.21-2.141.983 1.468 1.977 2.934 2.96 4.402-2.033-.582-4.064-1.152-6.096-1.733a3.996 3.996 0 0 1-.074-.528Z"/><path fill="#2FA269" d="M83.086 27.7c3.393-2.009 3.604 1.289 4.828 2.883l.042.662c-1.609-.823-3.207-1.658-4.815-2.48-.058-.184-.127-.366-.184-.55a6.44 6.44 0 0 1 .128-.527l.001.012Z"/><path fill="#E46946" d="M86.362 150.559c-.935-1.866-1.881-3.731-2.814-5.586 1.63 1.51 4.452 2.427 2.814 5.586Z"/><path fill="#E46946" d="M83.562 144.984c-.213-.19-.426-.379-.65-.567.212.189.425.379.65.567Z"/><path fill="#DFD192" d="M94.078 72.294c-.144-.209-.3-.417-.445-.638.144.21.3.417.445.638Z"/><path fill="#CA434F" d="M101.045 188.823c-.258-.172-.517-.344-.777-.527.259.172.517.344.777.527Z"/><path fill="#577D35" d="M114.606 265.658c-.778-1.646-1.544-3.294-2.321-4.941 1.625-1.156 3.249-2.313 4.876-3.458-.848 2.804-1.707 5.608-2.555 8.399Z"/><path fill="#D05D34" d="M65.4 129.064c1.099 1.144 2.133 2.344 3.296 3.421 2.564 2.365 5.182 4.675 7.777 7-3.427-1.107-6.855-2.215-10.702-3.451 1.472 4.506 2.85 8.713 4.227 12.921-3.735-1.095-7.499-2.127-11.209-3.309-2.633-.832-5.218-1.86-8.662-3.108 5.31-2.604 9.933-4.877 15.232-7.468-2.695-1.36-4.952-2.427-7.15-3.609-2.742-1.45-5.434-2.978-8.146-4.479 2.147-1.469 4.283-2.936 6.43-4.404l.602-.142c.185.049.378.074.567.064l7.75 6.563-.012.001Z"/><path fill="#B7713D" d="M71.34 149.928c2.126 1.785 4.274 3.544 6.358 5.369 1.406 1.227 2.708 2.574 4.061 3.855-.941.492-1.865 1.34-2.831 1.418-5.605.412-11.218.646-16.842.894-1.172.055-2.35-.14-3.98-.245 3.74-3.704 7.095-7.03 10.45-10.367.54-.469 1.08-.937 1.61-1.393.188-.01.379-.009.57-.008.21.166.408.333.618.499l-.015-.022Z"/><path fill="#90542B" d="M70.734 149.439c-.19-.001-.38.01-.57.008l-.167-.504c-1.377-4.208-2.755-8.415-4.227-12.921 3.847 1.237 7.275 2.344 10.702 3.452 1.264.827 2.527 1.642 3.801 2.456.432.33.862.649 1.294.979-2.624 1.667-5.248 3.334-7.873 4.99-.798.499-1.598.975-2.41 1.463l-.551.066.001.011Z"/><path fill="#5E7E52" d="M56.47 122.581c-2.148 1.468-4.283 2.935-6.43 4.403a8.906 8.906 0 0 1-.567.043c-.193-.024-.4-.06-.593-.084-.889-2.587-1.765-5.174-2.654-7.76l9 2.438 1.2.489.055.47-.011.001Z"/><path fill="#D65D5A" d="M92.986 185.691c1.627 3.094 3.254 6.188 4.858 9.286.478.92.864 1.874 1.297 2.823l-.023.003c-1.862.958-3.713 1.915-5.576 2.873-7.422-4.398-14.856-8.795-22.277-13.182-.205.274-.4.547-.603.833.493.656.906 1.429 1.505 1.966 2.474 2.208 5.098 4.268 7.52 6.53 2.757 2.592 5.356 5.345 8.03 8.03-1.724.228-3.448.443-5.17.671l.026.02c-.394-.108-.789-.228-1.182-.336-.376.044-.754.065-1.13.109-3.94-5.453-7.849-10.933-11.856-16.342-1.457-1.96-3.156-3.748-4.734-5.621l-.2-1.692c.717-.584 1.514-1.095 2.137-1.764 2.069-2.233 4.084-4.519 6.112-6.795l.563-.067c.558.994.996 2.086 1.697 2.979 4.63 5.944 9.313 11.844 13.995 17.734 1.035 1.306 2.135 2.558 3.215 3.835.276-.175.543-.338.82-.513l-.666-2.613a10243.86 10243.86 0 0 1-4.67-18.489c.722.677 1.633 1.236 2.11 2.049 1.485 2.504 2.805 5.111 4.192 7.686l.01-.013Z"/><path fill="#B53744" d="M71.731 173.102c-2.03 2.264-4.043 4.561-6.112 6.794-.623.669-1.42 1.18-2.136 1.765l-5.157-19.182c4.432 3.168 8.865 6.336 13.285 9.506l.132 1.115-.012.002Z"/><path fill="#817230" d="M101.645 218.998c2.393-2.307 4.762-4.623 7.183-6.897.664-.626 1.435-1.146 2.166-1.709.094 6.943.199 13.873.293 20.816-3.217-4.062-6.424-8.136-9.641-12.198l-.001-.012Z"/><path fill="#848B67" d="M115.317 237.115c2.634.129 5.257.272 7.891.402.071.205.143.411.227.616l-6.875 4.67c-.211-.178-.421-.343-.633-.521-.589-1.669-1.169-3.351-1.759-5.02l1.151-.135-.002-.012Z"/><path fill="#748067" d="M114.168 237.262c.59 1.669 1.169 3.351 1.759 5.02-.199.024-.386.058-.584.093-2.524-.107-5.034-.203-7.558-.31 2.131-1.609 4.263-3.207 6.393-4.816l-.01.013Z"/><path fill="#E8CA4B" d="M90.835 206.879c.888 1.467 1.787 2.932 2.674 4.399-3.654-1.914-7.309-3.84-10.974-5.753 1.722-.227 3.447-.443 5.17-.67l.251.018.258-.031c.223-.026.438-.028.662-.042.241.531.494 1.061.735 1.592.413.166.825.331 1.25.507l-.035.004.01-.024Z"/><path fill="#978A4F" d="M87.324 69.02c1.477 2.528 2.942 5.058 4.419 7.587-.388.046-.775.091-1.16.149-2.882-.41-5.776-.83-8.657-1.24l-2.115-.882c2.505-1.868 5.008-3.747 7.525-5.616l-.012.001ZM77.6 79.992l1.969 6.698.022.188-8.534 1.508c1.606-2.727 3.213-5.44 4.82-8.167l.001.012c.166-.21.343-.422.507-.643-.963-.292-1.934-.558-2.89-.886-1.09-.371-2.152-.793-3.234-1.19 1.98-.067 3.947-.132 5.925-.211.436.568.86 1.125 1.295 1.693.04.329.08.67.118.998Z"/><path fill="#817230" d="M70.26 77.513c1.071.397 2.144.818 3.236 1.19.955.327 1.926.593 2.889.885-.166.21-.343.421-.507.643l-.002-.012-7.492 4.279-.313-6.275c.734-.24 1.467-.482 2.2-.724l-.01.014Z"/><path fill="#E8CA4B" d="M77.48 78.994c-.435-.568-.858-1.125-1.294-1.693 1.204-.892 2.42-1.786 3.624-2.667.702.298 1.414.583 2.116.882-.21.75-.405 1.512-.614 2.263l-3.82 1.202-.011.013ZM72.698 67.21c.592-1.237 1.185-2.462 1.765-3.697 1.725-.204 3.462-.41 5.19-.601 0 0-.026.086-.038.087-2.144 1.397-4.275 2.804-6.419 4.2-.167-.004-.344.005-.51.013l.012-.002Z"/><path fill="#5E7E52" d="M115.332 242.388c.2-.023.386-.057.585-.093.211.178.421.344.632.521.67 2.243 1.339 4.486 1.997 6.73-.154.209-.319.419-.475.616-2.603-.074-5.206-.147-8.013-.232 1.894-2.713 3.584-5.127 5.263-7.54l.011-.002Z"/><path fill="#97BA67" d="m71.089 59.327.067.564-1.163.137 1.096-.701Z"/><path fill="#848B67" d="m55.226 121.621-9-2.438-.096-.513c1.036-1.706 2.06-3.423 3.094-5.14l.235-.028.157.124c.577 1.051 1.066 2.172 1.765 3.15 1.208 1.667 2.548 3.235 3.832 4.834l.013.011Z"/><path fill="#29945D" d="M14.668 107.823c-.165-.183-.33-.378-.485-.574 0 0 .118-.11.195-.166.111.237.21.475.322.712l-.02.026-.012.002Z"/><path fill="#E88137" d="m69.965 89.122.576-.068c1.914 1.5 3.84 3 5.756 4.5-4.004.46-8.021.912-12.025 1.372l-.13-1.103c1.944-1.576 3.89-3.14 5.834-4.714l-.01.013Z"/><path fill="#F29454" d="M76.298 93.566c-1.915-1.5-3.841-3-5.756-4.5.176-.224.34-.445.515-.68l8.534-1.508c-.707 2.179-1.415 4.346-2.133 6.527l-.022.014-.576.068-.575.068.013.01Zm-6.332-4.444c-1.944 1.575-3.89 3.138-5.834 4.714l1.122-5.313 2.095-.998c.873.54 1.745 1.069 2.618 1.608l-.001-.011Z"/><path fill="#A7602C" d="M20.599 108.872c.7-.321 1.412-.643 2.11-.975a682.134 682.134 0 0 0-2.707 5.094c-.134-1.139-.27-2.29-.416-3.427l1.025-.693-.012.001Z"/><path fill="#E8CA4B" d="m76.298 93.566.575-.068.068.575c-4.916 2.51-9.832 5.02-14.76 7.531-.199-.167-.409-.333-.607-.5l.979-5.32c.024-.193.037-.385.06-.59.55-.089 1.1-.166 1.649-.254 4.004-.461 8.02-.912 12.025-1.373l.011-.001Z"/><path fill="#A7602C" d="M62.563 95.771c-.326 1.777-.653 3.543-.978 5.32-2.403-.491-4.816-.968-7.218-1.458 2.728-1.287 5.468-2.575 8.196-3.862Z"/><path fill="#F29454" d="M64.275 94.939c-.55.088-1.1.165-1.65.254l-.102-.572c.54-.266 1.081-.52 1.621-.787l.13 1.105Z"/><path fill="#B09F58" d="M62.19 101.591c4.917-2.51 9.834-5.02 14.762-7.531-.023 1.122.004 2.25-.077 3.379-.298 4.131-.632 8.255-.953 12.39-.194.07-.387.152-.593.224-.38.009-.76.007-1.14.016-4.175-2.603-8.361-5.193-12.536-7.796l-.63.015c.39-.225.78-.461 1.18-.687l-.012-.01Z"/><path fill="#97BA67" d="M61.01 102.278c.215-.002.416-.014.63-.015-.403 3.144-.805 6.287-1.197 9.418l-.023.002c-3.6.652-7.202 1.303-10.803 1.943l-.158-.124c.16-.769.318-1.538.479-2.296 1.546-1.718 3.081-3.436 4.628-5.154 2.148-1.254 4.296-2.52 6.445-3.774Zm18.643-39.366c-1.726.203-3.463.409-5.19.6-1.107-1.214-2.202-2.419-3.31-3.633 2.834 1.01 5.667 2.022 8.5 3.033Z"/><path fill="#D47F7E" d="M86.673 175.969c1.56 6.163 3.122 12.325 4.67 18.489l.666 2.613c-.276.175-.543.338-.82.513-1.067-1.279-2.167-2.53-3.214-3.836-4.683-5.9-9.367-11.801-13.995-17.733-.7-.893-1.138-1.973-1.697-2.979a4537.48 4537.48 0 0 1 12.486-2.605c.201.19.392.394.593.584l.228 1.021c.356 1.304.725 2.618 1.082 3.921l.001.012Z"/><path fill="#CA434F" d="M85.374 171.014c-.201-.19-.392-.394-.593-.585l.599-.071c.001.215-.009.43-.007.645v.011Z"/><path fill="#90542B" d="m65.4 129.064-7.75-6.563c2.386-1.068 4.77-2.147 7.166-3.216l.013.106c.43.318.849.638 1.267.958 2.154 3.425 4.342 6.834 6.452 10.288.634 1.033 1.044 2.187 1.566 3.28-2.23-1.344-4.438-2.703-6.675-4.01-.626-.367-1.352-.567-2.027-.844l-.012.001Z"/><path fill="#748067" d="M74.176 110.059c.38-.01.761-.007 1.14-.016-1.6 1.463-3.213 2.916-4.788 4.4-1.401 1.332-2.762 2.708-4.138 4.061-.524.3-1.049.588-1.573.888l-.012-.106a2143.433 2143.433 0 0 1-4.318-7.027l-.066-.564.023-.003 13.745-1.623-.013-.01Z"/><path fill="#90542B" d="M66.402 118.502c1.376-1.353 2.737-2.728 4.138-4.061 1.573-1.495 3.188-2.936 4.789-4.399.194-.071.388-.142.592-.225l.27-.032.267-.055c3.024 1.012 6.035 2.026 9.059 3.038L66.4 118.491l.001.011Z"/><path fill="#CBB333" d="M88.888 204.798c-.224.015-.439.016-.663.031 1.766-1.375 3.542-2.764 5.307-4.14 1.863-.958 3.713-1.915 5.576-2.873.202.202.415.392.617.594.531 2.986 1.074 5.97 1.607 8.967-4.148-.855-8.308-1.722-12.456-2.577l.012-.002Z"/><path fill="#817230" d="M101.494 218.528c-2.299-3.039-4.599-6.09-6.91-9.127 1.94-.503 3.88-1.018 6.465-1.693.17 4.053.308 7.442.445 10.82Z"/><path fill="#E46946" d="m70.734 149.439.552-.065.067.564c-.21-.166-.409-.333-.619-.499Z"/><path fill="#817230" d="M81.314 77.79c.209-.75.405-1.512.614-2.263 2.882.422 5.775.83 8.656 1.24l-9.27 1.024Z"/><path fill="#CBB333" d="m76.46 109.741-.268.056-.27.032c.32-4.135.655-8.259.953-12.39.082-1.117.056-2.245.077-3.379l.281-.033.282-.034c.419.32.836.628 1.254.948 1.856 2.71 3.724 5.431 5.58 8.141-.145.386-.29.772-.447 1.16-2.485 1.83-4.97 3.671-7.455 5.501l.012-.002Z"/><path fill="#B09F58" d="m77.516 93.994-.282.033-.282.033-.068-.576.575-.067.068.575-.011.002Z"/><path fill="#83A267" d="m60.421 111.695.067.564c-1.135 3.396-2.27 6.781-3.404 10.178-.197.047-.405.095-.602.143l-.057-.482c-.4-.167-.8-.322-1.2-.489-1.285-1.611-2.625-3.179-3.832-4.835-.697-.965-1.187-2.086-1.765-3.149 3.6-.652 7.203-1.292 10.803-1.943l-.01.013Z"/><path fill="#5E7E52" d="M57.083 122.425c1.134-3.396 2.27-6.781 3.404-10.178 1.442 2.342 2.885 4.684 4.317 7.028-2.385 1.067-4.77 2.147-7.166 3.216a2.969 2.969 0 0 1-.567-.064l.012-.002Z"/><path fill="#CA434F" d="M93.544 200.688c-1.766 1.376-3.542 2.764-5.307 4.14l-.259.03-.252-.018c-2.673-2.685-5.272-5.438-8.03-8.03-2.422-2.274-5.032-4.323-7.519-6.53-.599-.537-1.01-1.298-1.505-1.966.205-.274.4-.547.604-.833 7.422 4.398 14.856 8.795 22.277 13.182l-.01.025Z"/><path fill="#848B67" d="M75.866 80.233c.177-.212.343-.422.507-.644a13.16 13.16 0 0 0-.507.644Z"/><path fill="#978A4F" d="m74.176 110.059-13.745 1.623c.402-3.144.805-6.287 1.195-9.429 4.175 2.603 8.361 5.192 12.536 7.795l.014.011Z"/></svg>