<svg id="Иконка_связь_с_организаторами" data-name="Иконка связь с организаторами" xmlns="http://www.w3.org/2000/svg" width="101.11" height="104.37" viewBox="0 0 101.11 104.37">
  <path id="Контур_1" data-name="Контур 1" d="M422.085,183.453V171.834c-.7-.189-.672-.376-1.17-.869a18.026,18.026,0,0,1-3.11-3c-2.739-3.59-4.35-4.748-6.408-9.9a29.9,29.9,0,0,1,1.8-26.5,34.6,34.6,0,0,1,10.275-10.315,37.911,37.911,0,0,1,15.267-5.525c7.728-.993,13.748-.331,20.517,3.047a34.3,34.3,0,0,1,9.458,7.051,29.838,29.838,0,0,1,6.63,9.881c4.008,9.264,2.017,21.137-3.812,28.917-.7.929-1.228,1.491-1.922,2.36-2.017,2.527-6.505,5.522-9.608,6.9a25.956,25.956,0,0,1-6.035,2.116,32.971,32.971,0,0,1-7.422.936,14.477,14.477,0,0,1-1.83.212c-.879-.02-.834-.187-1.832-.217a54.036,54.036,0,0,1-7.693-.463c-2.121-.284-1.591-.575-3.119.468l-7.337,4.895a13.911,13.911,0,0,1-2.652,1.631Zm20.572-74.814a39.35,39.35,0,0,0-7.728,1.018A44.284,44.284,0,0,0,421.1,115a40.868,40.868,0,0,0-8.039,6.232c-5.843,5.843-10.549,14.587-10.549,23.087,0,8.781.879,12.966,4.551,20.321l2.96,4.579c5.935,7.586,5.537,3.271,5.537,9.349V193.44c4.618-2.445,12.817-7.3,17.714-10.218.916-.548.807-.336,2.054-.182,9.319,1.155,17.567,1.026,26.246-2.7a37.376,37.376,0,0,0,5.968-3.2c2.955-1.949,3.583-2.978,5.181-4.2a3.575,3.575,0,0,0,1.105-1.135c.879-1.113,1.506-1.6,3.147-3.787a36.465,36.465,0,0,0,3.408-5.766,31.979,31.979,0,0,0,2.445-6.727c2.2-8.888,1.628-17.348-2.716-25.415a40.616,40.616,0,0,0-3.6-5.574,42.552,42.552,0,0,0-22.385-14.714,41.763,41.763,0,0,0-8.582-1.183Z" transform="translate(-402.516 -108.639)" fill="#011176" fill-rule="evenodd"/>
  <path id="Контур_2" data-name="Контур 2" d="M462.622,173.8v11.415a30.415,30.415,0,0,1-4.12-2.609c-1.387-.926-2.681-1.79-4.036-2.691-.665-.443-1.242-.814-1.957-1.307-1.183-.819-.792-.727-2.408-.413-2,.388-4.061.438-6.062.672l-6.232-.436a26.193,26.193,0,0,1-5.273-1.454l-3.281-1.613c-.468-.259-.739-.346-1.2-.627-4.006-2.427-2.993-2.786-7.013-2.569-2.891.157-.391.319-4.088.012-.672-.055-1.536-.012-2.231-.012,1.066,1.593,7.648,6.578,9.516,7.611,8.216,4.549,15.366,5.6,24.954,4.434,2.335-.284,1.641-.184,3.251.789,1.885,1.138,3.635,2.271,5.559,3.411,1.944,1.153,3.61,2.248,5.554,3.413,1.927,1.153,3.66,2.355,5.592,3.376h0V176.653c3.687-1.952,8.736-7.476,11.049-11.171,3.6-5.754,5.261-10.967,5.261-19a32.6,32.6,0,0,0-3.408-13.713c-.269-.555-.583-1.016-.871-1.576a25.635,25.635,0,0,0-1.917-2.975,23.427,23.427,0,0,0-2.106-2.788,49.811,49.811,0,0,0-4.947-4.837,32.582,32.582,0,0,1,.03,4.312c-.092.787.02,1.559-.085,2.363-.374,2.846-.51,2,.667,3.515l2,2.9a27.381,27.381,0,0,1,3.857,17.44,30.439,30.439,0,0,1-14.532,21.75C463.566,173.21,463.108,173.471,462.622,173.8Z" transform="translate(-384.342 -90.831)" fill="#011176" fill-rule="evenodd"/>
  <path id="Контур_3" data-name="Контур 3" d="M424.787,126.224c0,7.105,9.784,7.105,9.784,0,0-2.495-2.141-4.484-5.3-4.484A4.822,4.822,0,0,0,424.787,126.224Z" transform="translate(-369.34 -89.123)" fill="#011176" fill-rule="evenodd"/>
  <path id="Контур_4" data-name="Контур 4" d="M409.067,126.224c0,7.105,9.782,7.105,9.782,0,0-2.495-2.141-4.484-5.3-4.484A4.82,4.82,0,0,0,409.067,126.224Z" transform="translate(-392.757 -89.123)" fill="#011176" fill-rule="evenodd"/>
  <path id="Контур_5" data-name="Контур 5" d="M416.927,126.224c0,7.105,9.784,7.105,9.784,0,0-2.495-2.144-4.484-5.3-4.484A4.822,4.822,0,0,0,416.927,126.224Z" transform="translate(-381.048 -89.123)" fill="#011176" fill-rule="evenodd"/>
</svg>
