<svg id="Иконка_Результаты" data-name="Иконка Результаты" xmlns="http://www.w3.org/2000/svg" width="95.871" height="80.371" viewBox="0 0 95.871 80.371">
  <path id="Контур_21" data-name="Контур 21" d="M98.631,154.065h26.025c1.036,0,1.873-1.206,1.873-2.3V127.273h31.834v28.675c0,1.943,1.057,2.72,2.808,2.72h25.09v30.976H98.631V154.065Zm91.75,2.076c-.025-.872-2.047-4.982-2.5-5.981-.7-1.562-1.681-5.094-3.494-5.094H162.483V125.392c0-1.411-1.91-5.107-2.5-6.419-.78-1.746-1.525-5.094-3.682-5.094H128.215c-1.509,0-5.8,9.979-5.8,11.513V140.67h-22.1c-1.617,0-5.8,9.721-5.8,11.3v40.186a2.134,2.134,0,0,0,1.873,2.094H188.51a2.133,2.133,0,0,0,1.871-2.045V156.14Zm-27.9-6.47v4.394h22.657c-.323-.683-1.85-4.394-2.433-4.394Zm-60.794-4.361-1.747,4.151h22.469v-4.187l-20.722.036Zm28.4-26.824h24.717c.672,0,1.9,3.464,2.248,4.184H127.84C128.183,121.949,129.416,118.485,130.088,118.485Z" transform="translate(-94.51 -113.879)" fill="#011176" fill-rule="evenodd"/>
  <path id="Контур_22" data-name="Контур 22" d="M135.608,139.607c0,3.525-4.362.971-4.362,4.776,0,2.967,4.362,1.045,4.362,4.362a2.144,2.144,0,0,1-3.142,1.714c-1.7-.905-.588-2.488-2.044-3.606-2.7-2.077-4.887,1.768-2.7,5.2a6.72,6.72,0,0,0,12.45-3.52,7.17,7.17,0,0,0-1.661-4.362,7.161,7.161,0,0,0,1.661-4.36,6.718,6.718,0,0,0-12.369-3.647c-2.13,3.158-.454,7.38,2.493,5.42,1.578-1.053.482-2.643,2.031-3.619A2.145,2.145,0,0,1,135.608,139.607Z" transform="translate(-54.906 -83.982)" fill="#011176" fill-rule="evenodd"/>
  <path id="Контур_23" data-name="Контур 23" d="M98.85,138.113a2.282,2.282,0,0,0,2.48,2.066c2.844,0,1.26-4.341,4.134-4.341,4.46,0,1.154,6.632-.46,8.223-1.184,1.169-6.154,5.51-6.154,7.079a2.3,2.3,0,0,0,2.068,2.275h9.511c.985,0,5.164-4.551-3.722-4.551,2.2-3.288,4.743-3.548,5.4-9.5C113.267,128.933,98.85,128.839,98.85,138.113Z" transform="translate(-88.246 -82.137)" fill="#011176" fill-rule="evenodd"/>
  <path id="Контур_24" data-name="Контур 24" d="M117.947,130.108v9.984c0,2.868-.9,8.187,2,8.187,1.675,0,2.395-1.266,2.395-3V125.316c0-1.888-1.536-3.341-3.246-2.473a25.1,25.1,0,0,0-3.395,3.222C111.928,129.815,114.15,132.649,117.947,130.108Z" transform="translate(-69.984 -99.171)" fill="#011176" fill-rule="evenodd"/>
</svg>
