<svg id="Иконка_Прямой_эфир" data-name="Иконка Прямой эфир" xmlns="http://www.w3.org/2000/svg" width="80.97" height="80.968" viewBox="0 0 80.97 80.968">
  <path id="Контур_11" data-name="Контур 11" d="M176.092,163.563V136.045a2.544,2.544,0,0,1,2.847-2.847h65.788a2.544,2.544,0,0,1,2.847,2.847v27.518a2.544,2.544,0,0,1-2.847,2.847H178.939a2.544,2.544,0,0,1-2.847-2.847Zm-4.744-28.308v29.1a6.273,6.273,0,0,0,2.015,4.628,6.609,6.609,0,0,0,4.628,2.171h67.529a7.049,7.049,0,0,0,6.8-6.64V135.094a7.131,7.131,0,0,0-6.8-6.64H177.99A7.131,7.131,0,0,0,171.348,135.255Z" transform="translate(-171.348 -90.184)" fill="#011176" fill-rule="evenodd"/>
  <path id="Контур_12" data-name="Контур 12" d="M200.906,135.423v19.61a2.31,2.31,0,0,0,2.055,2.055h10.123c2.729,0,2.729-4.744,0-4.744H205.65V147.6h7.434c2.729,0,2.729-4.746,0-4.746H205.65v-4.744h7.434c2.729,0,2.729-4.746,0-4.746H202.961A2.312,2.312,0,0,0,200.906,135.423Z" transform="translate(-143.815 -85.608)" fill="#011176" fill-rule="evenodd"/>
  <path id="Контур_13" data-name="Контур 13" d="M191.081,135.431a11,11,0,0,0,.6,3.195c.245.985.45,1.8.7,2.783l3.513,14.04a2.427,2.427,0,0,0,4.57.116l3.525-14.03a37.15,37.15,0,0,0,1.329-6.1c0-2.2-3.844-3.156-4.715-.286l-1.516,6.075a19.806,19.806,0,0,0-.728,3.226l-2.526-9.178C194.981,132.219,191.081,133.233,191.081,135.431Z" transform="translate(-152.967 -85.616)" fill="#011176" fill-rule="evenodd"/>
  <path id="Контур_14" data-name="Контур 14" d="M200.906,110.7c0,2.217,1.534,2.463,3.21,6.752a17.629,17.629,0,0,1,1.377,6.689l0,3.164a18.255,18.255,0,0,1-.313,2.059,20.937,20.937,0,0,1-2.561,6.768c-1.2,1.986-1.711,1.9-1.711,3.666a2.412,2.412,0,0,0,4.433.954,26.354,26.354,0,0,0,3.092-25.559,26.726,26.726,0,0,0-3.092-5.447,2.617,2.617,0,0,0-1.721-1.1h-.67A2.3,2.3,0,0,0,200.906,110.7Z" transform="translate(-143.815 -108.64)" fill="#011176" fill-rule="evenodd"/>
  <path id="Контур_15" data-name="Контур 15" d="M178.8,124.295c0,6.071,1.022,9.924,3.9,14.758a17.986,17.986,0,0,0,1.153,1.694c2.03,2.716,6.08.071,3.734-3.1a14.418,14.418,0,0,1-.952-1.42,21.824,21.824,0,0,1-2.926-8.777,22.653,22.653,0,0,1,.29-6.333,21.3,21.3,0,0,1,1.078-3.668,18.963,18.963,0,0,1,1.5-3.087c1.2-1.986,1.711-1.9,1.711-3.666a2.28,2.28,0,0,0-2.071-2.055h-.641a2.481,2.481,0,0,0-1.653,1.01A26,26,0,0,0,178.8,124.295Z" transform="translate(-164.408 -108.64)" fill="#011176" fill-rule="evenodd"/>
  <path id="Контур_16" data-name="Контур 16" d="M176.343,135.419v19.61a2.31,2.31,0,0,0,2.055,2.055h10.121c2.731,0,2.731-4.744,0-4.744h-7.432V135.419C181.087,132.688,176.343,132.688,176.343,135.419Z" transform="translate(-166.695 -85.604)" fill="#011176" fill-rule="evenodd"/>
  <path id="Контур_17" data-name="Контур 17" d="M193.37,120.826a2.479,2.479,0,0,1,2.244-2.492,2.38,2.38,0,0,1,2.461,2.206c.2,2.891-4.213,3.469-4.705.286Zm-4.746-.473a6.34,6.34,0,0,0,2.016,5.258,5.943,5.943,0,0,0,1.879,1.443,7.059,7.059,0,0,0,8.164-1.284,5.89,5.89,0,0,0,1.441-1.879,7.315,7.315,0,0,0,.05-6.335,7.115,7.115,0,0,0-6.117-4,6.7,6.7,0,0,0-3.432.682A7.119,7.119,0,0,0,188.624,120.353Z" transform="translate(-155.256 -104.065)" fill="#011176" fill-rule="evenodd"/>
  <path id="Контур_18" data-name="Контур 18" d="M183.712,122.008c0,3.55.145,5.188,1.738,8.383.608,1.217,2.374,4.427,3.954,4.427,1.451,0,2.689-.56,2.689-2.372,0-2.088-3.637-3.614-3.637-9.489a12.372,12.372,0,0,1,2.528-7.276c.521-.722,1.109-.916,1.109-2.212,0-1.81-1.238-2.374-2.689-2.374C187.053,111.095,183.712,118.073,183.712,122.008Z" transform="translate(-159.831 -106.353)" fill="#011176" fill-rule="evenodd"/>
  <path id="Контур_19" data-name="Контур 19" d="M196.566,113.469c0,2.132,3.639,3.585,3.639,9.487s-3.639,7.371-3.639,9.489c0,1.812,1.24,2.372,2.689,2.372,2.343,0,5.694-6.818,5.694-11.228a15.106,15.106,0,0,0-1.686-7.96c-1.172-2.339-2.343-4.535-4.639-4.535A2.288,2.288,0,0,0,196.566,113.469Z" transform="translate(-147.858 -106.353)" fill="#011176" fill-rule="evenodd"/>
  <path id="Контур_20" data-name="Контур 20" d="M186.168,135.419v19.61c0,2.729,4.744,2.729,4.744,0v-19.61C190.912,132.688,186.168,132.688,186.168,135.419Z" transform="translate(-157.543 -85.604)" fill="#011176" fill-rule="evenodd"/>
</svg>
