<svg xmlns="http://www.w3.org/2000/svg" xmlns:xlink="http://www.w3.org/1999/xlink" width="1284" height="227" viewBox="0 0 1284 227">
  <defs>
    <clipPath id="clip-path">
      <rect id="Прямоугольник_431" data-name="Прямоугольник 431" width="1284" height="227" transform="translate(0 1179)" fill="#011176" stroke="#707070" stroke-width="1"/>
    </clipPath>
  </defs>
  <g id="Сгруппировать_1108" data-name="Сгруппировать 1108" transform="translate(0 -1179)">
    <g id="Группа_масок_274" data-name="Группа масок 274" clip-path="url(#clip-path)">
      <g id="Сгруппировать_1107" data-name="Сгруппировать 1107" transform="translate(9962.699 17735.023)">
        <path id="Контур_4149" data-name="Контур 4149" d="M174.708,104.5l67.073,67.961.7-.152-.057-1.293L176.777,104.5Z" transform="translate(-9927.162 -16857.32)" fill="#00a9e0"/>
        <path id="Контур_4150" data-name="Контур 4150" d="M198.579,104.5l2.876,66.53.057,1.29.464-.1.988-.676-2.9-67.04Z" transform="translate(-9886.211 -16857.32)" fill="#00a9e0"/>
        <path id="Контур_4153" data-name="Контур 4153" d="M333.855,129.458l-.7.155L122.4,176.3l-.8,1.689,211.291-46.81,1.127-1.567.6.432-.421-.608.117-.081Z" transform="translate(-10018.269 -16814.689)" fill="#00a9e0"/>
        <path id="Контур_4154" data-name="Контур 4154" d="M339.274,131.031l-221.5,307.55.263.38,1.792-.711L340.762,131.485l-.462-1.35.7-.239-.6-.429Z" transform="translate(-10024.84 -16814.496)" fill="#00a9e0"/>
        <path id="Контур_4155" data-name="Контур 4155" d="M93,208.861l65.65,96.124,1.76.532.3-.119-.258-.383-66.725-97.7Z" transform="translate(-10067.329 -16680.941)" fill="#00a9e0"/>
        <path id="Контур_4156" data-name="Контур 4156" d="M81.185,233.788l98.328,29.952.755-.855.554.486-.272-.687.239-.1-1.754-.535L81.82,232.439Z" transform="translate(-10087.602 -16637.848)" fill="#00a9e0"/>
        <path id="Контур_4157" data-name="Контур 4157" d="M233.319,244.382,49.794,452.773l.3.687.921.149L234.009,245.827l-.114-1.768.733-.049-.551-.486Z" transform="translate(-10141.453 -16618.832)" fill="#00a9e0"/>
        <path id="Контур_4158" data-name="Контур 4158" d="M117.5,243.759l.114,1.768,14.745,225.425h1.488L119.1,245.464l-1.355-1.208.5-.546Z" transform="translate(-10025.304 -16618.514)" fill="#00a9e0"/>
        <path id="Контур_4159" data-name="Контур 4159" d="M150.007,344.393h7.508l127.4-25.577-.019-.559-.858-.774Z" transform="translate(-9969.536 -16491.953)" fill="#00a9e0"/>
        <path id="Контур_4160" data-name="Контур 4160" d="M49.711,321.484l.573-.464,1.217,1.5,100.618,16.26h9.265L51.144,320.965l-.923-.149-.331-.054-.062-.008Z" transform="translate(-10141.597 -16486.344)" fill="#00a9e0"/>
        <path id="Контур_4161" data-name="Контур 4161" d="M49.7,321.308H49.7l.73.06-.147,1.83L62.83,338.627h1.9L51.485,322.342l-1.217-1.5Z" transform="translate(-10141.622 -16486.189)" fill="#00a9e0"/>
        <path id="Контур_4162" data-name="Контур 4162" d="M117.579,244.26l1.344,1.211,220.811,198.8.858.771-.014-.31.736-.027-.72-.149.263-1.249L119.444,243.958l-1.1.44-.269-.684Z" transform="translate(-10025.168 -16618.506)" fill="#00a9e0"/>
        <path id="Контур_4163" data-name="Контур 4163" d="M120,315.165l-1.795.714-.3.12-.239.1.272.684.272.687,1.1-.44L406.61,202.835l.242-1.143-.163-.475Z" transform="translate(-10025.022 -16691.408)" fill="#00a9e0"/>
        <path id="Контур_4164" data-name="Контур 4164" d="M266.42,201.547l-.065-.19-.242,1.141L199.887,516.016l-.263,1.252.722.149-.568-.467,1.9-2.292,65.924-312.1-.915-.649.426-.6Z" transform="translate(-9884.419 -16691.252)" fill="#00a9e0"/>
        <path id="Контур_4165" data-name="Контур 4165" d="M368.836,104.5,224.442,365.939l.261.758,1.42-.749L370.52,104.5Z" transform="translate(-9841.844 -16857.32)" fill="#00a9e0"/>
        <path id="Контур_4166" data-name="Контур 4166" d="M297.782,104.5l-96.957,67.062-.978.676-.119.084.421.606.7-.239.179.527,99.35-68.716Z" transform="translate(-9884.24 -16857.32)" fill="#00a9e0"/>
        <path id="Контур_4167" data-name="Контур 4167" d="M200.327,129.78l-.7.236.464,1.35,65.99,192.991.166.478.063.19.7-.239h0l-.348-.649.763-.4-.258-.758L201.207,130.068l-.182-.527Z" transform="translate(-9884.409 -16814.367)" fill="#00a9e0"/>
        <path id="Контур_4168" data-name="Контур 4168" d="M199.613,317.669l.014.31.019.554.961,25.588H202.1l-.926-24.6-1.352-1.366.535-.513Z" transform="translate(-9884.438 -16491.682)" fill="#00a9e0"/>
        <path id="Контур_4169" data-name="Контур 4169" d="M201.572,459.432l-1.9,2.289.568.467.524-.513.462.475L388.736,236.223l.6-2.563-.242-.171Z" transform="translate(-9884.332 -16636.047)" fill="#00a9e0"/>
        <path id="Контур_4170" data-name="Контур 4170" d="M200.216,317.96l-.527.513,1.336,1.371,24.043,24.616h2.064L201.21,317.919l-.464-.475Z" transform="translate(-9884.308 -16492.02)" fill="#00a9e0"/>
        <path id="Контур_4171" data-name="Контур 4171" d="M306.83,236.106,247.414,488.393h1.515l59.535-252.814-.8-1.868-.239-.168Z" transform="translate(-9802.434 -16635.953)" fill="#00a9e0"/>
        <path id="Контур_4172" data-name="Контур 4172" d="M224.219,201.968l.918.646,121.918,86.272.244.174.234.171-.081-.2.679-.291-.611-.415.424-.619L226.049,201.455l-1.059.562-.345-.652Z" transform="translate(-9842.226 -16691.154)" fill="#00a9e0"/>
        <path id="Контур_4173" data-name="Контур 4173" d="M226.432,295.611l-1.42.752-.763.4.345.646.345.652L226,297.5,508.495,147.909l1.477-2.167-.073-.244Z" transform="translate(-9842.175 -16786.994)" fill="#00a9e0"/>
        <path id="Контур_4174" data-name="Контур 4174" d="M431.037,147.729l-161.078,235.6-.424.619.608.415-.13-.725,1.738-.318L433.2,147.17l-.546-1.17.668-.31h0l-.706.209-.1-.334Z" transform="translate(-9764.485 -16786.879)" fill="#00a9e0"/>
        <path id="Контур_4175" data-name="Контур 4175" d="M522.345,216.789h0v0ZM271.451,262.244l-1.735.32.133.728.261-.692,2.493.94,249.15-45.887-.111-.644-.361-.777Z" transform="translate(-9764.176 -16665.652)" fill="#00a9e0"/>
        <path id="Контур_4176" data-name="Контур 4176" d="M329.457,145.955l.546,1.173,88.835,190.781.361.774-.016-.092.722-.128h0l-.524-.524.744-.747-88.8-190.7-1.271-.109.065-.736Z" transform="translate(-9661.689 -16786.742)" fill="#00a9e0"/>
        <path id="Контур_4177" data-name="Контур 4177" d="M317.219,104.5l33.194,111.507.073.244.1.337.706-.212-.388-.627.82-.5L318.756,104.5Z" transform="translate(-9682.685 -16857.32)" fill="#00a9e0"/>
        <path id="Контур_4178" data-name="Контур 4178" d="M510.382,104.5,330.377,215.2l-.817.5.383.627.068-.733,2.216.2L513.187,104.5Z" transform="translate(-9661.515 -16857.32)" fill="#00a9e0"/>
        <path id="Контур_4179" data-name="Контур 4179" d="M329.747,146.111l-.062.736,1.271.111,255.586,22.536.758-.763-.3-.682-254.97-22.482-2.219-.2Z" transform="translate(-9661.299 -16787.207)" fill="#00a9e0"/>
        <path id="Контур_4180" data-name="Контур 4180" d="M402.649,104.5l59.168,133.717.3.676.263-.263.619-1.382L404.262,104.5Z" transform="translate(-9536.128 -16857.32)" fill="#00a9e0"/>
        <path id="Контур_4181" data-name="Контур 4181" d="M473.722,114.947l-.8-.247L425.16,220.942l-.625,1.388.1-.092.524.521-.4-.617,2.11-1.377,47.622-105.918-.315.1-.228-.7Z" transform="translate(-9498.58 -16840.609)" fill="#00a9e0"/>
        <path id="Контур_4182" data-name="Контур 4182" d="M410.5,104.5l86.486,27.06.793.247.22-.7-.722-.163.174-.779L415.436,104.5Z" transform="translate(-9522.665 -16857.32)" fill="#00a9e0"/>
        <path id="Контур_4183" data-name="Контур 4183" d="M448.311,104.5l-5.746,25.651-.176.779.722.16-.223-.7,1.225-.391,5.711-25.5Z" transform="translate(-9467.955 -16857.32)" fill="#00a9e0"/>
        <path id="Контур_4184" data-name="Контур 4184" d="M575.945,104.5l2.74,7.231,1.287.516.421-.166L577.52,104.5Z" transform="translate(-9238.837 -16857.32)" fill="#00a9e0"/>
        <path id="Контур_4185" data-name="Контур 4185" d="M597.573,104.5l-19.826,7.737-.424.166.271.109-.271.687.565-.475.66.788,23.087-9.01Z" transform="translate(-9236.474 -16857.32)" fill="#00a9e0"/>
        <path id="Контур_4186" data-name="Контур 4186" d="M353.181,422.186h1.559l51.274-148.9-.7-.972-.462-.174Z" transform="translate(-9620.99 -16569.748)" fill="#00a9e0"/>
        <path id="Контур_4187" data-name="Контур 4187" d="M269.75,233.875l.676-.291.673,1.583L548.2,339.2l.462.171-.133-.182.6-.429-.725.125-.223-1.268L272.5,234.12l-2.493-.937Z" transform="translate(-9764.116 -16636.568)" fill="#00a9e0"/>
        <path id="Контур_4188" data-name="Контур 4188" d="M270.189,233.618l-.676.288.081.193.8,1.874L377.954,488.756h1.6L271.538,234.911l-.673-1.58Z" transform="translate(-9764.524 -16636.316)" fill="#00a9e0"/>
        <path id="Контур_4189" data-name="Контур 4189" d="M531.3,153.877l-.263.261-.755.763L363.238,322.893l-.744.75.524.519.011-.736,1.73.03,167.248-168.2-.505-.348.413-.605v0l-.521-.521Z" transform="translate(-9605.015 -16772.785)" fill="#00a9e0"/>
        <path id="Контур_4190" data-name="Контур 4190" d="M363.15,216.431l-.722.125.014.092.111.638,26.414,149.008.225,1.268.728-.128-.25-.69.823-.293-26.37-148.785-1.271-.565.3-.671v0Z" transform="translate(-9605.129 -16665.314)" fill="#00a9e0"/>
        <path id="Контур_4191" data-name="Контур 4191" d="M372.267,272.411l.13.185.7.972,107,148.883h1.811L374.453,272.932l-1.681-.217.092-.733Z" transform="translate(-9588.249 -16570.01)" fill="#00a9e0"/>
        <path id="Контур_4194" data-name="Контур 4194" d="M577.354,107.887l.589.437-.554.747L703.023,258.217l.69-1.466L578.582,108.2l-.662-.79Z" transform="translate(-9236.419 -16852.338)" fill="#00a9e0"/>
        <path id="Контур_4195" data-name="Контур 4195" d="M568.849,104.5l21.075,8.467,2-.611.215.706v0l.277-.684-.274-.111-1.285-.516-18.052-7.25Z" transform="translate(-9251.01 -16857.32)" fill="#00a9e0"/>
        <path id="Контур_4196" data-name="Контур 4196" d="M523.8,104.5l-80.01,25.512-1.225.391.223.7.225.706.315-.1L528.662,104.5Z" transform="translate(-9467.644 -16857.32)" fill="#00a9e0"/>
        <path id="Контур_4197" data-name="Контур 4197" d="M630.033,104.5,426.758,237.4l-2.1,1.371.4.616-.212-.706,4.937-1.5L632.722,104.5Z" transform="translate(-9498.368 -16857.32)" fill="#00a9e0"/>
        <path id="Контур_4198" data-name="Контур 4198" d="M711.272,199.9l3.324,1.716,221.338,35.573.654-1.388L711.478,199.62ZM425.435,154.385l1.447.991L709.29,200.761l.152-.755.72.147-.589-.44.266-.356L427.013,153.9Z" transform="translate(-9497.038 -16772.576)" fill="#00a9e0"/>
        <path id="Контур_4199" data-name="Контур 4199" d="M837.2,107.94,429.672,232.107l-4.939,1.5.214.706.413-.606,1.265.863,1.581-.481,409.284-124.7,1.336-1.8.589.443-.214-.706Z" transform="translate(-9498.243 -16852.473)" fill="#00a9e0"/>
        <path id="Контур_4200" data-name="Контур 4200" d="M791.177,225.11h0Zm.788-.19.266.339,204.86,3.625.7-1.483-205.6-3.639Zm-1.29-1.062.024-.122-.2-.005ZM362.7,216.909v0l.3-.69,3.291,1.5L788.744,225.2l.825-.3-1.743-1.217L364.438,216.19l-1.73-.03Z" transform="translate(-9604.666 -16665.771)" fill="#00a9e0"/>
        <path id="Контур_4201" data-name="Контур 4201" d="M546.69,171.6,520.284,301.585l-.027.119.923.63-.415.606.578-.456.212.266.234-1.141L548.1,172.1l-.872-.448.339-.657h0l-.723-.147Z" transform="translate(-9334.371 -16743.506)" fill="#00a9e0"/>
        <path id="Контур_4202" data-name="Контур 4202" d="M425.068,154.359l-.413.606.505.348L681.618,330.878l1.746,1.195,1.36-.483.247.7v0l.415-.606-.918-.63-.182-.125L428.194,155.609l-1.447-.994-1.263-.864Z" transform="translate(-9498.376 -16772.836)" fill="#00a9e0"/>
        <path id="Контур_4203" data-name="Контур 4203" d="M531.057,171.5l-.592-.44-.337.654.866.448,194.87,100.609.63-1.336L534.9,172.523l-3.329-1.716Z" transform="translate(-9317.438 -16743.576)" fill="#00a9e0"/>
        <path id="Контур_4204" data-name="Контур 4204" d="M656.812,109.218,530.3,279.187l-.266.358.589.44,0,0,.592.44.521-.7.2-.274L658.775,109.047l.554-.744-.592-.44-.589-.44Z" transform="translate(-9317.601 -16852.311)" fill="#00a9e0"/>
        <path id="Контур_4205" data-name="Контур 4205" d="M373.219,361.949l-.82.293.244.692,0,0,.1-.733,3.047.394L545.8,302.08l-.242-.2-1.583-.711Zm399.829-142.32-.826.293L545.985,300.453l.269.119-.3.671.475-.559.98.828,225.526-80.281,1.1-1.779.625.386-.247-.7Z" transform="translate(-9588.022 -16660.654)" fill="#00a9e0"/>
        <path id="Контур_4206" data-name="Контур 4206" d="M520.441,219.683l.625.386-.551.9L650.378,384.948l.7-1.485-25.884-32.687-.66.445L623.712,350l.565-.383L521.492,219.827l-.263-.331-.212-.269Z" transform="translate(-9334.054 -16660.514)" fill="#00a9e0"/>
        <path id="Контур_4207" data-name="Контур 4207" d="M453.683,512.905h1.727l67.6-109.761.225-2.422-.426-.054ZM633.452,221.032l-109.6,177.939.53.445.79.212L635.247,220.92l.551-.9-.625-.383-.627-.386Z" transform="translate(-9448.578 -16660.469)" fill="#00a9e0"/>
        <path id="Контур_4208" data-name="Контур 4208" d="M372.552,272.444l-.092.731,1.678.217,288.083,37.363.426.057.03-.323-1.621-1.371L375.691,272.105l-3.044-.394Z" transform="translate(-9587.917 -16570.473)" fill="#00a9e0"/>
        <path id="Контур_4209" data-name="Контур 4209" d="M479.789,286.557,638.144,398.132H640.7L482.98,287.005l-3.155-.847Z" transform="translate(-9403.793 -16545.691)" fill="#00a9e0"/>
        <path id="Контур_4210" data-name="Контур 4210" d="M479.957,285.652l-.475.562.733.068-.079.872,3.155.847,203.622,54.674.638-1.352L480.628,285.76l-.8-.215Z" transform="translate(-9404.321 -16546.742)" fill="#00a9e0"/>
        <path id="Контур_4211" data-name="Контур 4211" d="M486.257,286.355l-.3-.247-.03.323-.223,2.428-10.24,109.9h1.488l10.4-111.632.038-.394.079-.872-.739-.068Z" transform="translate(-9411.209 -16546.318)" fill="#00a9e0"/>
        <path id="Контур_4212" data-name="Контур 4212" d="M362.88,216.861l-.3.671,1.268.568,197.4,88.319,1.589.711-.079-.071.475-.565.3-.673-.269-.12L366.483,217.659l-3.3-1.477Z" transform="translate(-9604.869 -16665.738)" fill="#00a9e0"/>
        <path id="Контур_4213" data-name="Контур 4213" d="M436.573,249.663l-.475.562.081.068.242.206,115.488,97.435,1.621,1.369.293.25.478-.565.472-.565-.122-.1-.532-.445L438.028,249.926l-.98-.828Z" transform="translate(-9478.746 -16609.27)" fill="#00a9e0"/>
        <path id="Контур_4214" data-name="Контур 4214" d="M559.006,294.134l-.568.38.823,1.222.66-.445,60.749-41.086,1.23-2.6Z" transform="translate(-9268.872 -16604.975)" fill="#00a9e0"/>
        <path id="Контур_4218" data-name="Контур 4218" d="M391.3,260.7a2.974,2.974,0,0,1,1.7,3.174c-.062,2.072-.016,4.149-.016,6.224v.823l2.094-1.179c1.287-.722,2.563-1.464,3.864-2.164a2.31,2.31,0,0,1,3.049,3.348,3.8,3.8,0,0,1-1.07.861c-2.485,1.426-4.988,2.819-7.468,4.25a.977.977,0,0,0-.451.679c-.024,4.5-.016,9-.016,13.51a2.329,2.329,0,0,0,.041.269c.209-.1.4-.187.578-.291,3.742-2.159,7.476-4.326,11.226-6.471a.909.909,0,0,0,.516-.934c-.054-2.892-.1-5.781-.114-8.673a2.339,2.339,0,0,1,2.409-2.563,2.249,2.249,0,0,1,2.2,1.909,6.676,6.676,0,0,1,.081.988c.005,2.05,0,4.1,0,6.292.3-.163.508-.266.7-.38,2.023-1.168,4.038-2.349,6.072-3.5a2.335,2.335,0,1,1,2.268,4.068c-1.98,1.154-3.97,2.292-5.952,3.441-.206.117-.4.244-.7.421.418.25.771.462,1.124.671,1.575.929,3.155,1.849,4.725,2.792a2.318,2.318,0,0,1-.483,4.266,2.542,2.542,0,0,1-2.132-.4q-3.727-2.208-7.468-4.388a.86.86,0,0,0-.692-.1c-4,2.284-7.981,4.592-12.051,6.946.2.136.348.25.505.339,3.774,2.183,7.557,4.358,11.326,6.561a.851.851,0,0,0,1-.033c2.479-1.477,4.969-2.935,7.454-4.407a2.475,2.475,0,0,1,2.018-.378,2.326,2.326,0,0,1,.562,4.263c-1.431.872-2.884,1.705-4.326,2.555-.489.29-.978.584-1.545.923.252.163.437.293.633.407,2.039,1.179,4.09,2.346,6.121,3.541a2.313,2.313,0,0,1,1.184,2.52,2.227,2.227,0,0,1-1.963,1.795,3.434,3.434,0,0,1-1.743-.426c-1.993-1.086-3.943-2.251-5.909-3.384-.2-.117-.415-.22-.733-.388,0,1.953.008,3.8,0,5.648a13.419,13.419,0,0,1-.084,1.586,2.236,2.236,0,0,1-2.034,1.939,2.291,2.291,0,0,1-2.444-1.608,4.378,4.378,0,0,1-.13-1.176c.024-2.849.065-5.694.106-8.543a.7.7,0,0,0-.361-.752c-3.864-2.211-7.715-4.445-11.568-6.669-.109-.062-.228-.109-.426-.2v.72c0,4.282.011,8.565-.014,12.847a1,1,0,0,0,.608,1.018q3.788,2.1,7.544,4.25a2.3,2.3,0,0,1,.774,3.593,2.357,2.357,0,0,1-3.109.435c-1.714-.95-3.416-1.925-5.124-2.889-.187-.1-.377-.2-.679-.367v.787c0,2.273.011,4.546-.005,6.819a2.354,2.354,0,0,1-2.5,2.6,2.27,2.27,0,0,1-2.08-1.741,5.49,5.49,0,0,1-.1-1.116c-.008-2.406-.005-4.809-.005-7.348-.261.136-.44.225-.616.326-1.727.975-3.449,1.958-5.181,2.925a2.37,2.37,0,0,1-3.068-.375,2.308,2.308,0,0,1,.665-3.612c1.656-.967,3.337-1.89,5-2.832.942-.529,1.893-1.045,2.813-1.6a.838.838,0,0,0,.367-.6c.019-4.527.014-9.051.011-13.575a1.408,1.408,0,0,0-.054-.242c-.231.122-.44.225-.644.342-3.7,2.137-7.4,4.285-11.112,6.4a.946.946,0,0,0-.548.98q.086,4.305.117,8.608a2.348,2.348,0,0,1-2.373,2.6,2.171,2.171,0,0,1-2.224-1.942c-.114-1.382-.1-2.775-.122-4.166-.016-.988-.005-1.974-.005-3.058-.288.152-.5.255-.7.372q-2.977,1.719-5.952,3.44a2.34,2.34,0,0,1-2.732-.019,2.312,2.312,0,0,1,.3-3.956c1.779-1.059,3.584-2.075,5.377-3.112.418-.242.834-.486,1.333-.777-.252-.163-.443-.3-.644-.415-1.724-1.021-3.457-2.031-5.178-3.058a2.327,2.327,0,0,1,.505-4.3,2.487,2.487,0,0,1,2.018.375c2.5,1.485,5.01,2.957,7.514,4.437a.692.692,0,0,0,.826.071q5.8-3.381,11.617-6.718c.092-.054.174-.12.32-.223-.209-.133-.364-.242-.527-.337q-5.637-3.259-11.272-6.523a.848.848,0,0,0-1,0q-3.715,2.224-7.457,4.407a2.357,2.357,0,0,1-3.041-.174,2.3,2.3,0,0,1,.483-3.715c1.713-1.043,3.454-2.042,5.181-3.06.2-.12.4-.253.668-.424l-5.67-3.28c-.361-.212-.731-.407-1.086-.63a2.325,2.325,0,1,1,2.314-4.03c1.618.9,3.21,1.846,4.815,2.77.625.361,1.252.717,1.985,1.135,0-.307,0-.513,0-.722.014-1.963,0-3.929.052-5.893.046-1.9,1.572-3.041,3.177-2.422a2.407,2.407,0,0,1,1.5,2.482c-.027,2.8-.052,5.6-.119,8.407a1.19,1.19,0,0,0,.69,1.238c3.661,2.077,7.3,4.2,10.941,6.3.206.119.415.231.7.388.016-.28.041-.486.041-.692,0-4.307-.008-8.611.014-12.915a.953.953,0,0,0-.581-.967q-3.784-2.1-7.544-4.253a2.325,2.325,0,1,1,2.153-4.117c1.762.958,3.5,1.963,5.246,2.946.2.117.415.22.711.375v-2.191c0-1.613.052-3.226-.014-4.834a2.955,2.955,0,0,1,1.7-3.174Z" transform="translate(-9607.665 -16589.359)" fill="#00c3ff"/>
        <path id="Контур_4222" data-name="Контур 4222" d="M497.7,273.2a2.975,2.975,0,0,1,1.7,3.174c-.062,2.072-.016,4.149-.016,6.224v.823l2.094-1.178c1.287-.722,2.563-1.464,3.864-2.164a2.31,2.31,0,0,1,3.049,3.348,3.8,3.8,0,0,1-1.07.861c-2.485,1.426-4.988,2.819-7.468,4.25a.977.977,0,0,0-.451.679c-.024,4.5-.016,9-.016,13.51a2.314,2.314,0,0,0,.041.269c.209-.1.4-.187.578-.291,3.742-2.159,7.476-4.326,11.226-6.471a.91.91,0,0,0,.516-.934c-.054-2.892-.1-5.781-.114-8.673a2.339,2.339,0,0,1,2.409-2.563,2.25,2.25,0,0,1,2.2,1.909,6.685,6.685,0,0,1,.081.988c.005,2.05,0,4.1,0,6.292.3-.163.508-.266.7-.38,2.023-1.168,4.038-2.349,6.072-3.5a2.335,2.335,0,1,1,2.267,4.068c-1.98,1.154-3.97,2.292-5.953,3.441-.206.117-.4.244-.7.421.418.25.771.462,1.124.671,1.575.929,3.155,1.849,4.725,2.792a2.318,2.318,0,0,1-.483,4.266,2.542,2.542,0,0,1-2.132-.4q-3.727-2.208-7.468-4.388a.859.859,0,0,0-.692-.1c-4,2.284-7.981,4.592-12.051,6.946.2.136.348.25.505.339,3.775,2.183,7.557,4.358,11.326,6.561a.851.851,0,0,0,1-.033c2.479-1.477,4.969-2.935,7.454-4.407a2.476,2.476,0,0,1,2.018-.377,2.326,2.326,0,0,1,.562,4.263c-1.431.872-2.884,1.705-4.326,2.555-.489.291-.978.584-1.545.923.253.163.437.293.633.407,2.039,1.179,4.09,2.346,6.121,3.541a2.313,2.313,0,0,1,1.184,2.52,2.227,2.227,0,0,1-1.963,1.795,3.433,3.433,0,0,1-1.743-.426c-1.993-1.086-3.943-2.251-5.909-3.384-.2-.117-.415-.22-.733-.388,0,1.952.008,3.8,0,5.648a13.445,13.445,0,0,1-.084,1.586,2.236,2.236,0,0,1-2.034,1.939,2.291,2.291,0,0,1-2.444-1.608,4.378,4.378,0,0,1-.13-1.176c.024-2.849.065-5.694.106-8.543a.7.7,0,0,0-.361-.752c-3.864-2.21-7.715-4.445-11.568-6.669-.109-.062-.228-.109-.426-.2v.72c0,4.282.011,8.565-.014,12.847a1,1,0,0,0,.608,1.018q3.788,2.1,7.544,4.25a2.3,2.3,0,0,1,.774,3.593,2.357,2.357,0,0,1-3.109.435c-1.713-.95-3.416-1.925-5.124-2.889-.187-.1-.378-.2-.679-.367v.788c0,2.273.011,4.546-.006,6.819a2.354,2.354,0,0,1-2.5,2.6,2.27,2.27,0,0,1-2.08-1.741,5.486,5.486,0,0,1-.1-1.116c-.008-2.406-.006-4.809-.006-7.348-.261.136-.44.225-.616.326-1.727.975-3.449,1.958-5.181,2.925a2.37,2.37,0,0,1-3.069-.375,2.308,2.308,0,0,1,.665-3.612c1.656-.967,3.337-1.89,5-2.832.942-.53,1.893-1.046,2.813-1.6a.838.838,0,0,0,.367-.6c.019-4.527.014-9.051.011-13.575a1.415,1.415,0,0,0-.054-.242c-.231.122-.44.225-.644.342-3.7,2.137-7.4,4.285-11.112,6.4a.946.946,0,0,0-.549.98q.086,4.305.117,8.608a2.348,2.348,0,0,1-2.373,2.6,2.171,2.171,0,0,1-2.224-1.942c-.114-1.382-.1-2.775-.122-4.166-.016-.988-.005-1.974-.005-3.058-.288.152-.5.255-.7.372q-2.977,1.719-5.952,3.441a2.34,2.34,0,0,1-2.732-.019,2.312,2.312,0,0,1,.3-3.956c1.779-1.059,3.584-2.075,5.377-3.112.418-.242.834-.486,1.333-.777-.253-.166-.443-.3-.644-.415-1.724-1.021-3.457-2.031-5.178-3.058a2.327,2.327,0,0,1,.505-4.3,2.486,2.486,0,0,1,2.018.375c2.5,1.485,5.01,2.957,7.514,4.437a.692.692,0,0,0,.825.071q5.8-3.381,11.617-6.718c.092-.054.174-.119.32-.223-.209-.133-.364-.242-.527-.337q-5.637-3.259-11.272-6.523a.848.848,0,0,0-1,0q-3.715,2.224-7.457,4.407a2.357,2.357,0,0,1-3.041-.174,2.3,2.3,0,0,1,.483-3.715c1.713-1.043,3.454-2.042,5.181-3.06.2-.119.4-.253.668-.424l-5.67-3.28c-.361-.212-.73-.407-1.086-.63a2.325,2.325,0,1,1,2.314-4.03c1.618.9,3.21,1.847,4.815,2.77.625.361,1.252.717,1.985,1.135,0-.307,0-.513,0-.722.014-1.963,0-3.929.052-5.893.046-1.9,1.572-3.041,3.177-2.422a2.407,2.407,0,0,1,1.5,2.482c-.027,2.8-.052,5.6-.12,8.407a1.19,1.19,0,0,0,.69,1.238c3.66,2.077,7.3,4.2,10.941,6.3.206.12.415.231.7.388.016-.28.041-.486.041-.692,0-4.307-.008-8.611.014-12.915a.953.953,0,0,0-.581-.967q-3.784-2.1-7.544-4.253a2.326,2.326,0,1,1,2.153-4.117c1.762.959,3.5,1.963,5.246,2.946.2.117.415.22.711.375v-2.191c0-1.613.052-3.226-.013-4.834a2.955,2.955,0,0,1,1.7-3.174Z" transform="translate(-9425.144 -16567.918)" fill="#00c3ff"/>
        <path id="Контур_4224" data-name="Контур 4224" d="M218.423,302.421a2.975,2.975,0,0,1,1.7,3.174c-.062,2.072-.016,4.149-.016,6.224v.823l2.094-1.178c1.287-.722,2.563-1.464,3.864-2.164a2.31,2.31,0,0,1,3.05,3.348,3.8,3.8,0,0,1-1.07.861c-2.485,1.426-4.988,2.819-7.468,4.25a.976.976,0,0,0-.451.679c-.024,4.5-.016,9-.016,13.51a2.337,2.337,0,0,0,.041.269c.209-.1.4-.187.578-.291,3.742-2.159,7.476-4.326,11.226-6.471a.909.909,0,0,0,.516-.934c-.054-2.892-.1-5.781-.114-8.673a2.339,2.339,0,0,1,2.409-2.563,2.249,2.249,0,0,1,2.2,1.909,6.68,6.68,0,0,1,.081.989c.005,2.05,0,4.1,0,6.292.3-.163.508-.266.7-.38,2.023-1.168,4.038-2.349,6.072-3.5a2.334,2.334,0,1,1,2.265,4.068c-1.977,1.154-3.967,2.292-5.95,3.44-.206.117-.4.245-.7.421.418.25.771.462,1.124.671,1.575.929,3.155,1.849,4.725,2.792a2.318,2.318,0,0,1-.483,4.266,2.542,2.542,0,0,1-2.132-.4q-3.727-2.208-7.468-4.388a.86.86,0,0,0-.692-.1c-4,2.284-7.981,4.592-12.051,6.946.2.136.348.25.505.339,3.775,2.183,7.557,4.358,11.326,6.561a.851.851,0,0,0,1-.033c2.479-1.477,4.969-2.935,7.454-4.407a2.476,2.476,0,0,1,2.018-.377,2.326,2.326,0,0,1,.562,4.263c-1.431.872-2.884,1.705-4.326,2.555-.489.291-.978.584-1.545.923.253.163.437.293.633.407,2.039,1.179,4.09,2.346,6.121,3.541a2.313,2.313,0,0,1,1.184,2.52,2.227,2.227,0,0,1-1.963,1.795,3.433,3.433,0,0,1-1.743-.426c-1.993-1.086-3.943-2.251-5.909-3.384-.2-.117-.415-.22-.733-.388,0,1.952.008,3.8,0,5.648a13.432,13.432,0,0,1-.084,1.586,2.236,2.236,0,0,1-2.034,1.939,2.291,2.291,0,0,1-2.444-1.608,4.378,4.378,0,0,1-.13-1.176c.024-2.849.065-5.694.106-8.543a.7.7,0,0,0-.361-.752c-3.864-2.21-7.715-4.445-11.568-6.669-.109-.062-.228-.109-.426-.2v.72c0,4.282.011,8.565-.014,12.847A1,1,0,0,0,220.7,355q3.784,2.1,7.544,4.25a2.3,2.3,0,0,1,.774,3.593,2.36,2.36,0,0,1-3.109.434c-1.714-.95-3.416-1.925-5.124-2.889-.187-.1-.377-.2-.679-.367v.787c0,2.273.011,4.546-.005,6.819a2.354,2.354,0,0,1-2.5,2.6,2.27,2.27,0,0,1-2.08-1.741,5.49,5.49,0,0,1-.1-1.116c-.008-2.406-.005-4.809-.005-7.348-.261.136-.44.225-.616.326-1.727.975-3.449,1.958-5.181,2.925a2.37,2.37,0,0,1-3.069-.375,2.308,2.308,0,0,1,.665-3.612c1.656-.967,3.337-1.89,5-2.832.942-.529,1.893-1.045,2.813-1.6a.838.838,0,0,0,.367-.6c.019-4.527.014-9.051.011-13.575a1.413,1.413,0,0,0-.054-.242c-.231.122-.44.225-.644.342-3.7,2.137-7.4,4.285-11.112,6.4a.946.946,0,0,0-.549.98q.086,4.306.117,8.608a2.348,2.348,0,0,1-2.373,2.6,2.171,2.171,0,0,1-2.224-1.942c-.114-1.382-.1-2.775-.122-4.166-.016-.988-.005-1.974-.005-3.058-.288.152-.5.255-.7.372q-2.978,1.719-5.952,3.441a2.34,2.34,0,0,1-2.732-.019,2.312,2.312,0,0,1,.3-3.956c1.779-1.059,3.584-2.075,5.377-3.112.418-.242.834-.486,1.333-.777-.253-.166-.443-.3-.644-.416-1.724-1.021-3.457-2.031-5.178-3.058a2.327,2.327,0,0,1,.505-4.3,2.487,2.487,0,0,1,2.018.375c2.5,1.485,5.01,2.957,7.514,4.437a.692.692,0,0,0,.826.071q5.8-3.381,11.617-6.718c.092-.054.174-.119.32-.223-.209-.133-.364-.245-.527-.337q-5.637-3.258-11.272-6.523a.847.847,0,0,0-1,0q-3.715,2.224-7.457,4.407a2.357,2.357,0,0,1-3.041-.174,2.3,2.3,0,0,1,.483-3.715c1.713-1.043,3.454-2.042,5.181-3.06.2-.12.4-.253.668-.424l-5.67-3.28c-.361-.212-.73-.407-1.086-.63a2.325,2.325,0,1,1,2.314-4.03c1.618.9,3.21,1.847,4.815,2.77.625.361,1.252.717,1.985,1.135,0-.307,0-.513,0-.722.014-1.963,0-3.929.052-5.893.046-1.9,1.572-3.041,3.177-2.422a2.407,2.407,0,0,1,1.5,2.482c-.027,2.8-.052,5.6-.119,8.407a1.19,1.19,0,0,0,.69,1.238c3.658,2.077,7.3,4.2,10.941,6.3.206.119.415.231.7.388.016-.28.041-.486.041-.693,0-4.307-.008-8.611.014-12.915a.953.953,0,0,0-.581-.967q-3.784-2.1-7.544-4.253a2.325,2.325,0,1,1,2.153-4.117c1.762.959,3.5,1.963,5.244,2.946.206.117.418.22.714.375v-2.191c0-1.613.052-3.226-.014-4.834a2.956,2.956,0,0,1,1.7-3.174Z" transform="translate(-9904.238 -16517.791)" fill="#00c3ff"/>
        <path id="Контур_4225" data-name="Контур 4225" d="M218.777,117.034a2.975,2.975,0,0,1,1.7,3.174c-.062,2.072-.016,4.149-.016,6.224v.823l2.094-1.179c1.287-.722,2.566-1.464,3.864-2.164a2.31,2.31,0,0,1,3.049,3.348,3.8,3.8,0,0,1-1.07.861c-2.485,1.426-4.988,2.819-7.468,4.25a.977.977,0,0,0-.451.679c-.024,4.5-.016,9-.016,13.51a2.252,2.252,0,0,0,.041.269c.209-.1.4-.187.578-.291,3.742-2.159,7.476-4.326,11.226-6.471a.909.909,0,0,0,.516-.934c-.054-2.892-.1-5.781-.114-8.673a2.339,2.339,0,0,1,2.409-2.563,2.249,2.249,0,0,1,2.2,1.909,6.682,6.682,0,0,1,.081.988c.005,2.05,0,4.1,0,6.292.3-.163.508-.266.7-.38,2.023-1.168,4.038-2.349,6.072-3.5a2.335,2.335,0,1,1,2.267,4.068c-1.98,1.154-3.97,2.292-5.952,3.441-.206.117-.4.244-.7.421.418.25.771.462,1.124.671,1.575.929,3.155,1.849,4.725,2.792a2.318,2.318,0,0,1-.483,4.266,2.542,2.542,0,0,1-2.132-.4q-3.727-2.208-7.468-4.388a.86.86,0,0,0-.692-.1c-4,2.284-7.981,4.592-12.051,6.946.2.136.348.25.505.339,3.775,2.183,7.557,4.358,11.326,6.561a.851.851,0,0,0,1-.033c2.479-1.477,4.969-2.935,7.454-4.407a2.476,2.476,0,0,1,2.018-.378,2.326,2.326,0,0,1,.562,4.263c-1.431.872-2.884,1.705-4.326,2.555-.489.291-.978.584-1.545.926.253.16.437.29.633.4,2.039,1.181,4.09,2.346,6.121,3.541a2.313,2.313,0,0,1,1.184,2.52A2.227,2.227,0,0,1,245.794,169a3.434,3.434,0,0,1-1.743-.426c-1.993-1.086-3.943-2.251-5.909-3.384-.2-.117-.416-.22-.733-.388,0,1.952.008,3.8,0,5.648a13.419,13.419,0,0,1-.084,1.586,2.236,2.236,0,0,1-2.034,1.939,2.291,2.291,0,0,1-2.444-1.608,4.382,4.382,0,0,1-.13-1.176c.024-2.849.065-5.694.106-8.543a.7.7,0,0,0-.361-.752c-3.864-2.21-7.715-4.445-11.568-6.669-.109-.062-.228-.109-.426-.2v.72c0,4.282.011,8.565-.014,12.847a1,1,0,0,0,.608,1.018q3.788,2.1,7.544,4.25a2.3,2.3,0,0,1,.774,3.593,2.357,2.357,0,0,1-3.109.434c-1.713-.95-3.416-1.925-5.124-2.889-.187-.1-.378-.2-.679-.367v.787c0,2.273.011,4.546-.005,6.819a2.354,2.354,0,0,1-2.5,2.6,2.27,2.27,0,0,1-2.08-1.741,5.49,5.49,0,0,1-.1-1.116c-.008-2.406-.005-4.809-.005-7.348-.261.136-.44.225-.616.326-1.727.975-3.449,1.958-5.181,2.925a2.37,2.37,0,0,1-3.069-.375,2.308,2.308,0,0,1,.665-3.612c1.656-.967,3.337-1.89,5-2.832.942-.529,1.893-1.045,2.813-1.6a.838.838,0,0,0,.367-.6c.019-4.527.014-9.051.011-13.575a1.414,1.414,0,0,0-.054-.242c-.231.122-.44.225-.644.342-3.7,2.137-7.4,4.285-11.112,6.4a.946.946,0,0,0-.549.98q.086,4.305.117,8.608a2.348,2.348,0,0,1-2.373,2.6,2.171,2.171,0,0,1-2.224-1.942c-.114-1.382-.1-2.775-.122-4.166-.016-.988-.005-1.974-.005-3.058-.288.152-.5.255-.7.372q-2.978,1.719-5.952,3.44a2.34,2.34,0,0,1-2.732-.019,2.312,2.312,0,0,1,.3-3.957c1.779-1.059,3.584-2.075,5.377-3.112.418-.242.834-.486,1.333-.777-.253-.163-.443-.3-.644-.415-1.724-1.021-3.457-2.031-5.178-3.058a2.327,2.327,0,0,1,.505-4.3,2.486,2.486,0,0,1,2.018.375c2.5,1.485,5.01,2.957,7.514,4.437a.692.692,0,0,0,.826.071q5.8-3.381,11.617-6.718c.092-.054.174-.12.32-.223-.209-.133-.364-.242-.527-.337q-5.637-3.259-11.272-6.523a.847.847,0,0,0-1,0q-3.715,2.224-7.457,4.407a2.357,2.357,0,0,1-3.041-.174,2.3,2.3,0,0,1,.483-3.715c1.713-1.043,3.454-2.042,5.181-3.06.2-.119.4-.253.668-.424l-5.67-3.28c-.361-.212-.73-.407-1.086-.63a2.325,2.325,0,1,1,2.314-4.03c1.618.9,3.21,1.847,4.815,2.77.625.361,1.252.717,1.985,1.135,0-.3,0-.513,0-.722.014-1.963,0-3.929.052-5.893.046-1.9,1.572-3.041,3.177-2.422a2.407,2.407,0,0,1,1.5,2.482c-.027,2.8-.052,5.6-.119,8.407a1.19,1.19,0,0,0,.69,1.238c3.661,2.077,7.3,4.2,10.941,6.3.206.119.415.231.7.388.016-.28.041-.486.041-.692,0-4.3-.008-8.611.014-12.915a.953.953,0,0,0-.581-.967q-3.784-2.1-7.544-4.252a2.325,2.325,0,1,1,2.153-4.117c1.762.959,3.5,1.963,5.246,2.946.2.117.415.22.711.375v-2.191c0-1.613.052-3.226-.014-4.834a2.955,2.955,0,0,1,1.7-3.174Z" transform="translate(-9903.631 -16835.826)" fill="#00c3ff"/>
        <path id="Контур_4228" data-name="Контур 4228" d="M596.135,95.217a2.974,2.974,0,0,1,1.7,3.174c-.062,2.072-.016,4.149-.016,6.224v.823l2.094-1.179c1.287-.722,2.563-1.464,3.864-2.164a2.31,2.31,0,0,1,3.05,3.348,3.8,3.8,0,0,1-1.07.861c-2.485,1.426-4.989,2.819-7.468,4.25a.976.976,0,0,0-.451.679c-.024,4.5-.016,9-.016,13.51a2.332,2.332,0,0,0,.041.269c.209-.1.4-.187.578-.291,3.742-2.159,7.476-4.326,11.226-6.471a.909.909,0,0,0,.516-.934c-.054-2.892-.1-5.781-.114-8.673a2.339,2.339,0,0,1,2.409-2.563,2.249,2.249,0,0,1,2.2,1.909,6.67,6.67,0,0,1,.081.988c.006,2.05,0,4.1,0,6.292.3-.163.508-.266.7-.38,2.023-1.168,4.038-2.349,6.072-3.5a2.335,2.335,0,1,1,2.268,4.068c-1.98,1.154-3.97,2.292-5.953,3.441-.206.117-.4.244-.7.421.418.25.771.462,1.124.668,1.575.931,3.155,1.852,4.725,2.794a2.318,2.318,0,0,1-.484,4.266,2.542,2.542,0,0,1-2.131-.4q-3.727-2.208-7.468-4.388a.86.86,0,0,0-.692-.1c-4,2.284-7.981,4.592-12.051,6.946.2.136.348.25.505.339,3.775,2.183,7.557,4.358,11.326,6.561a.851.851,0,0,0,1-.033c2.479-1.477,4.969-2.935,7.454-4.407a2.475,2.475,0,0,1,2.017-.377,2.326,2.326,0,0,1,.562,4.263c-1.431.869-2.884,1.705-4.326,2.555-.489.291-.978.584-1.545.923.253.163.437.293.633.407,2.039,1.179,4.089,2.346,6.121,3.541a2.313,2.313,0,0,1,1.184,2.52,2.227,2.227,0,0,1-1.963,1.795,3.435,3.435,0,0,1-1.743-.426c-1.993-1.086-3.943-2.251-5.909-3.384-.2-.117-.416-.22-.733-.388,0,1.952.008,3.8,0,5.648a13.472,13.472,0,0,1-.084,1.586,2.236,2.236,0,0,1-2.034,1.939,2.291,2.291,0,0,1-2.444-1.608,4.381,4.381,0,0,1-.13-1.176c.025-2.849.065-5.694.106-8.543a.7.7,0,0,0-.361-.752c-3.864-2.21-7.715-4.445-11.568-6.669-.109-.062-.228-.109-.426-.2v.72c0,4.282.011,8.565-.014,12.847a1,1,0,0,0,.608,1.018q3.784,2.1,7.544,4.25a2.3,2.3,0,0,1,.774,3.593,2.357,2.357,0,0,1-3.109.434c-1.714-.95-3.416-1.925-5.124-2.889-.187-.1-.377-.2-.679-.367v.785c0,2.276.011,4.548-.005,6.821a2.354,2.354,0,0,1-2.5,2.6,2.27,2.27,0,0,1-2.08-1.741,5.481,5.481,0,0,1-.1-1.116c-.008-2.406-.005-4.809-.005-7.348-.261.136-.44.225-.616.326-1.727.975-3.449,1.958-5.181,2.925a2.37,2.37,0,0,1-3.068-.375,2.308,2.308,0,0,1,.665-3.612c1.656-.967,3.337-1.89,5-2.832.942-.53,1.893-1.045,2.813-1.6a.838.838,0,0,0,.367-.6c.019-4.527.013-9.051.011-13.575a1.407,1.407,0,0,0-.054-.242c-.231.122-.44.225-.644.342-3.7,2.137-7.4,4.285-11.112,6.4a.944.944,0,0,0-.549.98q.086,4.305.117,8.608a2.348,2.348,0,0,1-2.373,2.6,2.171,2.171,0,0,1-2.224-1.942c-.114-1.382-.1-2.775-.122-4.166-.019-.988-.005-1.974-.005-3.058-.288.152-.5.255-.7.372q-2.978,1.719-5.952,3.441a2.34,2.34,0,0,1-2.732-.019,2.312,2.312,0,0,1,.3-3.956c1.779-1.059,3.584-2.075,5.377-3.112.418-.242.834-.486,1.333-.777-.253-.166-.443-.3-.644-.415-1.724-1.021-3.457-2.031-5.179-3.058a2.327,2.327,0,0,1,.505-4.3,2.486,2.486,0,0,1,2.017.375c2.5,1.485,5.01,2.957,7.514,4.437a.692.692,0,0,0,.825.071q5.8-3.381,11.617-6.718c.092-.054.174-.12.32-.223-.209-.133-.364-.244-.527-.337q-5.637-3.259-11.272-6.523a.847.847,0,0,0-1,0q-3.715,2.224-7.457,4.407a2.357,2.357,0,0,1-3.041-.174,2.3,2.3,0,0,1,.483-3.715c1.713-1.043,3.454-2.042,5.181-3.06.2-.119.394-.253.665-.424l-5.667-3.28c-.361-.212-.731-.407-1.086-.63a2.325,2.325,0,1,1,2.314-4.03c1.616.9,3.21,1.847,4.815,2.77.625.361,1.252.717,1.985,1.135,0-.307,0-.513,0-.722.014-1.963,0-3.929.052-5.893.046-1.9,1.572-3.041,3.177-2.422a2.407,2.407,0,0,1,1.5,2.482c-.027,2.8-.052,5.6-.12,8.407a1.19,1.19,0,0,0,.69,1.238c3.658,2.077,7.3,4.2,10.941,6.3.206.119.415.231.7.388.016-.28.041-.486.041-.692,0-4.307-.008-8.611.014-12.915a.953.953,0,0,0-.581-.967q-3.784-2.1-7.544-4.252a2.325,2.325,0,1,1,2.153-4.117c1.762.959,3.5,1.963,5.244,2.946.206.117.418.22.714.375v-2.191c0-1.613.049-3.226-.014-4.834a2.955,2.955,0,0,1,1.7-3.174Z" transform="translate(-9256.271 -16873.252)" fill="#00c3ff"/>
        <path id="Контур_4229" data-name="Контур 4229" d="M452.186,107.164a1.71,1.71,0,0,1,.98,1.828c-.038,1.192-.011,2.387-.011,3.582v.473l1.206-.676c.741-.418,1.477-.842,2.224-1.246a1.329,1.329,0,0,1,1.754,1.928,2.177,2.177,0,0,1-.614.494c-1.431.82-2.87,1.621-4.3,2.447a.548.548,0,0,0-.258.388c-.016,2.593-.011,5.184-.011,7.777a1.234,1.234,0,0,0,.024.155c.119-.06.228-.109.331-.168,2.153-1.241,4.3-2.49,6.46-3.723a.524.524,0,0,0,.3-.538q-.049-2.5-.068-4.994a1.347,1.347,0,0,1,1.388-1.475,1.3,1.3,0,0,1,1.268,1.1,3.963,3.963,0,0,1,.043.568c.005,1.181,0,2.362,0,3.623.177-.1.293-.152.407-.22,1.162-.671,2.322-1.352,3.492-2.015a1.344,1.344,0,1,1,1.306,2.341c-1.141.665-2.287,1.322-3.427,1.982-.117.068-.234.139-.4.242.239.144.443.266.646.386.907.535,1.817,1.064,2.718,1.6a1.336,1.336,0,0,1-.277,2.458,1.46,1.46,0,0,1-1.228-.234q-2.142-1.271-4.3-2.525a.487.487,0,0,0-.4-.057c-2.3,1.314-4.595,2.642-6.935,4,.114.079.2.144.288.2,2.175,1.257,4.353,2.509,6.52,3.775a.484.484,0,0,0,.576-.016c1.428-.853,2.862-1.692,4.291-2.539a1.429,1.429,0,0,1,1.162-.215,1.337,1.337,0,0,1,.323,2.452c-.823.5-1.659.98-2.49,1.472-.28.166-.562.337-.888.532.144.092.253.168.364.231,1.173.682,2.354,1.352,3.522,2.039a1.329,1.329,0,0,1,.682,1.45,1.281,1.281,0,0,1-1.13,1.035,1.973,1.973,0,0,1-1-.247c-1.149-.625-2.27-1.293-3.4-1.947-.117-.065-.239-.125-.421-.223,0,1.124,0,2.189,0,3.25a7.284,7.284,0,0,1-.049.912,1.286,1.286,0,0,1-1.17,1.116,1.315,1.315,0,0,1-1.4-.926,2.347,2.347,0,0,1-.076-.676c.014-1.637.038-3.278.06-4.915a.405.405,0,0,0-.209-.434c-2.221-1.271-4.437-2.558-6.656-3.84-.062-.035-.133-.06-.247-.114v.413c0,2.466.008,4.931-.008,7.394a.58.58,0,0,0,.35.587q2.179,1.21,4.342,2.447a1.325,1.325,0,0,1,.448,2.066,1.358,1.358,0,0,1-1.789.253c-.989-.549-1.969-1.108-2.952-1.665-.106-.06-.217-.117-.391-.212v.454c0,1.309.008,2.618,0,3.927a1.355,1.355,0,0,1-1.442,1.5,1.3,1.3,0,0,1-1.195-1,3.007,3.007,0,0,1-.06-.644c-.006-1.382,0-2.767,0-4.228-.149.079-.255.13-.356.187-.994.562-1.985,1.127-2.982,1.684a1.371,1.371,0,0,1-1.768-.215,1.331,1.331,0,0,1,.386-2.08c.95-.557,1.92-1.086,2.881-1.629.54-.3,1.086-.6,1.619-.923a.493.493,0,0,0,.209-.345c.014-2.6.008-5.208.008-7.813a.772.772,0,0,0-.033-.139c-.133.068-.253.128-.369.2-2.132,1.23-4.258,2.466-6.4,3.685a.548.548,0,0,0-.315.565c.035,1.651.054,3.3.068,4.956a1.349,1.349,0,0,1-1.366,1.494,1.249,1.249,0,0,1-1.282-1.116c-.065-.8-.057-1.6-.071-2.4-.008-.568,0-1.138,0-1.76-.168.087-.288.147-.4.215q-1.715.986-3.427,1.98a1.345,1.345,0,0,1-1.57-.011,1.33,1.33,0,0,1,.171-2.278c1.024-.608,2.064-1.195,3.1-1.79.239-.138.478-.28.766-.448-.144-.1-.255-.171-.369-.239-.994-.587-1.99-1.17-2.982-1.76a1.3,1.3,0,0,1-.69-1.374,1.28,1.28,0,0,1,.98-1.1,1.43,1.43,0,0,1,1.162.215c1.439.855,2.884,1.7,4.323,2.555a.4.4,0,0,0,.475.038c2.224-1.3,4.456-2.58,6.688-3.867.052-.03.1-.068.182-.128-.119-.076-.209-.138-.3-.193q-3.246-1.878-6.487-3.756a.493.493,0,0,0-.578,0q-2.138,1.283-4.29,2.536a1.357,1.357,0,0,1-1.751-.1,1.327,1.327,0,0,1,.28-2.14c.986-.6,1.985-1.173,2.979-1.76.117-.071.228-.147.386-.244-1.119-.649-2.191-1.268-3.261-1.89-.209-.119-.421-.234-.627-.361a1.338,1.338,0,1,1,1.333-2.319c.929.521,1.847,1.062,2.77,1.594.358.209.722.413,1.143.654,0-.177,0-.3,0-.415.008-1.132,0-2.262.03-3.392a1.355,1.355,0,0,1,1.827-1.4,1.387,1.387,0,0,1,.866,1.428c-.013,1.613-.03,3.226-.068,4.839a.681.681,0,0,0,.4.711c2.1,1.2,4.2,2.417,6.3,3.625.119.071.239.133.4.223.011-.16.024-.28.024-.4,0-2.479-.005-4.956.008-7.432a.555.555,0,0,0-.334-.559c-1.453-.8-2.9-1.624-4.342-2.447a1.338,1.338,0,1,1,1.238-2.368c1.016.551,2.012,1.13,3.02,1.694.117.068.239.128.41.217v-1.263c0-.929.027-1.855-.008-2.781a1.7,1.7,0,0,1,.978-1.828Z" transform="translate(-9481.115 -16852.758)" fill="#00c3ff"/>
        <path id="Контур_4230" data-name="Контур 4230" d="M64.089,311.768a2.155,2.155,0,0,1,1.236,2.305c-.046,1.5-.011,3.012-.011,4.519v.6l1.521-.855c.934-.524,1.863-1.062,2.805-1.572a1.678,1.678,0,0,1,2.213,2.433,2.731,2.731,0,0,1-.777.625c-1.8,1.035-3.62,2.047-5.423,3.085a.715.715,0,0,0-.326.494c-.019,3.269-.014,6.539-.011,9.808,0,.046.014.1.027.2.152-.076.291-.136.421-.212,2.718-1.567,5.428-3.142,8.152-4.7a.657.657,0,0,0,.375-.679q-.061-3.149-.084-6.3a1.7,1.7,0,0,1,1.749-1.86,1.635,1.635,0,0,1,1.6,1.385,4.529,4.529,0,0,1,.057.717c.005,1.491,0,2.982,0,4.57.223-.119.369-.193.513-.274,1.469-.85,2.93-1.708,4.407-2.544a1.7,1.7,0,1,1,1.646,2.954c-1.437.839-2.881,1.665-4.323,2.5-.147.084-.291.177-.5.307.3.179.559.334.815.483,1.146.676,2.292,1.344,3.432,2.029a1.684,1.684,0,0,1-.35,3.1,1.849,1.849,0,0,1-1.551-.293q-2.7-1.6-5.42-3.188a.627.627,0,0,0-.5-.071c-2.9,1.656-5.8,3.335-8.752,5.043.147.1.253.182.367.247,2.743,1.586,5.488,3.164,8.223,4.763a.615.615,0,0,0,.728-.022c1.8-1.075,3.612-2.134,5.415-3.2a1.8,1.8,0,0,1,1.464-.274,1.689,1.689,0,0,1,.41,3.1c-1.04.633-2.094,1.238-3.142,1.855-.356.212-.709.426-1.121.673.182.117.318.212.459.293,1.483.858,2.971,1.7,4.445,2.571a1.676,1.676,0,0,1,.858,1.83,1.615,1.615,0,0,1-1.423,1.3,2.513,2.513,0,0,1-1.268-.31c-1.447-.79-2.862-1.635-4.29-2.457-.147-.084-.3-.16-.532-.282,0,1.42.005,2.762,0,4.1a9.021,9.021,0,0,1-.06,1.149,1.624,1.624,0,0,1-1.477,1.409,1.661,1.661,0,0,1-1.773-1.168,3.091,3.091,0,0,1-.1-.853c.016-2.069.046-4.136.076-6.2a.517.517,0,0,0-.263-.549q-4.208-2.407-8.4-4.842c-.079-.046-.166-.079-.31-.147v.521c0,3.109.008,6.221-.011,9.331a.722.722,0,0,0,.443.739q2.749,1.523,5.477,3.087a1.671,1.671,0,0,1,.562,2.607,1.711,1.711,0,0,1-2.257.318c-1.244-.692-2.482-1.4-3.72-2.1-.138-.076-.277-.149-.494-.266v.57c0,1.651.008,3.3,0,4.953a1.709,1.709,0,0,1-1.819,1.887,1.643,1.643,0,0,1-1.51-1.263,4.054,4.054,0,0,1-.076-.812c-.005-1.746,0-3.492,0-5.336-.19.1-.32.166-.448.239-1.255.706-2.5,1.423-3.761,2.123a1.728,1.728,0,0,1-2.229-.271,1.676,1.676,0,0,1,.483-2.623c1.2-.7,2.422-1.371,3.633-2.056.684-.386,1.374-.76,2.045-1.168a.621.621,0,0,0,.266-.435c.014-3.286.008-6.571.005-9.857a.913.913,0,0,0-.041-.174c-.166.09-.318.163-.464.247-2.688,1.553-5.374,3.112-8.07,4.649a.688.688,0,0,0-.4.714q.061,3.124.084,6.251a1.707,1.707,0,0,1-1.724,1.887,1.58,1.58,0,0,1-1.616-1.412c-.081-1-.071-2.015-.09-3.022-.011-.717,0-1.437,0-2.221-.212.111-.364.185-.511.272q-2.163,1.246-4.323,2.5a1.7,1.7,0,0,1-1.982-.014,1.676,1.676,0,0,1,.217-2.87c1.293-.771,2.6-1.51,3.9-2.262.3-.174.6-.353.967-.565-.182-.117-.32-.215-.467-.3-1.255-.741-2.512-1.474-3.761-2.221a1.688,1.688,0,0,1,.367-3.117,1.809,1.809,0,0,1,1.466.271q2.725,1.617,5.455,3.223a.5.5,0,0,0,.6.049q4.208-2.452,8.434-4.877c.068-.038.125-.087.231-.16-.149-.1-.261-.176-.38-.247q-4.094-2.362-8.185-4.736a.619.619,0,0,0-.728,0c-1.8,1.078-3.606,2.14-5.415,3.2a1.718,1.718,0,0,1-2.21-.125,1.675,1.675,0,0,1,.353-2.7c1.244-.758,2.506-1.483,3.761-2.221.147-.087.288-.185.486-.31l-4.117-2.382c-.263-.152-.532-.3-.79-.456a1.688,1.688,0,1,1,1.681-2.925c1.173.654,2.33,1.339,3.495,2.009.453.263.91.521,1.442.826V325.8c.011-1.426,0-2.851.038-4.28a1.708,1.708,0,0,1,2.305-1.757,1.747,1.747,0,0,1,1.094,1.8c-.019,2.037-.038,4.073-.087,6.107a.861.861,0,0,0,.5.9c2.658,1.51,5.3,3.047,7.946,4.576.149.087.3.168.505.28.011-.2.03-.353.03-.5,0-3.125-.005-6.251.008-9.377a.694.694,0,0,0-.421-.7q-2.749-1.523-5.477-3.088a1.688,1.688,0,1,1,1.564-2.987c1.279.692,2.539,1.426,3.807,2.137.149.084.3.16.519.272v-1.591c0-1.17.035-2.341-.011-3.508a2.145,2.145,0,0,1,1.236-2.305Z" transform="translate(-10154.739 -16501.756)" fill="#00c3ff"/>
        <path id="Контур_4232" data-name="Контур 4232" d="M609.587,117.589v0Z" transform="translate(-9181.125 -16839.76)" fill="#00a9e0"/>
        <path id="Контур_4233" data-name="Контур 4233" d="M610.115,119.1v0Z" transform="translate(-9180.219 -16841.271)" fill="#00a9e0"/>
        <path id="Контур_4234" data-name="Контур 4234" d="M610.643,120.769v0Z" transform="translate(-9179.313 -16842.941)" fill="#00a9e0"/>
        <path id="Контур_4235" data-name="Контур 4235" d="M611.17,122.514v0Z" transform="translate(-9178.408 -16844.686)" fill="#00a9e0"/>
        <path id="Контур_4236" data-name="Контур 4236" d="M611.7,123.953v0Z" transform="translate(-9177.502 -16846.123)" fill="#00a9e0"/>
        <path id="Контур_4237" data-name="Контур 4237" d="M612.226,125.115v0Z" transform="translate(-9176.597 -16847.287)" fill="#00a9e0"/>
        <path id="Контур_4238" data-name="Контур 4238" d="M612.754,125.115v0Z" transform="translate(-9175.69 -16847.287)" fill="#00a9e0"/>
        <path id="Контур_4239" data-name="Контур 4239" d="M613.282,123.953v0Z" transform="translate(-9174.785 -16846.123)" fill="#00a9e0"/>
        <path id="Контур_4240" data-name="Контур 4240" d="M613.81,122.514v0Z" transform="translate(-9173.879 -16844.686)" fill="#00a9e0"/>
        <path id="Контур_4241" data-name="Контур 4241" d="M614.337,120.769v0Z" transform="translate(-9172.976 -16842.941)" fill="#00a9e0"/>
        <path id="Контур_4242" data-name="Контур 4242" d="M614.866,119.1v0Z" transform="translate(-9172.067 -16841.271)" fill="#00a9e0"/>
        <path id="Контур_4243" data-name="Контур 4243" d="M615.393,117.589v0Z" transform="translate(-9171.164 -16839.76)" fill="#00a9e0"/>
        <path id="Контур_4244" data-name="Контур 4244" d="M609.851,123.913v0Z" transform="translate(-9180.672 -16828.91)" fill="#00a9e0"/>
        <path id="Контур_4245" data-name="Контур 4245" d="M610.379,125.422v0Z" transform="translate(-9179.766 -16830.422)" fill="#00a9e0"/>
        <path id="Контур_4246" data-name="Контур 4246" d="M610.906,127.091v0Z" transform="translate(-9178.861 -16832.09)" fill="#00a9e0"/>
        <path id="Контур_4247" data-name="Контур 4247" d="M611.435,128.836v0Z" transform="translate(-9177.954 -16833.834)" fill="#00a9e0"/>
        <path id="Контур_4248" data-name="Контур 4248" d="M611.962,130.275v0Z" transform="translate(-9177.05 -16835.275)" fill="#00a9e0"/>
        <path id="Контур_4249" data-name="Контур 4249" d="M612.49,131.438v0Z" transform="translate(-9176.144 -16836.436)" fill="#00a9e0"/>
        <path id="Контур_4250" data-name="Контур 4250" d="M613.018,131.438v0Z" transform="translate(-9175.237 -16836.436)" fill="#00a9e0"/>
        <path id="Контур_4251" data-name="Контур 4251" d="M613.546,130.275v0Z" transform="translate(-9174.332 -16835.275)" fill="#00a9e0"/>
        <path id="Контур_4252" data-name="Контур 4252" d="M614.074,128.836v0Z" transform="translate(-9173.426 -16833.834)" fill="#00a9e0"/>
        <path id="Контур_4253" data-name="Контур 4253" d="M614.6,127.091v0Z" transform="translate(-9172.521 -16832.09)" fill="#00a9e0"/>
        <path id="Контур_4254" data-name="Контур 4254" d="M615.129,125.422v0Z" transform="translate(-9171.617 -16830.422)" fill="#00a9e0"/>
        <path id="Контур_4255" data-name="Контур 4255" d="M615.658,123.913v0Z" transform="translate(-9170.708 -16828.91)" fill="#00a9e0"/>
        <path id="Контур_4256" data-name="Контур 4256" d="M609.851,129.921v0Z" transform="translate(-9180.672 -16818.607)" fill="#00a9e0"/>
        <path id="Контур_4257" data-name="Контур 4257" d="M610.379,131.429v0Z" transform="translate(-9179.766 -16820.117)" fill="#00a9e0"/>
        <path id="Контур_4258" data-name="Контур 4258" d="M610.906,133.1v0Z" transform="translate(-9178.861 -16821.787)" fill="#00a9e0"/>
        <path id="Контур_4259" data-name="Контур 4259" d="M611.435,134.845v0Z" transform="translate(-9177.954 -16823.531)" fill="#00a9e0"/>
        <path id="Контур_4260" data-name="Контур 4260" d="M611.962,136.284v0Z" transform="translate(-9177.05 -16824.969)" fill="#00a9e0"/>
        <path id="Контур_4261" data-name="Контур 4261" d="M612.49,137.445v0Z" transform="translate(-9176.144 -16826.133)" fill="#00a9e0"/>
        <path id="Контур_4262" data-name="Контур 4262" d="M613.018,137.445v0Z" transform="translate(-9175.237 -16826.133)" fill="#00a9e0"/>
        <path id="Контур_4263" data-name="Контур 4263" d="M613.546,136.284v0Z" transform="translate(-9174.332 -16824.969)" fill="#00a9e0"/>
        <path id="Контур_4264" data-name="Контур 4264" d="M614.074,134.845v0Z" transform="translate(-9173.426 -16823.531)" fill="#00a9e0"/>
        <path id="Контур_4265" data-name="Контур 4265" d="M614.6,133.1v0Z" transform="translate(-9172.521 -16821.787)" fill="#00a9e0"/>
        <path id="Контур_4266" data-name="Контур 4266" d="M615.129,131.429v0Z" transform="translate(-9171.617 -16820.117)" fill="#00a9e0"/>
        <path id="Контур_4267" data-name="Контур 4267" d="M615.658,129.921v0Z" transform="translate(-9170.708 -16818.607)" fill="#00a9e0"/>
        <path id="Контур_4268" data-name="Контур 4268" d="M122.939,177.372v0Z" transform="translate(-10015.973 -16743.559)" fill="#00a9e0"/>
        <path id="Контур_4269" data-name="Контур 4269" d="M124.153,180.841v0Z" transform="translate(-10013.889 -16747.027)" fill="#00a9e0"/>
        <path id="Контур_4270" data-name="Контур 4270" d="M125.367,184.685v0Z" transform="translate(-10011.807 -16750.873)" fill="#00a9e0"/>
        <path id="Контур_4271" data-name="Контур 4271" d="M126.581,188.7v0Z" transform="translate(-10009.724 -16754.883)" fill="#00a9e0"/>
        <path id="Контур_4272" data-name="Контур 4272" d="M127.8,192.009v0Z" transform="translate(-10007.639 -16758.195)" fill="#00a9e0"/>
        <path id="Контур_4273" data-name="Контур 4273" d="M129.01,194.68v0Z" transform="translate(-10005.557 -16760.867)" fill="#00a9e0"/>
        <path id="Контур_4274" data-name="Контур 4274" d="M130.224,194.68v0Z" transform="translate(-10003.475 -16760.867)" fill="#00a9e0"/>
        <path id="Контур_4275" data-name="Контур 4275" d="M131.438,192.009v0Z" transform="translate(-10001.392 -16758.195)" fill="#00a9e0"/>
        <path id="Контур_4276" data-name="Контур 4276" d="M132.652,188.7v0Z" transform="translate(-9999.31 -16754.883)" fill="#00a9e0"/>
        <path id="Контур_4277" data-name="Контур 4277" d="M133.866,184.685v0Z" transform="translate(-9997.228 -16750.873)" fill="#00a9e0"/>
        <path id="Контур_4278" data-name="Контур 4278" d="M135.08,180.841v0Z" transform="translate(-9995.144 -16747.027)" fill="#00a9e0"/>
        <path id="Контур_4279" data-name="Контур 4279" d="M136.294,177.372v0Z" transform="translate(-9993.061 -16743.559)" fill="#00a9e0"/>
        <path id="Контур_4280" data-name="Контур 4280" d="M123.547,191.92v0Z" transform="translate(-10014.929 -16718.605)" fill="#00a9e0"/>
        <path id="Контур_4281" data-name="Контур 4281" d="M124.761,195.389v0Z" transform="translate(-10012.847 -16722.074)" fill="#00a9e0"/>
        <path id="Контур_4282" data-name="Контур 4282" d="M125.975,199.231v0Z" transform="translate(-10010.764 -16725.918)" fill="#00a9e0"/>
        <path id="Контур_4283" data-name="Контур 4283" d="M127.188,203.244v0Z" transform="translate(-10008.683 -16729.93)" fill="#00a9e0"/>
        <path id="Контур_4284" data-name="Контур 4284" d="M128.4,206.557v0Z" transform="translate(-10006.601 -16733.244)" fill="#00a9e0"/>
        <path id="Контур_4285" data-name="Контур 4285" d="M129.616,209.226v0Z" transform="translate(-10004.519 -16735.914)" fill="#00a9e0"/>
        <path id="Контур_4286" data-name="Контур 4286" d="M130.83,209.226v0Z" transform="translate(-10002.435 -16735.914)" fill="#00a9e0"/>
        <path id="Контур_4287" data-name="Контур 4287" d="M132.044,206.557v0Z" transform="translate(-10000.352 -16733.244)" fill="#00a9e0"/>
        <path id="Контур_4288" data-name="Контур 4288" d="M133.258,203.244v0Z" transform="translate(-9998.27 -16729.93)" fill="#00a9e0"/>
        <path id="Контур_4289" data-name="Контур 4289" d="M134.473,199.231v0Z" transform="translate(-9996.185 -16725.918)" fill="#00a9e0"/>
        <path id="Контур_4290" data-name="Контур 4290" d="M135.687,195.389v0Z" transform="translate(-9994.102 -16722.074)" fill="#00a9e0"/>
        <path id="Контур_4291" data-name="Контур 4291" d="M136.9,191.92v0Z" transform="translate(-9992.02 -16718.605)" fill="#00a9e0"/>
        <path id="Контур_4292" data-name="Контур 4292" d="M123.547,205.735v0Z" transform="translate(-10014.929 -16694.906)" fill="#00a9e0"/>
        <path id="Контур_4293" data-name="Контур 4293" d="M124.761,209.2v0Z" transform="translate(-10012.847 -16698.375)" fill="#00a9e0"/>
        <path id="Контур_4294" data-name="Контур 4294" d="M125.975,213.048v0Z" transform="translate(-10010.764 -16702.221)" fill="#00a9e0"/>
        <path id="Контур_4295" data-name="Контур 4295" d="M127.188,217.059v0Z" transform="translate(-10008.683 -16706.23)" fill="#00a9e0"/>
        <path id="Контур_4296" data-name="Контур 4296" d="M128.4,220.372v0Z" transform="translate(-10006.601 -16709.545)" fill="#00a9e0"/>
        <path id="Контур_4297" data-name="Контур 4297" d="M129.616,223.043v0Z" transform="translate(-10004.519 -16712.215)" fill="#00a9e0"/>
        <path id="Контур_4298" data-name="Контур 4298" d="M130.83,223.043v0Z" transform="translate(-10002.435 -16712.215)" fill="#00a9e0"/>
        <path id="Контур_4299" data-name="Контур 4299" d="M132.044,220.372v0Z" transform="translate(-10000.352 -16709.545)" fill="#00a9e0"/>
        <path id="Контур_4300" data-name="Контур 4300" d="M133.258,217.059v0Z" transform="translate(-9998.27 -16706.23)" fill="#00a9e0"/>
        <path id="Контур_4301" data-name="Контур 4301" d="M134.473,213.048v0Z" transform="translate(-9996.185 -16702.221)" fill="#00a9e0"/>
        <path id="Контур_4302" data-name="Контур 4302" d="M135.687,209.2v0Z" transform="translate(-9994.102 -16698.375)" fill="#00a9e0"/>
        <path id="Контур_4303" data-name="Контур 4303" d="M136.9,205.735v0Z" transform="translate(-9992.02 -16694.906)" fill="#00a9e0"/>
        <path id="Контур_4304" data-name="Контур 4304" d="M418.32,197.939v0Z" transform="translate(-9509.244 -16702.412)" fill="#00a9e0"/>
        <path id="Контур_4305" data-name="Контур 4305" d="M418.9,199.6v0Z" transform="translate(-9508.247 -16704.07)" fill="#00a9e0"/>
        <path id="Контур_4306" data-name="Контур 4306" d="M419.481,201.437v0Z" transform="translate(-9507.253 -16705.91)" fill="#00a9e0"/>
        <path id="Контур_4307" data-name="Контур 4307" d="M420.061,203.355v0Z" transform="translate(-9506.257 -16707.828)" fill="#00a9e0"/>
        <path id="Контур_4308" data-name="Контур 4308" d="M420.642,204.939v0Z" transform="translate(-9505.26 -16709.41)" fill="#00a9e0"/>
        <path id="Контур_4309" data-name="Контур 4309" d="M421.223,206.217v0Z" transform="translate(-9504.265 -16710.689)" fill="#00a9e0"/>
        <path id="Контур_4310" data-name="Контур 4310" d="M421.8,206.217v0Z" transform="translate(-9503.268 -16710.689)" fill="#00a9e0"/>
        <path id="Контур_4311" data-name="Контур 4311" d="M422.384,204.939v0Z" transform="translate(-9502.271 -16709.41)" fill="#00a9e0"/>
        <path id="Контур_4312" data-name="Контур 4312" d="M422.965,203.355v0Z" transform="translate(-9501.274 -16707.828)" fill="#00a9e0"/>
        <path id="Контур_4313" data-name="Контур 4313" d="M423.545,201.437v0Z" transform="translate(-9500.28 -16705.91)" fill="#00a9e0"/>
        <path id="Контур_4314" data-name="Контур 4314" d="M424.126,199.6v0Z" transform="translate(-9499.283 -16704.07)" fill="#00a9e0"/>
        <path id="Контур_4315" data-name="Контур 4315" d="M424.706,197.939v0Z" transform="translate(-9498.289 -16702.412)" fill="#00a9e0"/>
        <path id="Контур_4316" data-name="Контур 4316" d="M418.61,204.9v0Z" transform="translate(-9508.747 -16690.479)" fill="#00a9e0"/>
        <path id="Контур_4317" data-name="Контур 4317" d="M419.19,206.554v0Z" transform="translate(-9507.751 -16692.139)" fill="#00a9e0"/>
        <path id="Контур_4318" data-name="Контур 4318" d="M419.772,208.392v0Z" transform="translate(-9506.753 -16693.977)" fill="#00a9e0"/>
        <path id="Контур_4319" data-name="Контур 4319" d="M420.352,210.311v0Z" transform="translate(-9505.759 -16695.895)" fill="#00a9e0"/>
        <path id="Контур_4320" data-name="Контур 4320" d="M420.933,211.895v0Z" transform="translate(-9504.762 -16697.479)" fill="#00a9e0"/>
        <path id="Контур_4321" data-name="Контур 4321" d="M421.513,213.173v0Z" transform="translate(-9503.766 -16698.758)" fill="#00a9e0"/>
        <path id="Контур_4322" data-name="Контур 4322" d="M422.094,213.173v0Z" transform="translate(-9502.771 -16698.758)" fill="#00a9e0"/>
        <path id="Контур_4323" data-name="Контур 4323" d="M422.674,211.895v0Z" transform="translate(-9501.774 -16697.479)" fill="#00a9e0"/>
        <path id="Контур_4324" data-name="Контур 4324" d="M423.256,210.311v0Z" transform="translate(-9500.776 -16695.895)" fill="#00a9e0"/>
        <path id="Контур_4325" data-name="Контур 4325" d="M423.836,208.392v0Z" transform="translate(-9499.78 -16693.977)" fill="#00a9e0"/>
        <path id="Контур_4326" data-name="Контур 4326" d="M424.417,206.554v0Z" transform="translate(-9498.785 -16692.139)" fill="#00a9e0"/>
        <path id="Контур_4327" data-name="Контур 4327" d="M425,204.9v0Z" transform="translate(-9497.789 -16690.479)" fill="#00a9e0"/>
        <path id="Контур_4328" data-name="Контур 4328" d="M418.61,211.5v0Z" transform="translate(-9508.747 -16679.145)" fill="#00a9e0"/>
        <path id="Контур_4329" data-name="Контур 4329" d="M419.19,213.161v0Z" transform="translate(-9507.751 -16680.803)" fill="#00a9e0"/>
        <path id="Контур_4330" data-name="Контур 4330" d="M419.772,215v0Z" transform="translate(-9506.753 -16682.643)" fill="#00a9e0"/>
        <path id="Контур_4331" data-name="Контур 4331" d="M420.352,216.918v0Z" transform="translate(-9505.759 -16684.561)" fill="#00a9e0"/>
        <path id="Контур_4332" data-name="Контур 4332" d="M420.933,218.5v0Z" transform="translate(-9504.762 -16686.143)" fill="#00a9e0"/>
        <path id="Контур_4333" data-name="Контур 4333" d="M421.513,219.78v0Z" transform="translate(-9503.766 -16687.424)" fill="#00a9e0"/>
        <path id="Контур_4334" data-name="Контур 4334" d="M422.094,219.78v0Z" transform="translate(-9502.771 -16687.424)" fill="#00a9e0"/>
        <path id="Контур_4335" data-name="Контур 4335" d="M422.674,218.5v0Z" transform="translate(-9501.774 -16686.143)" fill="#00a9e0"/>
        <path id="Контур_4336" data-name="Контур 4336" d="M423.256,216.918v0Z" transform="translate(-9500.776 -16684.561)" fill="#00a9e0"/>
        <path id="Контур_4337" data-name="Контур 4337" d="M423.836,215v0Z" transform="translate(-9499.78 -16682.643)" fill="#00a9e0"/>
        <path id="Контур_4338" data-name="Контур 4338" d="M424.417,213.161v0Z" transform="translate(-9498.785 -16680.803)" fill="#00a9e0"/>
        <path id="Контур_4339" data-name="Контур 4339" d="M425,211.5v0Z" transform="translate(-9497.789 -16679.145)" fill="#00a9e0"/>
        <path id="Контур_4340" data-name="Контур 4340" d="M180.777,253v0Z" transform="translate(-9916.75 -16611.865)" fill="#00a9e0"/>
        <path id="Контур_4341" data-name="Контур 4341" d="M181.779,255.867v0Z" transform="translate(-9915.032 -16614.734)" fill="#00a9e0"/>
        <path id="Контур_4342" data-name="Контур 4342" d="M182.783,259.041v0Z" transform="translate(-9913.309 -16617.908)" fill="#00a9e0"/>
        <path id="Контур_4343" data-name="Контур 4343" d="M183.785,262.355v0Z" transform="translate(-9911.591 -16621.223)" fill="#00a9e0"/>
        <path id="Контур_4344" data-name="Контур 4344" d="M184.788,265.09v0Z" transform="translate(-9909.87 -16623.959)" fill="#00a9e0"/>
        <path id="Контур_4345" data-name="Контур 4345" d="M185.792,267.3v0Z" transform="translate(-9908.146 -16626.166)" fill="#00a9e0"/>
        <path id="Контур_4346" data-name="Контур 4346" d="M186.794,267.3v0Z" transform="translate(-9906.428 -16626.166)" fill="#00a9e0"/>
        <path id="Контур_4347" data-name="Контур 4347" d="M187.8,265.09v0Z" transform="translate(-9904.707 -16623.959)" fill="#00a9e0"/>
        <path id="Контур_4348" data-name="Контур 4348" d="M188.8,262.355v0Z" transform="translate(-9902.986 -16621.223)" fill="#00a9e0"/>
        <path id="Контур_4349" data-name="Контур 4349" d="M189.8,259.041v0Z" transform="translate(-9901.266 -16617.908)" fill="#00a9e0"/>
        <path id="Контур_4350" data-name="Контур 4350" d="M190.8,255.867v0Z" transform="translate(-9899.549 -16614.734)" fill="#00a9e0"/>
        <path id="Контур_4351" data-name="Контур 4351" d="M191.809,253v0Z" transform="translate(-9897.825 -16611.865)" fill="#00a9e0"/>
        <path id="Контур_4352" data-name="Контур 4352" d="M181.278,265.014v0Z" transform="translate(-9915.891 -16591.252)" fill="#00a9e0"/>
        <path id="Контур_4353" data-name="Контур 4353" d="M182.281,267.88v0Z" transform="translate(-9914.17 -16594.121)" fill="#00a9e0"/>
        <path id="Контур_4354" data-name="Контур 4354" d="M183.284,271.056v0Z" transform="translate(-9912.45 -16597.295)" fill="#00a9e0"/>
        <path id="Контур_4355" data-name="Контур 4355" d="M184.287,274.37v0Z" transform="translate(-9910.729 -16600.609)" fill="#00a9e0"/>
        <path id="Контур_4356" data-name="Контур 4356" d="M185.289,277.1v0Z" transform="translate(-9909.01 -16603.346)" fill="#00a9e0"/>
        <path id="Контур_4357" data-name="Контур 4357" d="M186.293,279.311v0Z" transform="translate(-9907.288 -16605.551)" fill="#00a9e0"/>
        <path id="Контур_4358" data-name="Контур 4358" d="M187.295,279.311v0Z" transform="translate(-9905.568 -16605.551)" fill="#00a9e0"/>
        <path id="Контур_4359" data-name="Контур 4359" d="M188.3,277.1v0Z" transform="translate(-9903.847 -16603.346)" fill="#00a9e0"/>
        <path id="Контур_4360" data-name="Контур 4360" d="M189.3,274.37v0Z" transform="translate(-9902.128 -16600.609)" fill="#00a9e0"/>
        <path id="Контур_4361" data-name="Контур 4361" d="M190.3,271.056v0Z" transform="translate(-9900.407 -16597.295)" fill="#00a9e0"/>
        <path id="Контур_4362" data-name="Контур 4362" d="M191.308,267.88v0Z" transform="translate(-9898.684 -16594.121)" fill="#00a9e0"/>
        <path id="Контур_4363" data-name="Контур 4363" d="M192.31,265.014v0Z" transform="translate(-9896.966 -16591.252)" fill="#00a9e0"/>
        <path id="Контур_4364" data-name="Контур 4364" d="M181.278,276.427v0Z" transform="translate(-9915.891 -16571.676)" fill="#00a9e0"/>
        <path id="Контур_4365" data-name="Контур 4365" d="M182.281,279.293v0Z" transform="translate(-9914.17 -16574.539)" fill="#00a9e0"/>
        <path id="Контур_4366" data-name="Контур 4366" d="M183.284,282.469v0Z" transform="translate(-9912.45 -16577.717)" fill="#00a9e0"/>
        <path id="Контур_4367" data-name="Контур 4367" d="M184.287,285.781v0Z" transform="translate(-9910.729 -16581.031)" fill="#00a9e0"/>
        <path id="Контур_4368" data-name="Контур 4368" d="M185.289,288.518v0Z" transform="translate(-9909.01 -16583.764)" fill="#00a9e0"/>
        <path id="Контур_4369" data-name="Контур 4369" d="M186.293,290.724v0Z" transform="translate(-9907.288 -16585.971)" fill="#00a9e0"/>
        <path id="Контур_4370" data-name="Контур 4370" d="M187.295,290.724v0Z" transform="translate(-9905.568 -16585.971)" fill="#00a9e0"/>
        <path id="Контур_4371" data-name="Контур 4371" d="M188.3,288.518v0Z" transform="translate(-9903.847 -16583.764)" fill="#00a9e0"/>
        <path id="Контур_4372" data-name="Контур 4372" d="M189.3,285.781v0Z" transform="translate(-9902.128 -16581.031)" fill="#00a9e0"/>
        <path id="Контур_4373" data-name="Контур 4373" d="M190.3,282.469v0Z" transform="translate(-9900.407 -16577.717)" fill="#00a9e0"/>
        <path id="Контур_4374" data-name="Контур 4374" d="M191.308,279.293v0Z" transform="translate(-9898.684 -16574.539)" fill="#00a9e0"/>
        <path id="Контур_4375" data-name="Контур 4375" d="M192.31,276.427v0Z" transform="translate(-9896.966 -16571.676)" fill="#00a9e0"/>
        <path id="Контур_4376" data-name="Контур 4376" d="M505.112,146.338v0Z" transform="translate(-9360.351 -16790.26)" fill="#00a9e0"/>
        <path id="Контур_4377" data-name="Контур 4377" d="M505.619,147.789v0Z" transform="translate(-9359.482 -16791.709)" fill="#00a9e0"/>
        <path id="Контур_4378" data-name="Контур 4378" d="M506.127,149.4v0Z" transform="translate(-9358.61 -16793.316)" fill="#00a9e0"/>
        <path id="Контур_4379" data-name="Контур 4379" d="M506.634,151.072v0Z" transform="translate(-9357.741 -16794.994)" fill="#00a9e0"/>
        <path id="Контур_4380" data-name="Контур 4380" d="M507.143,152.457v0Z" transform="translate(-9356.867 -16796.379)" fill="#00a9e0"/>
        <path id="Контур_4381" data-name="Контур 4381" d="M507.65,153.575v0Z" transform="translate(-9355.998 -16797.498)" fill="#00a9e0"/>
        <path id="Контур_4382" data-name="Контур 4382" d="M508.158,153.575v0Z" transform="translate(-9355.126 -16797.498)" fill="#00a9e0"/>
        <path id="Контур_4383" data-name="Контур 4383" d="M508.666,152.457v0Z" transform="translate(-9354.255 -16796.379)" fill="#00a9e0"/>
        <path id="Контур_4384" data-name="Контур 4384" d="M509.173,151.072v0Z" transform="translate(-9353.386 -16794.994)" fill="#00a9e0"/>
        <path id="Контур_4385" data-name="Контур 4385" d="M509.681,149.4v0Z" transform="translate(-9352.514 -16793.316)" fill="#00a9e0"/>
        <path id="Контур_4386" data-name="Контур 4386" d="M510.188,147.789v0Z" transform="translate(-9351.643 -16791.709)" fill="#00a9e0"/>
        <path id="Контур_4387" data-name="Контур 4387" d="M510.7,146.338v0Z" transform="translate(-9350.773 -16790.26)" fill="#00a9e0"/>
        <path id="Контур_4388" data-name="Контур 4388" d="M505.365,152.421v0Z" transform="translate(-9359.917 -16779.824)" fill="#00a9e0"/>
        <path id="Контур_4389" data-name="Контур 4389" d="M505.873,153.87v0Z" transform="translate(-9359.047 -16781.275)" fill="#00a9e0"/>
        <path id="Контур_4390" data-name="Контур 4390" d="M506.38,155.478v0Z" transform="translate(-9358.177 -16782.879)" fill="#00a9e0"/>
        <path id="Контур_4391" data-name="Контур 4391" d="M506.889,157.155v0Z" transform="translate(-9357.304 -16784.557)" fill="#00a9e0"/>
        <path id="Контур_4392" data-name="Контур 4392" d="M507.4,158.54v0Z" transform="translate(-9356.432 -16785.943)" fill="#00a9e0"/>
        <path id="Контур_4393" data-name="Контур 4393" d="M507.9,159.657v0Z" transform="translate(-9355.563 -16787.061)" fill="#00a9e0"/>
        <path id="Контур_4394" data-name="Контур 4394" d="M508.412,159.657v0Z" transform="translate(-9354.691 -16787.061)" fill="#00a9e0"/>
        <path id="Контур_4395" data-name="Контур 4395" d="M508.919,158.54v0Z" transform="translate(-9353.82 -16785.943)" fill="#00a9e0"/>
        <path id="Контур_4396" data-name="Контур 4396" d="M509.427,157.155v0Z" transform="translate(-9352.948 -16784.557)" fill="#00a9e0"/>
        <path id="Контур_4397" data-name="Контур 4397" d="M509.935,155.478v0Z" transform="translate(-9352.077 -16782.879)" fill="#00a9e0"/>
        <path id="Контур_4398" data-name="Контур 4398" d="M510.442,153.87v0Z" transform="translate(-9351.208 -16781.275)" fill="#00a9e0"/>
        <path id="Контур_4399" data-name="Контур 4399" d="M510.951,152.421v0Z" transform="translate(-9350.335 -16779.824)" fill="#00a9e0"/>
        <path id="Контур_4400" data-name="Контур 4400" d="M505.365,158.2v0Z" transform="translate(-9359.917 -16769.912)" fill="#00a9e0"/>
        <path id="Контур_4401" data-name="Контур 4401" d="M505.873,159.65v0Z" transform="translate(-9359.047 -16771.361)" fill="#00a9e0"/>
        <path id="Контур_4402" data-name="Контур 4402" d="M506.38,161.257v0Z" transform="translate(-9358.177 -16772.971)" fill="#00a9e0"/>
        <path id="Контур_4403" data-name="Контур 4403" d="M506.889,162.933v0Z" transform="translate(-9357.304 -16774.646)" fill="#00a9e0"/>
        <path id="Контур_4404" data-name="Контур 4404" d="M507.4,164.318v0Z" transform="translate(-9356.432 -16776.033)" fill="#00a9e0"/>
        <path id="Контур_4405" data-name="Контур 4405" d="M507.9,165.436v0Z" transform="translate(-9355.563 -16777.15)" fill="#00a9e0"/>
        <path id="Контур_4406" data-name="Контур 4406" d="M508.412,165.436v0Z" transform="translate(-9354.691 -16777.15)" fill="#00a9e0"/>
        <path id="Контур_4407" data-name="Контур 4407" d="M508.919,164.318v0Z" transform="translate(-9353.82 -16776.033)" fill="#00a9e0"/>
        <path id="Контур_4408" data-name="Контур 4408" d="M509.427,162.933v0Z" transform="translate(-9352.948 -16774.646)" fill="#00a9e0"/>
        <path id="Контур_4409" data-name="Контур 4409" d="M509.935,161.257v0Z" transform="translate(-9352.077 -16772.971)" fill="#00a9e0"/>
        <path id="Контур_4410" data-name="Контур 4410" d="M510.442,159.65v0Z" transform="translate(-9351.208 -16771.361)" fill="#00a9e0"/>
        <path id="Контур_4411" data-name="Контур 4411" d="M510.951,158.2v0Z" transform="translate(-9350.335 -16769.912)" fill="#00a9e0"/>
        <path id="Контур_4412" data-name="Контур 4412" d="M310.8,280.7v0Z" transform="translate(-9693.701 -16566.299)" fill="#00a9e0"/>
        <path id="Контур_4413" data-name="Контур 4413" d="M312.01,284.172v0Z" transform="translate(-9691.619 -16569.768)" fill="#00a9e0"/>
        <path id="Контур_4414" data-name="Контур 4414" d="M313.224,288.016v0Z" transform="translate(-9689.537 -16573.613)" fill="#00a9e0"/>
        <path id="Контур_4415" data-name="Контур 4415" d="M314.438,292.027v0Z" transform="translate(-9687.455 -16577.623)" fill="#00a9e0"/>
        <path id="Контур_4416" data-name="Контур 4416" d="M315.652,295.34v0Z" transform="translate(-9685.371 -16580.938)" fill="#00a9e0"/>
        <path id="Контур_4417" data-name="Контур 4417" d="M316.867,298.011v0Z" transform="translate(-9683.287 -16583.607)" fill="#00a9e0"/>
        <path id="Контур_4418" data-name="Контур 4418" d="M318.081,298.011v0Z" transform="translate(-9681.205 -16583.607)" fill="#00a9e0"/>
        <path id="Контур_4419" data-name="Контур 4419" d="M319.3,295.34v0Z" transform="translate(-9679.123 -16580.938)" fill="#00a9e0"/>
        <path id="Контур_4420" data-name="Контур 4420" d="M320.509,292.027v0Z" transform="translate(-9677.039 -16577.623)" fill="#00a9e0"/>
        <path id="Контур_4421" data-name="Контур 4421" d="M321.723,288.016v0Z" transform="translate(-9674.956 -16573.613)" fill="#00a9e0"/>
        <path id="Контур_4422" data-name="Контур 4422" d="M322.937,284.172v0Z" transform="translate(-9672.874 -16569.768)" fill="#00a9e0"/>
        <path id="Контур_4423" data-name="Контур 4423" d="M324.151,280.7v0Z" transform="translate(-9670.792 -16566.299)" fill="#00a9e0"/>
        <path id="Контур_4424" data-name="Контур 4424" d="M311.4,295.248v0Z" transform="translate(-9692.659 -16541.348)" fill="#00a9e0"/>
        <path id="Контур_4425" data-name="Контур 4425" d="M312.618,298.717v0Z" transform="translate(-9690.577 -16544.816)" fill="#00a9e0"/>
        <path id="Контур_4426" data-name="Контур 4426" d="M313.832,302.559v0Z" transform="translate(-9688.493 -16548.66)" fill="#00a9e0"/>
        <path id="Контур_4427" data-name="Контур 4427" d="M315.046,306.57v0Z" transform="translate(-9686.411 -16552.67)" fill="#00a9e0"/>
        <path id="Контур_4428" data-name="Контур 4428" d="M316.26,309.883v0Z" transform="translate(-9684.328 -16555.984)" fill="#00a9e0"/>
        <path id="Контур_4429" data-name="Контур 4429" d="M317.474,312.554v0Z" transform="translate(-9682.246 -16558.654)" fill="#00a9e0"/>
        <path id="Контур_4430" data-name="Контур 4430" d="M318.688,312.554v0Z" transform="translate(-9680.164 -16558.654)" fill="#00a9e0"/>
        <path id="Контур_4431" data-name="Контур 4431" d="M319.9,309.883v0Z" transform="translate(-9678.08 -16555.984)" fill="#00a9e0"/>
        <path id="Контур_4432" data-name="Контур 4432" d="M321.116,306.57v0Z" transform="translate(-9675.997 -16552.67)" fill="#00a9e0"/>
        <path id="Контур_4433" data-name="Контур 4433" d="M322.331,302.559v0Z" transform="translate(-9673.914 -16548.66)" fill="#00a9e0"/>
        <path id="Контур_4434" data-name="Контур 4434" d="M323.545,298.717v0Z" transform="translate(-9671.832 -16544.816)" fill="#00a9e0"/>
        <path id="Контур_4435" data-name="Контур 4435" d="M324.759,295.248v0Z" transform="translate(-9669.748 -16541.348)" fill="#00a9e0"/>
        <path id="Контур_4436" data-name="Контур 4436" d="M311.4,309.064v0Z" transform="translate(-9692.659 -16517.646)" fill="#00a9e0"/>
        <path id="Контур_4437" data-name="Контур 4437" d="M312.618,312.533v0Z" transform="translate(-9690.577 -16521.115)" fill="#00a9e0"/>
        <path id="Контур_4438" data-name="Контур 4438" d="M313.832,316.377v0Z" transform="translate(-9688.493 -16524.961)" fill="#00a9e0"/>
        <path id="Контур_4439" data-name="Контур 4439" d="M315.046,320.388v0Z" transform="translate(-9686.411 -16528.971)" fill="#00a9e0"/>
        <path id="Контур_4440" data-name="Контур 4440" d="M316.26,323.7v0Z" transform="translate(-9684.328 -16532.285)" fill="#00a9e0"/>
        <path id="Контур_4441" data-name="Контур 4441" d="M317.474,326.37v0Z" transform="translate(-9682.246 -16534.953)" fill="#00a9e0"/>
        <path id="Контур_4442" data-name="Контур 4442" d="M318.688,326.37v0Z" transform="translate(-9680.164 -16534.953)" fill="#00a9e0"/>
        <path id="Контур_4443" data-name="Контур 4443" d="M319.9,323.7v0Z" transform="translate(-9678.08 -16532.285)" fill="#00a9e0"/>
        <path id="Контур_4444" data-name="Контур 4444" d="M321.116,320.388v0Z" transform="translate(-9675.997 -16528.971)" fill="#00a9e0"/>
        <path id="Контур_4445" data-name="Контур 4445" d="M322.331,316.377v0Z" transform="translate(-9673.914 -16524.961)" fill="#00a9e0"/>
        <path id="Контур_4446" data-name="Контур 4446" d="M323.545,312.533v0Z" transform="translate(-9671.832 -16521.115)" fill="#00a9e0"/>
        <path id="Контур_4447" data-name="Контур 4447" d="M324.759,309.064v0Z" transform="translate(-9669.748 -16517.646)" fill="#00a9e0"/>
        <path id="Контур_4448" data-name="Контур 4448" d="M293.966,121.561v0Z" transform="translate(-9722.575 -16832.945)" fill="#00a9e0"/>
        <path id="Контур_4449" data-name="Контур 4449" d="M294.493,123.07v0Z" transform="translate(-9721.67 -16834.457)" fill="#00a9e0"/>
        <path id="Контур_4450" data-name="Контур 4450" d="M295.022,124.739v0Z" transform="translate(-9720.763 -16836.125)" fill="#00a9e0"/>
        <path id="Контур_4451" data-name="Контур 4451" d="M295.549,126.484v0Z" transform="translate(-9719.858 -16837.871)" fill="#00a9e0"/>
        <path id="Контур_4452" data-name="Контур 4452" d="M296.078,127.925v0Z" transform="translate(-9718.951 -16839.309)" fill="#00a9e0"/>
        <path id="Контур_4453" data-name="Контур 4453" d="M296.605,129.087v0Z" transform="translate(-9718.047 -16840.473)" fill="#00a9e0"/>
        <path id="Контур_4454" data-name="Контур 4454" d="M297.133,129.087v0Z" transform="translate(-9717.141 -16840.473)" fill="#00a9e0"/>
        <path id="Контур_4455" data-name="Контур 4455" d="M297.661,127.925v0Z" transform="translate(-9716.234 -16839.309)" fill="#00a9e0"/>
        <path id="Контур_4456" data-name="Контур 4456" d="M298.189,126.484v0Z" transform="translate(-9715.329 -16837.871)" fill="#00a9e0"/>
        <path id="Контур_4457" data-name="Контур 4457" d="M298.716,124.739v0Z" transform="translate(-9714.426 -16836.125)" fill="#00a9e0"/>
        <path id="Контур_4458" data-name="Контур 4458" d="M299.245,123.07v0Z" transform="translate(-9713.518 -16834.457)" fill="#00a9e0"/>
        <path id="Контур_4459" data-name="Контур 4459" d="M299.772,121.561v0Z" transform="translate(-9712.614 -16832.945)" fill="#00a9e0"/>
        <path id="Контур_4460" data-name="Контур 4460" d="M294.23,127.885v0Z" transform="translate(-9722.122 -16822.096)" fill="#00a9e0"/>
        <path id="Контур_4461" data-name="Контур 4461" d="M294.757,129.394v0Z" transform="translate(-9721.217 -16823.607)" fill="#00a9e0"/>
        <path id="Контур_4462" data-name="Контур 4462" d="M295.285,131.065v0Z" transform="translate(-9720.312 -16825.277)" fill="#00a9e0"/>
        <path id="Контур_4463" data-name="Контур 4463" d="M295.813,132.808v0Z" transform="translate(-9719.405 -16827.02)" fill="#00a9e0"/>
        <path id="Контур_4464" data-name="Контур 4464" d="M296.341,134.249v0Z" transform="translate(-9718.499 -16828.463)" fill="#00a9e0"/>
        <path id="Контур_4465" data-name="Контур 4465" d="M296.869,135.411v0Z" transform="translate(-9717.594 -16829.623)" fill="#00a9e0"/>
        <path id="Контур_4466" data-name="Контур 4466" d="M297.4,135.411v0Z" transform="translate(-9716.688 -16829.623)" fill="#00a9e0"/>
        <path id="Контур_4467" data-name="Контур 4467" d="M297.924,134.249v0Z" transform="translate(-9715.785 -16828.463)" fill="#00a9e0"/>
        <path id="Контур_4468" data-name="Контур 4468" d="M298.453,132.808v0Z" transform="translate(-9714.876 -16827.02)" fill="#00a9e0"/>
        <path id="Контур_4469" data-name="Контур 4469" d="M298.98,131.065v0Z" transform="translate(-9713.974 -16825.277)" fill="#00a9e0"/>
        <path id="Контур_4470" data-name="Контур 4470" d="M299.508,129.394v0Z" transform="translate(-9713.067 -16823.607)" fill="#00a9e0"/>
        <path id="Контур_4471" data-name="Контур 4471" d="M300.036,127.885v0Z" transform="translate(-9712.161 -16822.096)" fill="#00a9e0"/>
        <path id="Контур_4472" data-name="Контур 4472" d="M294.23,133.892v0Z" transform="translate(-9722.122 -16811.791)" fill="#00a9e0"/>
        <path id="Контур_4473" data-name="Контур 4473" d="M294.757,135.4v0Z" transform="translate(-9721.217 -16813.303)" fill="#00a9e0"/>
        <path id="Контур_4474" data-name="Контур 4474" d="M295.285,137.07v0Z" transform="translate(-9720.312 -16814.971)" fill="#00a9e0"/>
        <path id="Контур_4475" data-name="Контур 4475" d="M295.813,138.815v0Z" transform="translate(-9719.405 -16816.717)" fill="#00a9e0"/>
        <path id="Контур_4476" data-name="Контур 4476" d="M296.341,140.256v0Z" transform="translate(-9718.499 -16818.154)" fill="#00a9e0"/>
        <path id="Контур_4477" data-name="Контур 4477" d="M296.869,141.417v0Z" transform="translate(-9717.594 -16819.318)" fill="#00a9e0"/>
        <path id="Контур_4478" data-name="Контур 4478" d="M297.4,141.417v0Z" transform="translate(-9716.688 -16819.318)" fill="#00a9e0"/>
        <path id="Контур_4479" data-name="Контур 4479" d="M297.924,140.256v0Z" transform="translate(-9715.785 -16818.154)" fill="#00a9e0"/>
        <path id="Контур_4480" data-name="Контур 4480" d="M298.453,138.815v0Z" transform="translate(-9714.876 -16816.717)" fill="#00a9e0"/>
        <path id="Контур_4481" data-name="Контур 4481" d="M298.98,137.07v0Z" transform="translate(-9713.974 -16814.971)" fill="#00a9e0"/>
        <path id="Контур_4482" data-name="Контур 4482" d="M299.508,135.4v0Z" transform="translate(-9713.067 -16813.303)" fill="#00a9e0"/>
        <path id="Контур_4483" data-name="Контур 4483" d="M300.036,133.892v0Z" transform="translate(-9712.161 -16811.791)" fill="#00a9e0"/>
      </g>
    </g>
  </g>
</svg>
