<svg id="Иконка_Карты_и_схемы" data-name="Иконка Карты и схемы" xmlns="http://www.w3.org/2000/svg" width="90.297" height="90.296" viewBox="0 0 90.297 90.296">
  <path id="Контур_6" data-name="Контур 6" d="M329.249,185.886c0-4.788,17.867-7.856,23.088-8.435a89.69,89.69,0,0,1,10.148-.737c.177.691,4.53,7.847,5.034,8.605.9,1.374.913,2.328,2.843,2.328,1.445,0,1.8-1.314,2.387-2.219l5.107-8.715c7.862,0,24.389,2.18,30.817,6.277,3.319,2.115,3.242,3.612-.383,5.79-3.1,1.863-9.505,3.513-13.286,4.2a147.028,147.028,0,0,1-49.5.028c-3.806-.691-10.214-2.322-13.331-4.164-.853-.5-2.919-1.88-2.919-2.964Zm39.443-77.247a28.878,28.878,0,0,0-8.342,1.566,28.028,28.028,0,0,0-16.181,13.54c-3.841,6.972-3.436,16.06.252,22.991l11.853,19.806c.347.64.541.892.894,1.475l2.682,4.573c.071.627-.8.345-1.945.448-1.376.127-3.395.267-4.7.446-7.5,1.027-17.759,2.406-23.954,6.4a13.928,13.928,0,0,0-2.722,2.262,6.6,6.6,0,0,0-1.5,3.384c0,2.792,1.9,4.59,4.006,6.02.347.235.657.362,1.066.61,5.8,3.5,16.734,5.219,23.8,6.018,2.176.246,4.525.278,6.529.53.93.116,3.451.192,6.4.224h6.847c2.863-.03,5.3-.106,6.246-.224,2-.252,4.353-.284,6.531-.53,7.612-.862,18.485-2.58,24.751-6.554,6.13-3.886,5.161-8.833-1.176-12.344-4.769-2.641-12.812-4.508-18.518-5.223-1.689-.213-3.7-.588-5.4-.689-.889-.054-5.124-.34-5.564-.534-.149-.289-.125.056.009-.362l9.979-16.747c.239-.429.371-.562.64-1l4.485-7.522a25.387,25.387,0,0,0,2.068-4.8,32.878,32.878,0,0,0,1.258-7.147l-.461-4.5a25.134,25.134,0,0,0-3.991-9.74,22.03,22.03,0,0,0-3.186-3.778c-.386-.36-.483-.562-.784-.866a31.66,31.66,0,0,0-7.489-4.941c-5.814-2.195-6.828-2.774-13.85-2.794Zm.325,3.879c-7.715,0-15.847,4.737-19.56,10.438a19.6,19.6,0,0,0-3.7,10.714c-.642,7.418,3.53,13.35,7.255,19.467.293.485.409.59.7,1.118.461.831.851,1.45,1.346,2.294l9.538,15.935c.259.455.429.631.709,1.114l2.69,4.584a21.055,21.055,0,0,1,1.984,3.47h.383a12.194,12.194,0,0,1,1.344-2.468L382.6,160.961c.471-.771.883-1.538,1.368-2.27l8.164-13.671a25.172,25.172,0,0,0,2.628-9.943,9.069,9.069,0,0,0-.183-1.575,19.829,19.829,0,0,0-3.761-10.656,23.938,23.938,0,0,0-7.733-7.011C378.6,113.266,374.73,112.518,369.017,112.518Z" transform="translate(-325.023 -108.639)" fill="#011176" fill-rule="evenodd"/>
  <path id="Контур_7" data-name="Контур 7" d="M354.021,117.76a12.97,12.97,0,0,1,6.279,1.114c4.032,1.854,7.1,6.427,6.763,10.317-.937,10.992-13.945,13.984-20.876,7.752a13.229,13.229,0,0,1-2.482-3.19,10.641,10.641,0,0,1-.943-6.929c.915-4.814,5.96-9.064,11.259-9.064Zm.383,26.276a17.948,17.948,0,0,0,7.3-1.413,14.87,14.87,0,0,0,3.608-2.154,14.589,14.589,0,0,0,5.465-8.036c2.5-9.757-5.945-18.554-15.218-18.554-4.31,0-7.125.668-10.486,2.895a15.582,15.582,0,0,0-5.381,6.171,13.993,13.993,0,0,0,2.374,15.489,7.176,7.176,0,0,0,1.992,1.874A16.76,16.76,0,0,0,354.4,144.037Z" transform="translate(-309.643 -102.592)" fill="#011176" fill-rule="evenodd"/>
</svg>
