<svg xmlns="http://www.w3.org/2000/svg" width="35" height="25" fill="none"><path fill="#F8F8F8" d="M30.438 0H4.348A4.35 4.35 0 0 0 0 4.348v16.304A4.35 4.35 0 0 0 4.348 25h26.09a4.35 4.35 0 0 0 4.348-4.348V4.348c0-2.4-1.953-4.348-4.348-4.348Zm2.177 20.657a2.18 2.18 0 0 1-2.177 2.177H4.348a2.18 2.18 0 0 1-2.177-2.177V4.353c0-1.2.977-2.177 2.177-2.177h26.09c1.2 0 2.177.977 2.177 2.177v16.304Z"/><path fill="#F8F8F8" d="M30.195 5.835a1.092 1.092 0 0 0-1.532-.154l-11.268 9.22-11.268-9.22a1.087 1.087 0 0 0-1.532.154 1.087 1.087 0 0 0 .154 1.532l11.957 9.785c.199.164.446.248.69.248.242 0 .49-.079.688-.247l11.958-9.786c.466-.382.53-1.066.153-1.532Zm-4.422 8.615a1.083 1.083 0 0 0-1.537 0 1.083 1.083 0 0 0 0 1.537l4.348 4.348c.213.213.49.317.768.317s.556-.104.769-.317a1.083 1.083 0 0 0 0-1.537l-4.348-4.347Zm-16.756 0L4.67 18.799a1.083 1.083 0 0 0 0 1.537c.213.213.49.317.768.317s.555-.104.769-.317l4.347-4.348a1.083 1.083 0 0 0 0-1.536 1.083 1.083 0 0 0-1.537 0Z"/></svg>