<svg xmlns="http://www.w3.org/2000/svg" width="35" height="44" fill="none"><path fill="#F8F8F8" d="M17.503 0C7.853 0 0 7.848 0 17.503c0 8.315 9.021 18.307 16.594 25.225l.93.852.908-.873C26.815 34.642 35 26.051 35 17.507 35 7.848 27.152 0 17.503 0Zm-.021 39.882C7.936 30.965 2.69 23.044 2.69 17.502c0-8.164 6.643-14.806 14.807-14.806 8.165 0 14.807 6.642 14.807 14.807 0 7.203-7.193 14.978-14.827 22.379h.005Z"/><path fill="#F8F8F8" d="M17.503 10.771a6.736 6.736 0 0 0-6.731 6.732 6.736 6.736 0 0 0 6.73 6.73 6.736 6.736 0 0 0 6.732-6.73 6.736 6.736 0 0 0-6.731-6.732Zm0 10.772a4.045 4.045 0 0 1-4.041-4.04 4.045 4.045 0 0 1 4.04-4.041 4.045 4.045 0 0 1 4.041 4.04 4.045 4.045 0 0 1-4.04 4.041Z"/></svg>