<svg xmlns="http://www.w3.org/2000/svg" width="35" height="35" fill="none"><path fill="#F8F8F8" d="M17.288 13.341a3.91 3.91 0 0 1 2.362.796l-1.368 1.367a2.014 2.014 0 0 0-.994-.27 2.05 2.05 0 1 0 2.05 2.05c0-.047-.01-.095-.014-.142l1.528-1.529c.242.507.379 1.075.379 1.67a3.949 3.949 0 0 1-3.943 3.943 3.943 3.943 0 0 1 0-7.885Zm-8.39 3.943c0 4.624 3.762 8.39 8.39 8.39 4.63 0 8.392-3.762 8.392-8.39a8.341 8.341 0 0 0-1.595-4.903l-1.359 1.358a6.465 6.465 0 0 1 1.06 3.545 6.506 6.506 0 0 1-6.498 6.498 6.506 6.506 0 0 1-6.498-6.498 6.506 6.506 0 0 1 6.498-6.498c1.59 0 3.048.577 4.18 1.529l1.339-1.34a8.355 8.355 0 0 0-5.518-2.087c-4.624 0-8.392 3.762-8.392 8.391v.005Zm-4.45 0c0 7.08 5.76 12.84 12.84 12.84s12.84-5.76 12.84-12.84a12.76 12.76 0 0 0-2.688-7.847c-.09-.043-.184-.085-.274-.137l-1.255 1.254a10.895 10.895 0 0 1 2.324 6.73c0 6.034-4.912 10.947-10.947 10.947-6.034 0-10.946-4.908-10.946-10.947 0-6.04 4.908-10.947 10.947-10.947 2.816 0 5.39 1.07 7.33 2.825l1.207-1.206a4.07 4.07 0 0 1-.208-.436 12.789 12.789 0 0 0-8.33-3.08c-7.08 0-12.84 5.759-12.84 12.84v.004ZM30.56 9.499a15.312 15.312 0 0 1 2.12 7.785c0 8.49-6.905 15.395-15.395 15.395-8.49 0-15.396-6.905-15.396-15.395 0-8.49 6.91-15.396 15.4-15.396 3.105 0 5.992.928 8.415 2.513.175-.355.407-.69.705-.984l.493-.492A17.194 17.194 0 0 0 17.288 0C7.757 0 0 7.757 0 17.288c0 9.532 7.757 17.29 17.288 17.29 9.532 0 17.29-7.758 17.29-17.29 0-3.27-.914-6.327-2.495-8.935l-.374.374c-.34.34-.729.596-1.145.781l-.005-.01Zm-12.281 6.005-1.108 1.108a.948.948 0 0 0 .667 1.618.943.943 0 0 0 .668-.279l.81-.81a2.036 2.036 0 0 0-1.042-1.637h.005Zm3.185-3.185-1.818 1.818c.512.383.928.89 1.203 1.476l1.874-1.874a6.44 6.44 0 0 0-1.26-1.42Zm6.275-4.936a1.844 1.844 0 0 1-.468-1.798 15.286 15.286 0 0 0-1.572-1.179 3.769 3.769 0 0 0-.085 3.124 12.662 12.662 0 0 1 1.822 1.912 3.741 3.741 0 0 0 1.619.378c.511 0 1.027-.109 1.505-.317a15.06 15.06 0 0 0-1.103-1.623 1.839 1.839 0 0 1-1.713-.497h-.005Zm-3.123 1.784-1.813 1.813a8.37 8.37 0 0 1 1.278 1.4l1.827-1.826a10.828 10.828 0 0 0-1.288-1.387h-.004Zm10.312-4.572a1.085 1.085 0 0 0-.941-.695h-.105l-3.152.487.493-3.152v-.104a1.098 1.098 0 0 0-.7-.942 1.082 1.082 0 0 0-1.146.246L26.89 2.92c.53.355 1.037.743 1.524 1.155l.53-.53-.137.87a17.348 17.348 0 0 1 1.827 1.903l.937-.147-.587.587a17.42 17.42 0 0 1 1.093 1.586l2.608-2.608c.298-.298.393-.748.246-1.14h-.005ZM19.314 17.142l1.529-1.529a3.968 3.968 0 0 0-1.202-1.476l-1.368 1.367c.587.327.99.933 1.041 1.638Zm3.403-3.403 1.358-1.358a8.36 8.36 0 0 0-1.278-1.401l-1.339 1.34c.483.406.909.889 1.259 1.419Zm1.898-4.572c.468.426.899.89 1.287 1.387L27.156 9.3c.09.052.185.094.275.137a12.89 12.89 0 0 0-1.822-1.912c.061.147.127.293.208.435L24.61 9.167h.005Zm4.467-3.128a1.27 1.27 0 0 0 1.089.355l.464-.071a16.92 16.92 0 0 0-1.827-1.903l-.08.53c-.062.398.07.805.354 1.089Zm1.283 1.344a1.86 1.86 0 0 1-.909.497 15.7 15.7 0 0 1 1.103 1.623c.416-.18.81-.44 1.145-.78l.374-.375c-.336-.549-.7-1.079-1.093-1.585l-.62.62Zm-4.666-2.977c.548.36 1.074.753 1.57 1.179a1.83 1.83 0 0 1 .47-.829l.68-.681a18.124 18.124 0 0 0-1.523-1.155l-.492.492c-.294.294-.53.63-.706.985v.01Z"/></svg>