<svg xmlns="http://www.w3.org/2000/svg" width="35" height="35" fill="none"><path fill="#F8F8F8" d="M17.5 0C7.831 0 0 7.836 0 17.5S7.836 35 17.5 35 35 27.164 35 17.5 27.164 0 17.5 0Zm1.323 32.3v-1.178a1.322 1.322 0 1 0-2.646 0V32.3C9.025 31.666 3.31 25.94 2.7 18.783h1.139a1.322 1.322 0 1 0 0-2.645H2.704C3.354 9.015 9.05 3.334 16.178 2.7v1.094a1.322 1.322 0 1 0 2.646 0V2.7c7.127.629 12.824 6.315 13.472 13.438h-1.134a1.322 1.322 0 1 0 0 2.645h1.14c-.615 7.162-6.326 12.883-13.479 13.517Z"/><path fill="#F8F8F8" d="m25.366 8.975-7.826 8.198h-.045c-.1 0-.193.01-.287.03l-6.549-4.949a.99.99 0 0 0-1.386.198.989.989 0 0 0 .193 1.387l6.548 4.949a1.488 1.488 0 0 0 1.481 1.362c.822 0 1.486-.664 1.486-1.486 0-.04 0-.08-.005-.114l7.821-8.198a.993.993 0 0 0-.034-1.402.988.988 0 0 0-1.402.035l.005-.01Z"/></svg>