<svg xmlns="http://www.w3.org/2000/svg" width="36" height="25" fill="none"><path fill="#F8F8F8" d="M22.218 12.499a4.7 4.7 0 1 1-9.399-.002 4.7 4.7 0 0 1 9.4.002Zm3.368 8.139c4.488-4.488 4.488-11.79 0-16.278a.963.963 0 0 0-1.36 1.36c3.738 3.738 3.738 9.82 0 13.558a.963.963 0 0 0 .678 1.643c.245 0 .49-.096.677-.283h.005Zm-14.649 0a.963.963 0 0 0 0-1.36C7.2 15.54 7.2 9.458 10.937 5.72a.963.963 0 0 0-1.36-1.36c-4.487 4.487-4.487 11.79 0 16.278a.958.958 0 0 0 .678.283c.245 0 .49-.096.677-.283h.005Zm-4.525 4.074a.963.963 0 0 0 0-1.36C.425 17.366.425 7.627 6.412 1.641a.963.963 0 0 0 0-1.36.963.963 0 0 0-1.36 0c-6.736 6.736-6.736 17.695 0 24.426a.957.957 0 0 0 .677.283c.245 0 .49-.096.678-.283l.005.005Zm23.575 0c6.736-6.736 6.736-17.695 0-24.426a.963.963 0 0 0-1.36 1.36c5.987 5.986 5.987 15.724 0 21.71A.963.963 0 0 0 29.305 25c.245 0 .49-.096.677-.284l.005-.004Z"/></svg>