<svg xmlns="http://www.w3.org/2000/svg" width="1915" height="150" fill="none"><path fill="#fff" d="m2170 585.441-.89-.773-384.82 62.498-.2.671-.13-.116.16-.54 94.3-311.69.36-1.181-.06.087-.58-.35.06-.117-.73-.379-309.61-159.929 369.95 59.48 1.28.204.13-.875.15-.875-2.33-.38-373.05-59.989-.21.291h-.02l.13-.175L1715.31-32.25l221.75 263.397 2.34.379-.13.875.67-.568-.13-.161-.35-.423-.62-.729-222-263.704 322.38-125.886.35-1.386-.23-.554-.28.116-.35-.831-416.8-131.371-4.87.263-.03-.408.32-.117-.16-.059-.11-.802-284.95 40.548L1018.86-383l-.33.817.22.86-.29.073.08.029-.16.044v-.058l-2.43.612L827.315-196.38l-78.253-116.771-1.035.263-.16-.817-.219-.86-269.671 52.711-219.845-23.497-.087.875-.088.861-6.749-.277L38.229-242.12l-1.151.234h-.044l.175.875.175.86.218-.043.496-.103v.146l211.609 36.012L40.401 134.752v2.611l-.029-.044-.146-.218-.729.495-.728.496.524.773 182.862 267.876 1.982.598-.131.044-.102.043-1.633-.496-378.39-115.356-1.619-.495-.262.845.802-.35.772 1.765 378.974 115.502L3.549 657.639l.277.627-.335-.058h-.073l-.131.787-.059.044h.074l.801.058-.175 2.188 287.558 353.855 1.297-.36.234.84-.146-.86.51-.09.321-.07-49.506-314.241 257.033 277.983.83-.146.744-.145.16.86.234-.846.437.117.029.642.496.145 116.664-193.621 23.135 232.122 1.108.31.481-.03.029.25 3.09-.2 276.785-152.611.307-.073 334.062 113.197 3.54-.233.41-.029.06-.088h.19l.05.861v-.876h1.55l109.65-183.207 211.57 183.28h2.04l1.73-.087 134.09-201.366 151.61 187.539.53.671.11.365.14-.044.29.365.69-.555-.85.248-.03-.087.59-.175-.56-.686 1.02-.831-93.63-312.857 237.86 195.955.7-.569.44-.773-238.37-196.378 384.21-62.396.54-.963.01.044ZM243.278 696.888l-.219.044h-.014l-.933-.161L5.167 658.455 223.38 410.548l18.718 286.223.948.146.83-.16-18.732-286.516 263.49 237.363-245.326 49.284h-.029Zm15.744-980.372 213.693 22.841-220.661 54.695 6.953-77.536h.015Zm1358.198-6.738 96.6 255.084 1.33.525h-.03l-1.28-.51-161.1-64.745 64.48-190.369v.015Zm-55.59 461.919-.16.788-31.51 155.232h-.14l.12.073v.073h-.01L1224 118.329l337.4 54.258.17-.905h.06v.015Zm92.91 312.784L1531.89 329.54l342.67 6.068-220.02 148.873ZM1780.69 646.7l-381.34-102.448 131.36-213.385L1780.69 646.7Zm-56.49 127.038-321.78-226.846 379.41 101.937-57.63 124.909Zm-471.74 5.82-200.08-278.552-2.01-.262.03-.219h.03l-.03.219 2.01.262 344.04 44.646-143.99 233.906Zm-327.227 82.101L718.828 376.316l330.692 124.223-124.287 361.12ZM568.956 272.103l.263-1.254.029.102v.044l-.175.889-79.084 374.611-264.146-237.946 343.113-136.446Zm-92.043-531.959 12.77 295.573-236.784-240.046 224.014-55.527Zm240.152 634.144v-.116l.029-.088.32-.058-.073.204-.291.058h.015Zm.568-.291 1.472-.263L911.69 91.915l105.67 227.051-298.225 54.958-1.152.218-.335-.131-.015-.014ZM1144.63-52.889l1.85.57 130.6 40.882-56.71 126.193-73.89-167.076-1.85-.583v.014Zm382.73 382.356-269.74 96.074-234.56-105 504.3 8.926Zm-508.64-10.239v.263l-.03.058v-.291l.03-.03Zm-.34.336.03.029h-.07l.04-.029Zm.62-1.269L913.119 90.792h.014l305.197 26.925L1019 318.295ZM911.676 90.019l-.044.569v-.03l.029-.525h.015v-.014Zm106.344 230.61 31.53 178.029-328.345-123.334 296.815-54.695Zm32.39 178.598.2-.073v.117l-.17.058-.03-.102Zm.06.889v.088h-.02v-.088h.02Zm206.62-72.868-1.89-.846-204.02 72.664-.23-.029.44-.16-31.5-177.84 235.82 105.554 1.64.73 137.85 116.362-340.17-44.15 202.35-72.066-.29-.248v.029Zm141.17 116.712h-.04l-.34-.292-138.47-116.887 269.28-95.899-130.92 212.67.49.423v-.015Zm131.9-215.178.45.277v.029l-.46-.292h.01v-.014Zm-509.08-10.064 199.42-200.666 306.03 209.607-505.45-8.956v.015Zm201.19-203.627-.12.073 56.84-126.47 266.52-85.033-323.23 211.43h-.01Zm55.23-128.25-130.85-40.97 183.84-195.677-52.99 236.648Zm-132.95-39.19L1219 115.995 914.591 89.144 1144.55-52.35ZM909.431 92.105l-192.41 281.571-145.179-102.784L909.154 92.178l1.72-2.524.044.16.029.074-1.516 2.217ZM572.192 268.719l254.686-461.365 83.894 281.98-338.58 179.385Zm-1.895-.189L491.622 38.328l332.938-230.42L570.297 268.53Zm-80.06 379.584-.248-.204.263.204h-.015Zm80.57-375.778L715.986 375.12 492.147 644.979l78.675-372.643h-.015Zm146.607 102.346.467-.204h.014l-.481.204ZM1783.42 647.575l-.11.408-.05.044.11-.467h.05v.015ZM1551.79-98.322l160.68 64.584-485.83 148.1 325.15-212.684Zm163 64.073.49.38-.51-.365h.02v-.015ZM1279.35-13.26l-1.44.466 1.46-.48 53.28-237.991 217.13 151.732-270.43 86.273Zm52.53-239.711v.044l-.35-.088.02-.044.33.073v.015ZM1145.43-55.354 1020.26-380.52l310.23 128.118-185.11 197.02.05.028ZM912.39 88.473l-83.909-282.009-1.749-.773 1.735.759L1143.05-53.458 912.39 88.472ZM491.534 36.272l-12.799-296.273-.364-.073v-.044l1.006-.19 345.562 65.853L491.534 36.272Zm-240.18-239.697L488.823 37.322 41.422 136.488l209.932-339.913ZM490.339 39.947l78.69 230.245-342.457 136.184L490.339 39.947Zm225.37 338.279-94.682 402.265-129.201-132.362 223.883-269.903Zm-94.23 404.22.802-.073-.802.087v-.014Zm96.125-404.584L923.95 863.059l1.429.38h-.059l-1.151-.292-301.655-81.314 95.075-403.971h.015Zm209.028 485.27 124.308-361.163 200.09 278.566-324.398 82.597Zm325.798-81.59-.03.262h-.02l.03-.248h.03l-.01-.014Zm144.36-232.987.26-2.815h.06l-.25 2.64-22.74 244.188-120.07-12.15 142.72-231.863h.02Zm-21.87 245.603v-.161.176-.015Zm.96-1.531 22.92-246.144 323.13 227.78-346.05 18.349v.015Zm407.03-141.8 92.64 309.561-149.92-185.439 57.26-124.122h.02Zm-.31-4.58-126.93-160.351-.78.525.68-.467 220.71-149.34-93.68 309.633Zm95.91-311.558-.35.233-.24-.335.22-.438.37.525v.015Zm-2.58.044-.06.043-1.8-.948-342.18-6.053-.27 1.371-.09-.116.23-1.123 31.42-154.722 310.91 160.614 1.82.948.02-.014Zm-313.87-163.824-337.13-54.213 488.16-148.815-151.02 203.014-.01.014Zm56.44-463.188 418.99 132.056-321.9 125.697-.13.044h-.03l-.21-.102v-.03l.21.088.51-.204-97.43-257.213-1.73-.54.1-.336 1.62.511v.029Zm-2.1-1.298.13.044-.17.496-.15.058.07.175-.19.554-64.88 191.55-216.77-151.469 281.51-40.066.45-1.357v.015Zm-598.02-86.958 125.2 325.327.67 1.765-.66-1.707-314.817-140.194 189.607-185.191Zm-193.048 184.33-341.305-65.036 263.242-51.457 78.078 116.493h-.015Zm-568.118-87.089-6.954 77.434-207.687-35.341L257.2-283.294h.015ZM41.101 138.326l447.635-99.21-264.511 367.479L41.101 138.34v-.014ZM5.371 660.25l-1.428-1.751h.014l1.458 1.78 236.711 38.272 49.447 313.879L5.371 660.235v.015Zm239.394 38.126 244.904-49.197 12.318 327.384-257.222-278.187ZM503.75 976.227v-.277l-12.259-325.648L620.532 782.49v.058l-.059-.058L503.75 976.213v.014Zm141.972 41.193v-.15l-23.295-233.657L922.9 864.605 645.736 1017.42h-.014Zm279.671-152.392-.131-.043h.044l.087.029v.014Zm3.499-.7 322.738-82.174 11.7 195.503-334.438-113.329ZM1264.98 975.6l-11.58-193.49 120.11 12.165L1264.98 975.6Zm323.85 1.853L1377.4 794.289l345.62-18.334-134.17 201.498h-.02Z" opacity=".5"/></svg>