<svg width="320" height="574" viewBox="0 0 320 574" fill="none" xmlns="http://www.w3.org/2000/svg">
<mask id="mask0_4_17439" style="mask-type:alpha" maskUnits="userSpaceOnUse" x="0" y="0" width="320" height="574">
<rect width="320" height="573.836" fill="#D9D9D9"/>
</mask>
<g mask="url(#mask0_4_17439)">
<g opacity="0.5">
<path d="M135.458 142.059L266.766 18.9292L234.347 115.572L135.458 142.059Z" fill="#89B6E9"/>
<path d="M135.458 142.102L234.383 115.583L260.687 229.677L135.458 142.102Z" fill="#7FCBF5"/>
<path d="M266.765 18.7534L234.382 115.786L260.686 229.88L266.765 18.7534Z" fill="#AFCEF5"/>
<path d="M160.342 64.5663L135.609 142.06L266.765 18.7534L160.342 64.5663Z" fill="#AFCEF5"/>
<path d="M336.051 193.621L263.357 137.075L260.687 229.88L336.051 193.621Z" fill="#6D91F3"/>
<path d="M266.766 18.7534L336.051 193.621L263.357 137.075L266.766 18.7534Z" fill="#42A8E7"/>
<path d="M177.853 -35.6946L160.341 64.5664L266.765 18.7535L325.18 -44.2285L177.853 -35.6946Z" fill="#9BAEE7"/>
<path d="M346.916 -44.2285L266.766 18.7535L325.18 -44.2285H346.916Z" fill="#8981C0"/>
<path d="M365.636 -38.3578L336.051 67.2349L266.766 18.7535L346.916 -44.2285L365.636 -38.3578Z" fill="#6EB5E6"/>
<path d="M336.051 193.621V67.2348L266.766 18.7534L336.051 193.621Z" fill="#46B1E5"/>
<path d="M260.687 229.88L336.051 193.62L352.958 288.016L260.687 229.88Z" fill="#577EED"/>
<path d="M260.687 229.88L375.298 320.545L352.958 288.016L260.687 229.88Z" fill="#4768C6"/>
<path d="M288.954 366.411L260.687 229.88L375.298 320.545L288.954 366.411Z" fill="#708EE1"/>
<path d="M246.685 477.336L375.298 320.545L288.954 366.411L246.685 477.336Z" fill="#606CD7"/>
<path d="M246.685 477.336L389.788 421.34L375.298 320.545L246.685 477.336Z" fill="#9087F2"/>
<path d="M386.767 520L389.789 421.34L246.686 477.336L386.767 520Z" fill="#817CEA"/>
<path d="M10.5979 -44.2285L26.6775 18.7535L130.757 -44.2285H10.5979Z" fill="#BECDF2"/>
</g>
</g>
</svg>
