<svg xmlns="http://www.w3.org/2000/svg" width="1555" height="1085" fill="none"><g opacity=".5"><path fill="#89B6E9" d="M822.366 345.066 1049.42 104l-56.059 189.208-170.995 51.858Z"/><path fill="#7FCBF5" d="m822.366 345.149 171.058-51.92 45.486 223.375-216.544-171.455Z"/><path fill="#AFCEF5" d="m1049.42 103.655-55.997 189.971 45.487 223.375 10.51-413.346Z"/><path fill="#AFCEF5" d="m865.394 193.348-42.767 151.717 226.793-241.41-184.026 89.693Z"/><path fill="#6D91F3" d="m1169.23 446.012-125.7-110.706-4.62 181.695 130.32-70.989Z"/><path fill="#42A8E7" d="m1049.42 103.655 119.81 342.357-125.7-110.706 5.89-231.651Z"/><path fill="#9BAEE7" d="m895.675-2.944-30.281 196.292 184.026-89.693 101.01-123.306L895.675-2.944Z"/><path fill="#8981C0" d="m1188.01-19.651-138.59 123.306 101.01-123.306h37.58Z"/><path fill="#6EB5E6" d="m1220.38-8.158-51.15 206.731-119.81-94.918 138.59-123.306 32.37 11.493Z"/><path fill="#46B1E5" d="M1169.23 446.012V198.573l-119.81-94.918 119.81 342.357Z"/><path fill="#4EAEDE" d="M1520.03 136.966 1358.2 42.007 1289.29-28l-68.91 19.842-51.15 206.731v247.439l350.8-309.046Z"/><path fill="#529AD4" d="m1378.05 35.686 141.98 101.28-161.83-94.959L1289.29-28l88.76 63.686Z"/><path fill="#B895E6" d="m1618.18-28-98.15 164.966L1318.18-7.27l300-20.73Z"/><path fill="#66A4E9" d="m1646.37 293.229-107.54 35.85-18.8-192.113L1618.18-28l83.53 61.606-55.34 259.623Z"/><path fill="url(#a)" d="m1169.23 446.011 256.84-36.539 93.96-272.506-350.8 309.045Z"/><path fill="#5E7BC0" d="m1538.83 329.078-112.76 80.394 93.96-272.506 18.8 192.112Z"/><path fill="#577EED" d="m1038.91 517.001 130.32-70.989 29.23 184.808-159.55-113.819Z"/><path fill="#4FB2E7" d="m1358.2 544.158-159.74 86.662-29.23-184.808 256.84-36.54-67.87 134.686Z"/><path fill="#4872EE" d="m1237.09 694.506 121.11-150.348-159.74 86.662 38.63 63.686Z"/><path fill="#4768C6" d="m1038.91 517.001 198.18 177.505-38.63-63.686-159.55-113.819Z"/><path fill="#708EE1" d="m1087.79 784.303-48.88-267.302 198.18 177.505-149.3 89.797Z"/><path fill="#606CD7" d="m1014.7 1001.47 222.39-306.964-149.3 89.797-73.09 217.167Z"/><path fill="#8E4BEE" d="m1426.07 720.618-67.87-176.46-121.11 150.348 188.98 26.112Z"/><path fill="#83B1EA" d="M1538.83 329.079 1358.2 544.158l67.87-134.686 112.76-80.393Z"/><path fill="#5E7BC0" d="m1646.37 293.229-107.54 35.849 121.11 43.854-13.57-79.703Z"/><path fill="#65A0E2" d="m1655.77 426.159-116.94-97.08 121.11 43.853-4.17 53.227Z"/><path fill="#99B1E9" d="m1659.94 510.753-301.74 33.405 180.63-215.079 116.93 97.08 4.18 84.594Z"/><path fill="#6592CB" d="m1675.61 605.754-146.17 139.92 57.51-226.844 72.99-8.077 15.67 95.001Z"/><path fill="url(#b)" d="m1358.2 544.158 171.24 201.516 57.51-226.844-228.75 25.328Z"/><path fill="#9087F2" d="m1426.07 720.618 103.37 25.056-171.24-201.516 67.87 176.46Z"/><path fill="#AC9CD2" d="m1675.61 605.754-146.17 139.92 140.94 30.271 5.23-170.191Z"/><path fill="#A89AEC" d="m1237.09 694.506 25.06 197.337L1377 963.887l152.44-218.213-103.37-25.056-188.98-26.112Z"/><path fill="#9C89C9" d="m1701.71 854.258-172.27-108.584 140.94 30.27 31.33 78.314Z"/><path fill="#8372B9" d="m1377 963.887 324.71-109.629-172.27-108.584L1377 963.887Z"/><path fill="#9087F2" d="m1014.7 1001.47 247.45-109.627-25.06-197.337-222.39 306.964Z"/><path fill="#817CEA" d="m1256.92 1085 5.23-193.157-247.45 109.627 242.22 83.53Z"/><path fill="#8D7FE6" d="m1377 963.888-114.85-72.045-5.23 193.157L1377 963.888Z"/><path fill="#7962C9" d="M1520.03 1085 1377 963.888l324.71-109.63L1650.55 1085h-130.52Z"/><path fill="#8778D5" d="M1256.92 1085 1377 963.888 1520.03 1085h-263.11Z"/><path fill="#BECDF2" d="m606.461-19.651 27.804 123.306L814.236-19.651H606.461Z"/><path fill="#F5EFFD" d="M34.596 877.978 0 1043.13l157.725-4.67L34.596 877.978Z"/></g><defs><linearGradient id="a" x1="1567.29" x2="1170.35" y1="218.812" y2="447.986" gradientUnits="userSpaceOnUse"><stop stop-color="#5E7BC2"/><stop offset="1" stop-color="#E3E6EE"/></linearGradient><linearGradient id="b" x1="1586.95" x2="1358.2" y1="632.252" y2="632.252" gradientUnits="userSpaceOnUse"><stop stop-color="#6AA5DC"/><stop offset="1" stop-color="#E6D2ED"/></linearGradient></defs></svg>