<svg width="768" height="968" viewBox="0 0 768 968" fill="none" xmlns="http://www.w3.org/2000/svg">
<g opacity="0.5">
<path d="M371.04 264.04L588.34 33.3301L534.69 214.41L371.04 264.04Z" fill="#89B6E9"/>
<path d="M371.04 264.12L534.75 214.43L578.28 428.21L371.04 264.12Z" fill="#7FCBF5"/>
<path d="M588.34 33L534.75 214.81L578.28 428.59L588.34 33Z" fill="#AFCEF5"/>
<path d="M412.22 118.84L371.29 264.04L588.34 33L412.22 118.84Z" fill="#AFCEF5"/>
<path d="M703 360.65L582.7 254.7L578.28 428.59L703 360.65Z" fill="#6D91F3"/>
<path d="M588.34 33L703 360.65L582.7 254.7L588.34 33Z" fill="#42A8E7"/>
<path d="M441.2 -69.0198L412.22 118.84L588.34 33.0002L685.01 -85.0098L441.2 -69.0198Z" fill="#9BAEE7"/>
<path d="M720.98 -85.0098L588.34 33.0002L685.01 -85.0098H720.98Z" fill="#8981C0"/>
<path d="M751.96 -74.0098L703 123.84L588.34 33.0002L720.98 -85.0098L751.96 -74.0098Z" fill="#6EB5E6"/>
<path d="M703 360.65V123.84L588.34 33L703 360.65Z" fill="#46B1E5"/>
<path d="M1038.74 64.88L883.86 -26L817.91 -93L751.96 -74.01L703 123.84V360.65L1038.74 64.88Z" fill="#4EAEDE"/>
<path d="M703 360.65L948.81 325.68L1038.74 64.8799L703 360.65Z" fill="url(#paint0_linear_2_7149)"/>
<path d="M578.28 428.59L703 360.65L730.98 537.52L578.28 428.59Z" fill="#577EED"/>
<path d="M883.86 454.58L730.98 537.52L703 360.65L948.81 325.68L883.86 454.58Z" fill="#4FB2E7"/>
<path d="M767.95 598.47L883.86 454.58L730.98 537.52L767.95 598.47Z" fill="#4872EE"/>
<path d="M578.28 428.59L767.95 598.47L730.98 537.52L578.28 428.59Z" fill="#4768C6"/>
<path d="M625.06 684.41L578.28 428.59L767.95 598.47L625.06 684.41Z" fill="#708EE1"/>
<path d="M555.11 892.25L767.95 598.47L625.06 684.41L555.11 892.25Z" fill="#606CD7"/>
<path d="M948.81 623.46L883.86 454.58L767.95 598.47L948.81 623.46Z" fill="#8E4BEE"/>
<path d="M767.95 598.47L791.93 787.33L901.85 856.28L1047.74 647.44L948.81 623.46L767.95 598.47Z" fill="#A89AEC"/>
<path d="M555.11 892.25L791.93 787.33L767.95 598.47L555.11 892.25Z" fill="#9087F2"/>
<path d="M786.93 972.19L791.93 787.33L555.11 892.25L786.93 972.19Z" fill="#817CEA"/>
<path d="M164.41 -85.0098L191.02 33.0002L363.26 -85.0098H164.41Z" fill="#BECDF2"/>
</g>
<defs>
<linearGradient id="paint0_linear_2_7149" x1="1083.97" y1="143.21" x2="704.08" y2="362.54" gradientUnits="userSpaceOnUse">
<stop stop-color="#5E7BC2"/>
<stop offset="1" stop-color="#E3E6EE"/>
</linearGradient>
</defs>
</svg>
