<svg xmlns="http://www.w3.org/2000/svg" width="264" height="192" fill="none"><path fill="#6883C1" d="m80.67 35.146-10.713-7.053-4.795-3.159a254.64 254.64 0 0 0-6.048 5.62c-4.746 4.58.874 7.37.874 7.37s3.532 2.153 9.16 6.132c5.632 3.971 1.622 8.547.979 9.129-.64.574-32.874 29.121-32.874 29.121l3.937.906s40.431-35.035 40.86-35.443c8.397-8.032-1.383-12.623-1.383-12.623h.004Z"/><path fill="#2A3188" d="M31.822 0v84.171h63.816V0H31.821Zm61.27 81.629H34.364V2.546H81.1C73.054 9.518 44.083 34.63 43.713 34.988 35.319 43.012 45.099 47.6 45.099 47.6l1.792 1.182 13.84 8.926a231.556 231.556 0 0 0 5.92-5.517c4.75-4.568-.87-7.36-.87-7.36s-3.536-2.158-9.164-6.137c-5.628-3.972-1.614-8.544-.978-9.13.574-.512 25.096-22.237 30.489-27.014h6.964v79.083-.004Z"/><path fill="#6883C1" d="m140.191 26.128 14.808-11.255h.111V3.193h-43.917v11.68H135.7l-23.286 17.7 7.061 9.287v.031a17.75 17.75 0 0 1 12.527-5.154c9.838 0 17.812 7.974 17.812 17.812 0 9.838-7.974 17.812-17.812 17.812-9.838 0-17.812-7.974-17.812-17.812h-11.783c0 16.344 13.251 29.595 29.595 29.595s29.595-13.25 29.595-29.595c0-13.502-9.048-24.865-21.406-28.424v.003Z"/><path fill="#6883C1" d="M189.725 0c-16.344 0-29.595 13.251-29.595 29.595 0 16.345 13.251 29.596 29.595 29.596s29.595-13.252 29.595-29.596S206.069 0 189.725 0Zm0 47.407c-9.838 0-17.812-7.974-17.812-17.812 0-9.838 7.974-17.812 17.812-17.812 9.838 0 17.812 7.974 17.812 17.812 0 9.838-7.974 17.812-17.812 17.812Zm-9.183 17.165v16.675h-3.81V67.72h-5.717l-.119 3.474c-.081 2.37-.27 4.284-.57 5.755-.301 1.468-.805 2.597-1.514 3.383-.705.785-1.695 1.178-2.966 1.178-.524 0-1.159-.088-1.907-.262l.239-3.262c.208.065.435.096.69.096.92 0 1.563-.543 1.929-1.63.366-1.086.597-2.792.69-5.107l.239-6.768h12.816v-.004Zm17.742 13.578v3.097h-12.908V64.572h12.6v3.097h-8.767v3.62h7.742v3.001h-7.742v3.86h9.075Zm16.533-10.431h-5.335v13.528h-3.81V67.72h-5.312v-3.147h14.461v3.147h-.004Z"/><path fill="#2A3188" d="m10.034 183.962 3.236 5.174H9.626l-1.806-3.097-3.117 3.097H.666l5.674-5.335-3.05-4.981h3.593l1.738 2.962 3.031-2.962h3.818l-5.436 5.146v-.004Zm6.456-5.146h3.375l-2.384 10.32h-3.375l2.385-10.32Zm11.514 5.146 3.236 5.174h-3.644l-1.806-3.097-3.117 3.097h-4.037l5.674-5.335-3.05-4.981h3.593l1.738 2.962 3.031-2.962h3.818l-5.436 5.146v-.004Zm22.966-5.146-2.384 10.319h-3.32l1.84-8.004h-3.405l-.597 2.257c-1.194 4.469-2.419 5.925-5.161 5.925a5.98 5.98 0 0 1-1.499-.178l.732-2.388c.135.031.289.043.443.043 1.175 0 1.841-.987 2.623-3.864l1.125-4.114h9.607l-.004.004Zm5.366 2.257-.393 1.741h5.297l-.493 2.181H55.43l-.428 1.887h6.252l-.547 2.257H51.15l2.385-10.319h9.333l-.527 2.253h-6.014.008Zm17.785.058h-3.713l-1.807 8.005h-3.32l1.806-8.005h-3.594l.528-2.315h10.628l-.528 2.315Zm13.405-2.315-2.384 10.32h-3.375l.921-4.01h-4.584l-.92 4.01h-3.375l2.385-10.32h3.374l-.886 3.864h4.584l.886-3.864h3.374Zm12.623.016-2.384 10.304h-3.32l.612-2.597h-1.753l-2.553 2.597h-3.68l3.186-3.082c-1.175-.531-1.806-1.491-1.806-2.785 0-2.681 2.504-4.437 6.217-4.437h5.485-.004Zm-8.228 4.187c0 .839.528 1.267 1.638 1.267h2.01l.732-3.155H94.31c-1.518 0-2.385.694-2.385 1.888h-.004Zm20.851-4.187-2.384 10.304h-3.321l.613-2.597h-1.753l-2.554 2.597h-3.678l3.185-3.082c-1.175-.531-1.806-1.491-1.806-2.785 0-2.681 2.503-4.437 6.217-4.437h5.485-.004Zm-8.228 4.187c0 .839.528 1.267 1.637 1.267h2.011l.732-3.155h-1.991c-1.518 0-2.385.694-2.385 1.888h-.004Zm13.802 1.783c0-3.582 3.051-6.19 7.477-6.19 2.196 0 3.987.693 4.838 1.945l-2.434 1.68c-.563-.782-1.429-1.21-2.623-1.21-2.315 0-3.849 1.549-3.849 3.582 0 1.387 1.091 2.316 2.913 2.316 1.074 0 2.06-.355 2.912-1.195l1.991 1.695c-1.344 1.402-3.101 1.919-5.231 1.919-3.663 0-5.997-1.842-5.997-4.542h.003Zm25.84-5.986-2.384 10.32h-3.321l1.807-8.005h-4.53l-1.807 8.005h-3.32l2.384-10.32h11.175-.004Zm9.014 8.316h-5.077l-1.379 2.004h-3.559l7.646-10.32h3.32l2.878 10.32h-3.355l-.478-2.004h.004Zm-.512-2.153-.802-3.347-2.284 3.347h3.086Zm17.904-2.843c0 2.608-2.3 4.303-5.894 4.303h-2.384l-.613 2.697h-3.374l2.384-10.32h5.042c3.101 0 4.839 1.225 4.839 3.317v.003Zm-3.406.251c0-.871-.697-1.268-1.872-1.268h-1.772l-.697 3.02h2.011c1.483 0 2.334-.62 2.334-1.752h-.004Zm14.785-1.256h-3.714l-1.806 8.005h-3.321l1.807-8.005h-3.594l.528-2.315h10.627l-.527 2.315Zm7.923 6.001h-5.077l-1.379 2.004h-3.559l7.646-10.32h3.321l2.877 10.32h-3.355l-.478-2.004h.004Zm-.512-2.153-.801-3.347-2.285 3.347h3.086Zm14.549-1.09 2.538 5.247h-3.578l-1.787-3.953h-1.703l-.921 3.953h-3.374l2.384-10.32h3.375l-.921 4.01h1.429l3.764-4.01h3.748l-4.958 5.069.004.004Zm6.083-5.073h3.32l-1.448 6.059 6.321-6.059h3.22l-2.384 10.32h-3.321l1.449-6.044-6.322 6.044h-3.22l2.385-10.32Zm20.408 8.316h-5.077l-1.379 2.004h-3.56l7.647-10.32h3.32l2.878 10.32h-3.356l-.477-2.004h.004Zm-.513-2.153-.801-3.347-2.284 3.347h3.085Zm17.566 1.845h1.637l-1.021 4.392h-3.082l.478-2.08h-7.631l-.478 2.08h-3.1l1.02-4.392h.309c1.533-.03 2.519-2.18 3.27-4.923l.851-3.081h9.607l-1.856 8.004h-.004Zm-7.701 0h4.376l1.329-5.689h-3.424l-.339 1.236c-.547 1.961-1.09 3.583-1.942 4.453Zm19.369.308h-5.077l-1.38 2.004h-3.559l7.647-10.32h3.32l2.877 10.32h-3.355l-.477-2.004h.004Zm-.513-2.153-.801-3.347-2.284 3.347h3.085ZM8.944 152.102c-2.792-1.522-4.984-3.621-6.567-6.302C.794 143.123 0 140.099 0 136.732s.801-6.39 2.404-9.068c1.602-2.681 3.798-4.78 6.594-6.298 2.793-1.521 5.925-2.28 9.388-2.28 2.812 0 5.377.489 7.696 1.471 2.32.979 4.28 2.4 5.882 4.265l-4.118 3.871c-2.484-2.677-5.539-4.018-9.167-4.018-2.354 0-4.461.513-6.325 1.545a11.148 11.148 0 0 0-4.365 4.287c-1.048 1.83-1.568 3.906-1.568 6.225 0 2.319.524 4.395 1.568 6.225s2.5 3.259 4.365 4.287c1.86 1.029 3.971 1.545 6.325 1.545 3.628 0 6.683-1.356 9.167-4.068l4.118 3.922c-1.602 1.86-3.57 3.282-5.905 4.264-2.338.978-4.911 1.471-7.72 1.471-3.462 0-6.594-.758-9.387-2.28l-.008.004Zm29.761-32.527h6.275v24.364l18.432-24.364h5.932v34.314H63.07v-24.314l-18.432 24.314h-5.933v-34.314Zm47.446 32.527c-2.793-1.522-4.984-3.621-6.568-6.302-1.583-2.677-2.376-5.701-2.376-9.068s.8-6.39 2.403-9.068c1.603-2.681 3.798-4.78 6.595-6.298 2.793-1.521 5.924-2.28 9.387-2.28 2.812 0 5.378.489 7.697 1.471 2.319.979 4.279 2.4 5.882 4.265l-4.118 3.871c-2.485-2.677-5.54-4.018-9.168-4.018-2.354 0-4.46.513-6.325 1.545a11.147 11.147 0 0 0-4.364 4.287c-1.048 1.83-1.568 3.906-1.568 6.225 0 2.319.524 4.395 1.568 6.225s2.5 3.259 4.364 4.287c1.86 1.029 3.971 1.545 6.325 1.545 3.629 0 6.683-1.356 9.168-4.068l4.118 3.922c-1.603 1.86-3.571 3.282-5.905 4.264-2.339.978-4.912 1.471-7.72 1.471-3.467 0-6.595-.758-9.387-2.28l-.008.004Zm56.764-27.134h-11.371v28.921h-6.325v-28.921h-11.325v-5.393h29.021v5.393Zm32.241 23.578v5.343h-25.735v-34.314h25.05v5.343h-18.679v8.925h16.568v5.243h-16.568v9.46h19.364Zm39.145 5.343-.05-22.746-11.275 18.821h-2.843l-11.275-18.528v22.453h-6.028v-34.314h5.242l13.579 22.696 13.432-22.696h5.196l.096 34.314h-6.078.004Zm39.599-7.939h-17.157l-3.382 7.939h-6.568l15.443-34.314h6.275L264 153.889h-6.668l-3.432-7.939Zm-2.107-5-6.472-15-6.421 15h12.893Z"/></svg>