<svg id="Сгруппировать_3467" data-name="Сгруппировать 3467" xmlns="http://www.w3.org/2000/svg" xmlns:xlink="http://www.w3.org/1999/xlink" width="27.573" height="27.558" viewBox="0 0 27.573 27.558">
  <defs>
    <clipPath id="clip-path">
      <rect id="Прямоугольник_2217" data-name="Прямоугольник 2217" width="27.573" height="27.558" fill="none"/>
    </clipPath>
  </defs>
  <g id="Сгруппировать_3466" data-name="Сгруппировать 3466" transform="translate(0 0)" clip-path="url(#clip-path)">
    <path id="Контур_9795" data-name="Контур 9795" d="M8.3,0,6.813,0c-2.079.006-3.624-.1-5.246,1.526S.011,4.614.011,6.755c0,4.53-.022,9.056,0,13.584a15.114,15.114,0,0,0,.152,3.221,5.291,5.291,0,0,0,3.189,3.628,7.573,7.573,0,0,0,3.051.349c4.524.007,9.063.021,13.592,0,2.263-.009,3.824.281,5.606-1.176l.936-.963c.037-.05.062-.075.094-.118a5.429,5.429,0,0,0,.469-.826,6.271,6.271,0,0,0,.46-2.945c0-5.073.029-10.207,0-15.271a13.931,13.931,0,0,0-.04-1.649A5.271,5.271,0,0,0,21.893,0H10.02C9.46,0,8.854.026,8.3,0M8.061,16.873A1.165,1.165,0,1,1,9.24,18.805,1.188,1.188,0,0,1,7.8,17.19a.989.989,0,0,1,.258-.318M19.746,7.341c.341,0,.645.4.668.74.029.434,0,.968,0,1.413l0,4.247c.008,1.324-.629,1.143-1.686,1.158H15.9a2.254,2.254,0,0,1-1.268-.161c-.343-.254-.339-.539-.339-1.087,0-.8-.031-5.393.011-5.66a.786.786,0,0,1,.716-.663c.038-.022,0-.009.07-.024h4.574c.107.022.032-.006.085.036m.1,10.618a1.167,1.167,0,1,1-.873-1.393,1.167,1.167,0,0,1,.873,1.393M9.623,6.032c0-.782-.127-1.1.487-1.1H17.4c.369,0,.546.006.546.436,0,1.145.074,1.113-.7,1.111H10.321c-.451,0-.7.06-.7-.449M7.86,7.322c.226-.046,2.925-.015,3.395-.015a4.764,4.764,0,0,1,1.6.1c.469.276.428.663.428,1.3v5.15a1.014,1.014,0,0,1-.17.714.836.836,0,0,1-.529.314,16.25,16.25,0,0,1-1.694.01H9.176a4.566,4.566,0,0,1-1.595-.106c-.463-.274-.431-.637-.423-1.293V8.351c0-.6.175-.922.7-1.029m12.2,13.831a11.2,11.2,0,0,1-.05,1.792c-.229.656-.812.591-1.278.595-.683.006-1.079-.031-1.3-.575a9.437,9.437,0,0,1-.063-1.81l-7.16-.014a9.8,9.8,0,0,1-.057,1.825c-.238.646-.859.574-1.3.574-.679,0-1.044-.017-1.276-.6-.156-.388.038-1.4-.07-1.8-1.63-.1-1.373.463-1.366-1.889V9.435c0-1.071-.035-2.192,0-3.254A1.968,1.968,0,0,1,7.6,4.367c1.606-.461,10.728-.511,12.374,0a1.987,1.987,0,0,1,1.461,1.783c.054,1.045.006,2.224.006,3.285,0,.571.033,11.152,0,11.444-.036.271-.278.26-.54.26a6.863,6.863,0,0,0-.841.013" transform="translate(0 0)" fill="#580086" fill-rule="evenodd"/>
    <path id="Контур_9796" data-name="Контур 9796" d="M22.513,19.7a1.167,1.167,0,1,1-.873-1.393,1.167,1.167,0,0,1,.873,1.393m-11.894.447a1.118,1.118,0,0,1-.154-1.215.989.989,0,0,1,.258-.318A1.165,1.165,0,1,1,11.9,20.548a1.12,1.12,0,0,1-1.283-.4m-.1-11.084c.226-.046,2.925-.015,3.395-.015a4.764,4.764,0,0,1,1.6.1c.469.276.428.663.428,1.3v5.15a1.014,1.014,0,0,1-.17.714.836.836,0,0,1-.529.314,16.25,16.25,0,0,1-1.694.01H11.838a4.566,4.566,0,0,1-1.595-.106c-.463-.274-.431-.637-.423-1.293V10.093c0-.6.175-.922.7-1.029m7.157.008c.038-.022,0-.009.07-.024h4.574c.107.022.032-.006.085.036.341,0,.645.4.668.74.029.434,0,.968,0,1.413l0,4.247c.008,1.324-.629,1.143-1.686,1.158H18.558a2.254,2.254,0,0,1-1.268-.161c-.343-.254-.339-.539-.339-1.087,0-.8-.031-5.392.011-5.66a.786.786,0,0,1,.716-.663m-5.394-1.3c0-.782-.127-1.1.487-1.1h7.293c.369,0,.546.006.546.436,0,1.145.074,1.113-.7,1.111H12.983c-.451,0-.7.06-.7-.449M22.719,22.9a6.863,6.863,0,0,1,.841-.013c.262,0,.5.011.54-.26.038-.293,0-10.874,0-11.444,0-1.06.048-2.24-.006-3.285A1.987,1.987,0,0,0,22.638,6.11c-1.648-.511-10.768-.461-12.374,0A1.968,1.968,0,0,0,8.8,7.924c-.037,1.062,0,2.183,0,3.254V21c-.007,2.351-.264,1.788,1.366,1.889.108.4-.086,1.413.07,1.8.232.579.6.595,1.276.6.444,0,1.064.072,1.3-.574a9.857,9.857,0,0,0,.058-1.825l7.159.014a9.437,9.437,0,0,0,.063,1.81c.222.544.617.581,1.3.575.467,0,1.049.061,1.278-.595a11.2,11.2,0,0,0,.05-1.792" transform="translate(-2.662 -1.743)" fill="#fff" fill-rule="evenodd"/>
  </g>
</svg>
