<svg xmlns="http://www.w3.org/2000/svg" width="74.401" height="85.91" viewBox="0 0 74.401 85.91">
  <g id="Сгруппировать_497" data-name="Сгруппировать 497" transform="translate(-19.217)">
    <path id="Контур_4593" data-name="Контур 4593" d="M155.213,42.957l-74.4,42.954V0Z" transform="translate(-61.595 -0.001)" fill="#00c3ff"/>
    <g id="Иконка_Расписание" data-name="Иконка Расписание" transform="translate(25.542 26.451)">
      <rect id="Прямоугольник_2" data-name="Прямоугольник 2" width="15.622" height="1.359" transform="translate(8.906 13.128)" fill="#fff"/>
      <rect id="Прямоугольник_3" data-name="Прямоугольник 3" width="15.622" height="1.359" transform="translate(8.906 16.524)" fill="#fff"/>
      <rect id="Прямоугольник_4" data-name="Прямоугольник 4" width="15.622" height="1.358" transform="translate(8.906 9.732)" fill="#fff"/>
      <rect id="Прямоугольник_5" data-name="Прямоугольник 5" width="10.868" height="1.358" transform="translate(8.906 19.921)" fill="#fff"/>
      <path id="Контур_25" data-name="Контур 25" d="M50.023,141.118c0,.052-.019.049-.05.077l-1.76,1.318c-.056.042-.09.07-.147.108l-.317.234a.556.556,0,0,1-.167.11,11.339,11.339,0,0,0,.807,1.125c.274-.183,1.2-.9,1.492-1.119l1.3-.973a.768.768,0,0,1,.2-.136v-4.437H50.023Z" transform="translate(-24.136 -114.786)" fill="#fff" fill-rule="evenodd"/>
      <rect id="Прямоугольник_6" data-name="Прямоугольник 6" width="2.717" height="1.359" transform="translate(4.151 13.128)" fill="#fff"/>
      <rect id="Прямоугольник_7" data-name="Прямоугольник 7" width="2.717" height="1.359" transform="translate(4.151 16.524)" fill="#fff"/>
      <rect id="Прямоугольник_8" data-name="Прямоугольник 8" width="2.717" height="1.358" transform="translate(4.151 9.732)" fill="#fff"/>
      <rect id="Прямоугольник_9" data-name="Прямоугольник 9" width="2.717" height="1.358" transform="translate(4.151 19.921)" fill="#fff"/>
      <path id="Контур_26" data-name="Контур 26" d="M19.787,108.545H44.161a2.121,2.121,0,0,1,2.115,2.115v17.387a7.5,7.5,0,0,0-9.529,7.211H19.787a2.12,2.12,0,0,1-2.115-2.114V110.66A2.121,2.121,0,0,1,19.787,108.545Z" transform="translate(-17.672 -108.545)" fill="rgba(126,126,126,0)" stroke="#fff" stroke-miterlimit="22.926" stroke-width="4" fill-rule="evenodd"/>
      <path id="Контур_27" data-name="Контур 27" d="M49.827,147.183a6.3,6.3,0,1,0-6.3-6.3A6.308,6.308,0,0,0,49.827,147.183Z" transform="translate(-23.261 -114.174)" fill="none" stroke="#041442" stroke-miterlimit="22.926" stroke-width="0.48" fill-rule="evenodd"/>
      <path id="Контур_28" data-name="Контур 28" d="M49.827,147.183a6.3,6.3,0,1,0-6.3-6.3A6.308,6.308,0,0,0,49.827,147.183Z" transform="translate(-23.261 -114.174)" fill="none" stroke="#fff" stroke-miterlimit="22.926" stroke-width="4" fill-rule="evenodd"/>
      <line id="Линия_1" data-name="Линия 1" x2="28.603" transform="translate(0 5.329)" fill="none" stroke="#fff" stroke-miterlimit="22.926" stroke-width="4"/>
    </g>
  </g>
</svg>
