<svg xmlns="http://www.w3.org/2000/svg" width="74.401" height="85.91" viewBox="0 0 74.401 85.91">
  <g id="Сгруппировать_501" data-name="Сгруппировать 501" transform="translate(-25.453 0)">
    <path id="Контур_4599" data-name="Контур 4599" d="M155.213,42.957l-74.4,42.954V0Z" transform="translate(-55.359 -0.001)" fill="#00c3ff"/>
    <g id="Иконка_Прямой_эфир" data-name="Иконка Прямой эфир" transform="translate(27.966 23.845)">
      <path id="Контур_11" data-name="Контур 11" d="M173.567,144.879V132.005a1.19,1.19,0,0,1,1.332-1.332h30.777a1.19,1.19,0,0,1,1.332,1.332v12.873a1.19,1.19,0,0,1-1.332,1.332H174.9a1.19,1.19,0,0,1-1.332-1.332Zm-2.219-13.243v13.613a2.935,2.935,0,0,0,.942,2.165,3.092,3.092,0,0,0,2.165,1.016h31.591a3.3,3.3,0,0,0,3.181-3.107V131.561a3.336,3.336,0,0,0-3.181-3.107H174.455A3.336,3.336,0,0,0,171.348,131.636Z" transform="translate(-171.348 -110.55)" fill="#fff" fill-rule="evenodd"/>
      <path id="Контур_12" data-name="Контур 12" d="M200.906,134.328V143.5a1.081,1.081,0,0,0,.961.961H206.6c1.277,0,1.277-2.219,0-2.219h-3.478v-2.219H206.6c1.277,0,1.277-2.22,0-2.22h-3.478v-2.219H206.6c1.277,0,1.277-2.22,0-2.22h-4.736A1.082,1.082,0,0,0,200.906,134.328Z" transform="translate(-174.198 -111.024)" fill="#fff" fill-rule="evenodd"/>
      <path id="Контур_13" data-name="Контур 13" d="M191.081,134.327a5.147,5.147,0,0,0,.281,1.495c.115.461.211.841.325,1.3l1.644,6.568a1.135,1.135,0,0,0,2.138.054l1.649-6.564a17.379,17.379,0,0,0,.622-2.855,1.128,1.128,0,0,0-2.206-.134l-.709,2.842a9.265,9.265,0,0,0-.341,1.509l-1.182-4.294A1.129,1.129,0,0,0,191.081,134.327Z" transform="translate(-173.251 -111.023)" fill="#fff" fill-rule="evenodd"/>
      <path id="Контур_14" data-name="Контур 14" d="M200.906,109.6c0,1.037.717,1.152,1.5,3.159a8.248,8.248,0,0,1,.644,3.129v1.48a8.537,8.537,0,0,1-.146.963,9.8,9.8,0,0,1-1.2,3.166c-.563.929-.8.889-.8,1.715a1.129,1.129,0,0,0,2.074.446,12.329,12.329,0,0,0,1.447-11.957,12.5,12.5,0,0,0-1.447-2.548,1.224,1.224,0,0,0-.805-.515h-.314A1.077,1.077,0,0,0,200.906,109.6Z" transform="translate(-174.198 -108.64)" fill="#fff" fill-rule="evenodd"/>
      <path id="Контур_15" data-name="Контур 15" d="M178.8,115.964a11.982,11.982,0,0,0,1.826,6.9,8.411,8.411,0,0,0,.539.792c.95,1.27,2.844.033,1.747-1.451a6.745,6.745,0,0,1-.445-.664,10.209,10.209,0,0,1-1.369-4.106,10.6,10.6,0,0,1,.136-2.963,9.962,9.962,0,0,1,.5-1.716,8.873,8.873,0,0,1,.7-1.444c.563-.929.8-.888.8-1.715a1.067,1.067,0,0,0-.969-.961h-.3a1.161,1.161,0,0,0-.773.473A12.164,12.164,0,0,0,178.8,115.964Z" transform="translate(-172.066 -108.64)" fill="#fff" fill-rule="evenodd"/>
      <path id="Контур_16" data-name="Контур 16" d="M176.343,134.329V143.5a1.081,1.081,0,0,0,.961.961h4.735c1.278,0,1.278-2.219,0-2.219h-3.477v-7.916C178.562,133.051,176.343,133.051,176.343,134.329Z" transform="translate(-171.83 -111.024)" fill="#fff" fill-rule="evenodd"/>
      <path id="Контур_17" data-name="Контур 17" d="M190.844,116.955a1.16,1.16,0,0,1,1.05-1.166,1.1,1.1,0,1,1-1.05,1.166Zm-2.22-.221a2.966,2.966,0,0,0,.943,2.46,2.78,2.78,0,0,0,.879.675,3.3,3.3,0,0,0,3.819-.6,2.755,2.755,0,0,0,.674-.879,3.422,3.422,0,0,0,.023-2.964,3.329,3.329,0,0,0-2.862-1.872,3.137,3.137,0,0,0-1.606.319A3.331,3.331,0,0,0,188.624,116.734Z" transform="translate(-173.014 -109.114)" fill="#fff" fill-rule="evenodd"/>
      <path id="Контур_18" data-name="Контур 18" d="M183.712,116.2a7.144,7.144,0,0,0,.813,3.922c.285.569,1.111,2.071,1.85,2.071.679,0,1.258-.262,1.258-1.11,0-.977-1.7-1.691-1.7-4.439a5.788,5.788,0,0,1,1.183-3.4c.244-.338.519-.428.519-1.035,0-.847-.579-1.111-1.258-1.111C185.275,111.095,183.712,114.36,183.712,116.2Z" transform="translate(-172.54 -108.877)" fill="#fff" fill-rule="evenodd"/>
      <path id="Контур_19" data-name="Контур 19" d="M196.566,112.206c0,1,1.7,1.677,1.7,4.438s-1.7,3.448-1.7,4.439c0,.848.58,1.11,1.258,1.11,1.1,0,2.664-3.19,2.664-5.253a7.067,7.067,0,0,0-.789-3.724c-.548-1.094-1.1-2.122-2.17-2.122A1.07,1.07,0,0,0,196.566,112.206Z" transform="translate(-173.779 -108.877)" fill="#fff" fill-rule="evenodd"/>
      <path id="Контур_20" data-name="Контур 20" d="M186.168,134.329V143.5c0,1.277,2.219,1.277,2.219,0v-9.174C188.387,133.051,186.168,133.051,186.168,134.329Z" transform="translate(-172.777 -111.024)" fill="#fff" fill-rule="evenodd"/>
    </g>
  </g>
</svg>
