<svg xmlns="http://www.w3.org/2000/svg" width="74.401" height="85.91" viewBox="0 0 74.401 85.91">
  <g id="Сгруппировать_498" data-name="Сгруппировать 498" transform="translate(-25.453 -0.001)">
    <path id="Контур_4596" data-name="Контур 4596" d="M155.213,42.957l-74.4,42.954V0Z" transform="translate(-55.358 0)" fill="#00c3ff"/>
    <g id="Иконка_Карты_и_схемы" data-name="Иконка Карты и схемы" transform="translate(28.197 21.492)">
      <path id="Контур_6" data-name="Контур 6" d="M326.825,141.585c0-2.042,7.62-3.35,9.847-3.6a38.252,38.252,0,0,1,4.328-.314c.075.295,1.932,3.347,2.147,3.67.386.586.389.993,1.213.993.616,0,.768-.56,1.018-.946l2.178-3.717c3.353,0,10.4.93,13.143,2.677,1.416.9,1.383,1.541-.164,2.469a21,21,0,0,1-5.666,1.793,62.708,62.708,0,0,1-21.114.012,21.373,21.373,0,0,1-5.686-1.776c-.364-.214-1.245-.8-1.245-1.264Zm16.823-32.946a12.317,12.317,0,0,0-3.558.668,11.954,11.954,0,0,0-6.9,5.775,10.586,10.586,0,0,0,.107,9.806l5.056,8.447c.148.273.231.38.381.629l1.144,1.95c.03.267-.343.147-.83.191-.587.054-1.448.114-2.005.19-3.2.438-7.574,1.026-10.217,2.731a5.941,5.941,0,0,0-1.161.965,2.813,2.813,0,0,0-.641,1.443A3.163,3.163,0,0,0,326.732,144c.148.1.28.154.455.26,2.474,1.491,7.137,2.226,10.15,2.567.928.1,1.93.119,2.784.226.4.05,1.472.082,2.729.1h2.92c1.221-.013,2.262-.045,2.664-.1.854-.107,1.857-.121,2.785-.226,3.247-.367,7.884-1.1,10.556-2.8,2.615-1.657,2.2-3.767-.5-5.265a25.132,25.132,0,0,0-7.9-2.228c-.72-.091-1.576-.251-2.3-.294-.379-.023-2.186-.145-2.373-.228-.063-.123-.053.024,0-.154l4.256-7.143c.1-.183.158-.24.273-.427l1.913-3.208a10.828,10.828,0,0,0,.882-2.049,14.024,14.024,0,0,0,.536-3.048l-.2-1.917a10.72,10.72,0,0,0-1.7-4.154,9.4,9.4,0,0,0-1.359-1.611c-.164-.153-.206-.24-.334-.369a13.5,13.5,0,0,0-3.194-2.107,12.138,12.138,0,0,0-5.907-1.192Zm.139,1.655a10.652,10.652,0,0,0-8.342,4.452,8.36,8.36,0,0,0-1.578,4.569c-.274,3.164,1.506,5.694,3.094,8.3.125.207.175.252.3.477.2.355.363.618.574.978l4.068,6.8c.11.194.183.269.3.475l1.147,1.955a8.98,8.98,0,0,1,.846,1.48h.164a5.2,5.2,0,0,1,.573-1.053l4.645-7.772c.2-.329.377-.656.583-.968l3.482-5.831a10.736,10.736,0,0,0,1.121-4.241,3.868,3.868,0,0,0-.078-.672,8.457,8.457,0,0,0-1.6-4.545,10.21,10.21,0,0,0-3.3-2.99A10.867,10.867,0,0,0,343.787,110.294Z" transform="translate(-325.023 -108.639)" fill="#fff" fill-rule="evenodd"/>
      <path id="Контур_7" data-name="Контур 7" d="M345.034,115.534a5.532,5.532,0,0,1,2.678.475,4.914,4.914,0,0,1,2.885,4.4c-.4,4.688-5.947,5.964-8.9,3.306a5.642,5.642,0,0,1-1.058-1.361,4.538,4.538,0,0,1-.4-2.955,5.088,5.088,0,0,1,4.8-3.866Zm.163,11.207a7.654,7.654,0,0,0,3.113-.6,6.342,6.342,0,0,0,1.539-.919,6.222,6.222,0,0,0,2.331-3.428c1.065-4.162-2.536-7.913-6.49-7.913a7.2,7.2,0,0,0-4.472,1.235,6.646,6.646,0,0,0-2.295,2.632,5.968,5.968,0,0,0,1.012,6.606,3.061,3.061,0,0,0,.85.8A7.148,7.148,0,0,0,345.2,126.741Z" transform="translate(-326.107 -109.065)" fill="#fff" fill-rule="evenodd"/>
    </g>
  </g>
</svg>
