<svg xmlns="http://www.w3.org/2000/svg" width="74.401" height="85.91" viewBox="0 0 74.401 85.91">
  <g id="Сгруппировать_499" data-name="Сгруппировать 499" transform="translate(-25.453)">
    <path id="Контур_4597" data-name="Контур 4597" d="M155.213,42.957l-74.4,42.954V0Z" transform="translate(-55.359 -0.001)" fill="#00c3ff"/>
    <g id="Иконка_Результаты" data-name="Иконка Результаты" transform="translate(31.74 23.705)">
      <path id="Контур_21" data-name="Контур 21" d="M96.158,129.946h10.406c.414,0,.749-.482.749-.921v-9.791h12.728V130.7c0,.777.422,1.087,1.123,1.087H131.2v12.385H96.158V129.946Zm36.685.83a16.408,16.408,0,0,0-1-2.392c-.279-.624-.672-2.037-1.4-2.037h-8.76v-7.866a10.869,10.869,0,0,0-1-2.566c-.312-.7-.61-2.037-1.472-2.037H107.986c-.6,0-2.321,3.99-2.321,4.6v6.109H96.831c-.646,0-2.321,3.887-2.321,4.518v16.067a.853.853,0,0,0,.749.837h36.835a.853.853,0,0,0,.748-.818v-14.42Zm-11.155-2.587v1.757h9.059c-.129-.273-.74-1.757-.973-1.757ZM97.38,126.446l-.7,1.66h8.984v-1.674l-8.285.014Zm11.355-10.725h9.883c.269,0,.762,1.385.9,1.673h-11.68C107.974,117.106,108.466,115.721,108.735,115.721Z" transform="translate(-94.51 -113.879)" fill="#fff" fill-rule="evenodd"/>
      <path id="Контур_22" data-name="Контур 22" d="M130.34,135.7c0,1.41-1.744.388-1.744,1.909,0,1.186,1.744.418,1.744,1.744a.857.857,0,0,1-1.256.685c-.679-.362-.235-.995-.817-1.442-1.079-.83-1.954.707-1.078,2.081a2.687,2.687,0,0,0,4.978-1.408,2.867,2.867,0,0,0-.664-1.744,2.863,2.863,0,0,0,.664-1.743,2.686,2.686,0,0,0-4.945-1.458c-.852,1.262-.182,2.951,1,2.167.631-.421.193-1.057.812-1.447A.858.858,0,0,1,130.34,135.7Z" transform="translate(-98.073 -113.455)" fill="#fff" fill-rule="evenodd"/>
      <path id="Контур_23" data-name="Контур 23" d="M98.85,134.048a.912.912,0,0,0,.992.826c1.137,0,.5-1.736,1.653-1.736,1.783,0,.461,2.652-.184,3.288-.474.467-2.461,2.2-2.461,2.83a.919.919,0,0,0,.827.91h3.8c.394,0,2.065-1.82-1.488-1.82.88-1.315,1.9-1.419,2.161-3.8A2.678,2.678,0,1,0,98.85,134.048Z" transform="translate(-94.61 -111.667)" fill="#fff" fill-rule="evenodd"/>
      <path id="Контур_24" data-name="Контур 24" d="M115.428,125.593v3.992c0,1.147-.359,3.273.8,3.273.67,0,.957-.506.957-1.2v-7.983c0-.755-.614-1.336-1.3-.989a10.034,10.034,0,0,0-1.357,1.288C113.022,125.476,113.91,126.609,115.428,125.593Z" transform="translate(-96.251 -113.224)" fill="#fff" fill-rule="evenodd"/>
    </g>
  </g>
</svg>
