<svg xmlns="http://www.w3.org/2000/svg" width="74.401" height="85.91" viewBox="0 0 74.401 85.91">
  <g id="Сгруппировать_500" data-name="Сгруппировать 500" transform="translate(-23.533)">
    <path id="Контур_4598" data-name="Контур 4598" d="M155.213,42.957l-74.4,42.954V0Z" transform="translate(-57.279 -0.001)" fill="#00c3ff"/>
    <g id="Иконка_связь_с_организаторами" data-name="Иконка связь с организаторами" transform="translate(30.265 25.835)">
      <path id="Контур_1" data-name="Контур 1" d="M409.2,134.193v-3.969c-.238-.065-.23-.128-.4-.3a6.157,6.157,0,0,1-1.062-1.026,11.2,11.2,0,0,1-2.189-3.382,10.213,10.213,0,0,1,.616-9.053,11.818,11.818,0,0,1,3.51-3.523,12.95,12.95,0,0,1,5.215-1.887A11.255,11.255,0,0,1,421.9,112.1a11.718,11.718,0,0,1,3.231,2.408,10.193,10.193,0,0,1,2.265,3.375,10.376,10.376,0,0,1-1.3,9.877c-.238.317-.419.509-.657.806a10.291,10.291,0,0,1-3.282,2.358,8.867,8.867,0,0,1-2.061.723,11.263,11.263,0,0,1-2.535.32,4.943,4.943,0,0,1-.625.072c-.3-.007-.285-.064-.626-.074a18.459,18.459,0,0,1-2.628-.158c-.725-.1-.543-.2-1.066.16l-2.506,1.672a4.751,4.751,0,0,1-.906.557Zm7.027-25.554a13.441,13.441,0,0,0-2.64.348,15.126,15.126,0,0,0-4.722,1.823,13.959,13.959,0,0,0-2.746,2.129,11.839,11.839,0,0,0-3.6,7.886,12.919,12.919,0,0,0,1.555,6.941l1.011,1.564c2.027,2.591,1.891,1.117,1.891,3.193V137.6c1.578-.835,4.378-2.493,6.051-3.49.313-.187.276-.115.7-.062a16.418,16.418,0,0,0,8.965-.923,12.767,12.767,0,0,0,2.038-1.094,17.122,17.122,0,0,0,1.77-1.434,1.221,1.221,0,0,0,.378-.388c.3-.38.514-.548,1.075-1.293a12.454,12.454,0,0,0,1.164-1.97,10.924,10.924,0,0,0,.835-2.3,11.7,11.7,0,0,0-.928-8.681,13.876,13.876,0,0,0-1.23-1.9,14.535,14.535,0,0,0-7.646-5.026,14.265,14.265,0,0,0-2.931-.4Z" transform="translate(-402.516 -108.639)" fill="#fff" fill-rule="evenodd"/>
      <path id="Контур_2" data-name="Контур 2" d="M431.079,138.767v3.9a10.39,10.39,0,0,1-1.407-.891l-1.379-.919c-.227-.151-.424-.278-.668-.446-.4-.28-.27-.248-.822-.141-.684.133-1.387.15-2.071.23l-2.129-.149a8.949,8.949,0,0,1-1.8-.5l-1.121-.551c-.16-.088-.253-.118-.412-.214-1.368-.829-1.022-.952-2.4-.878a4.03,4.03,0,0,1-1.4,0c-.23-.019-.525,0-.762,0a18.072,18.072,0,0,0,3.25,2.6,12.843,12.843,0,0,0,8.523,1.515c.8-.1.56-.063,1.111.27.644.389,1.242.776,1.9,1.165s1.233.768,1.9,1.166,1.25.8,1.91,1.153h0v-6.335a12.9,12.9,0,0,0,3.774-3.816,11.386,11.386,0,0,0,.633-11.173c-.092-.19-.2-.347-.3-.538a8.751,8.751,0,0,0-.655-1.016,8,8,0,0,0-.719-.952,17.021,17.021,0,0,0-1.69-1.652,11.126,11.126,0,0,1,.01,1.473c-.031.269.007.532-.029.807-.128.972-.174.685.228,1.2l.683.989a9.352,9.352,0,0,1,1.317,5.957,10.4,10.4,0,0,1-4.964,7.429C431.4,138.565,431.245,138.655,431.079,138.767Z" transform="translate(-404.341 -110.427)" fill="#fff" fill-rule="evenodd"/>
      <path id="Контур_3" data-name="Контур 3" d="M424.787,123.272a1.677,1.677,0,1,0,3.342,0,1.677,1.677,0,0,0-3.342,0Z" transform="translate(-405.848 -110.599)" fill="#fff" fill-rule="evenodd"/>
      <path id="Контур_4" data-name="Контур 4" d="M409.067,123.272a1.677,1.677,0,1,0,3.341,0,1.676,1.676,0,0,0-3.341,0Z" transform="translate(-403.496 -110.599)" fill="#fff" fill-rule="evenodd"/>
      <path id="Контур_5" data-name="Контур 5" d="M416.927,123.272a1.677,1.677,0,1,0,3.342,0,1.677,1.677,0,0,0-3.342,0Z" transform="translate(-404.672 -110.599)" fill="#fff" fill-rule="evenodd"/>
    </g>
  </g>
</svg>
